<svg xmlns="http://www.w3.org/2000/svg" width="1920" height="1052.65" viewBox="0 0 1920 1052.65">
  <g id="About_Akhil" data-name="About Akhil" transform="translate(0 -27.35)">
    <g id="HomeArt">
      <g id="Tuxedo" transform="translate(-1593.499 -276.96)">
        <rect id="Rectangle_1" data-name="Rectangle 1" width="1920" height="942" transform="translate(1593.499 414.96)" fill="#050505"/>
        <g id="Group_2" data-name="Group 2" transform="translate(2098.505 415)">
          <path id="Path_3" data-name="Path 3" d="M359.436,538.729,417.5,708.695,359.436,537.954Z" transform="translate(37.035 233.266)"/>
          <path id="Path_9" data-name="Path 9" d="M432.033,751.011v-.871L337.1,470.981,176.946,0h-1.462L334.722,466.151Z" transform="translate(-42.729)"/>
          <path id="Path_11" data-name="Path 11" d="M460.865,532.072,399.936,711.245l60.929-178.359Z" transform="translate(54.597 230.715)"/>
          <path id="Path_13" data-name="Path 13" d="M447.437,741.708v.908l94.442-276.465L701.118,0h-1.463L539.5,470.981Z" transform="translate(75.193)"/>
          <path id="Path_26" data-name="Path 26" d="M459.536,102.137h.013v-1.546h0Z" transform="translate(80.44 43.618)" fill="#fff"/>
          <path id="Path_28" data-name="Path 28" d="M406.423,99.448a31.817,31.817,0,0,1,4.137,1.758A27.5,27.5,0,0,1,421.8,112.787c-.089-5.894-.81-11.625-3.874-16.368-1.766-2.731-8.111-6.03-13.344-6.03a5.965,5.965,0,0,0-4.024,1.211c-1.379,1.319-2.084,2.5-1.932,3.249C399,96.655,403.648,98.4,406.423,99.448Z" transform="translate(54.022 39.195)" fill="#fff"/>
          <path id="Path_29" data-name="Path 29" d="M478.426,153.451c-3.375-2.5-6.718-5.092-10.007-7.816-6.136-5.1-11.521-9.934-16.464-14.786-2.948-2.9-5.436-4.031-8.886-4.031h-.279c-7.4.122-15.215.181-23.887.181-9.628,0-19.1-.073-26.274-.139h-.175a10.944,10.944,0,0,0-8.364,3.488,267.54,267.54,0,0,1-24.655,21.265V716.23L417.5,886.97,478.426,707.8ZM417.5,714.463a23.731,23.731,0,1,1,23.729-23.731A23.731,23.731,0,0,1,417.5,714.463Zm0-153.309a23.73,23.73,0,1,1,23.729-23.731A23.729,23.729,0,0,1,417.5,561.154Zm0-153.308a23.731,23.731,0,1,1,23.729-23.731A23.73,23.73,0,0,1,417.5,407.846Z" transform="translate(37.035 54.99)" fill="#f9f6ef"/>
          <path id="Path_30" data-name="Path 30" d="M462.428,865.69c-13.276-557,124.417-535.9,95.7,0l120.4-370.16L845.871,0H176.5l167.34,495.53Z" transform="translate(-56.655 -42.383)" fill="#f9f6ef"/>
          <path id="Path_31" data-name="Path 31" d="M324.841,137.616c5.524-1.447,10.784-2.877,15.841-4.493C335.273,134.3,329.714,135.524,324.841,137.616Z" transform="translate(22.034 57.724)" fill="#fff"/>
          <path id="Path_32" data-name="Path 32" d="M361.6,144.113q-3.561,2.7-7.168,5.226V688.521l7.168,20.984V144.113Z" transform="translate(34.867 62.49)" fill="#d1d3d4"/>
          <path id="Path_33" data-name="Path 33" d="M442.436,699.741v.814L449.6,679.57V150.513q-3.615-2.473-7.168-5.118Z" transform="translate(73.025 63.046)" fill="#d1d3d4"/>
          <path id="Path_35" data-name="Path 35" d="M459.545,100.594v0Z" transform="translate(80.444 43.617)" fill="#be1e2d"/>
          <path id="Path_45" data-name="Path 45" d="M407.113,289.739a23.731,23.731,0,1,0,23.729,23.731A23.73,23.73,0,0,0,407.113,289.739Z" transform="translate(47.419 125.636)"/>
          <path id="Path_46" data-name="Path 46" d="M407.113,396.678a23.73,23.73,0,1,0,23.729,23.729A23.729,23.729,0,0,0,407.113,396.678Z" transform="translate(47.419 172.006)"/>
          <path id="Path_47" data-name="Path 47" d="M407.113,503.616a23.731,23.731,0,1,0,23.729,23.731A23.73,23.73,0,0,0,407.113,503.616Z" transform="translate(47.419 218.376)"/>
          <path id="Path_48" data-name="Path 48" d="M280.2,530.318,537.416,941.96,479.355,771.995l-7.168-20.983-97.311-284.86L215.638,0H206.77L82.883,214.538Z" transform="translate(-82.883)" fill="#231f20"/>
          <path id="Path_49" data-name="Path 49" d="M468.033,742.617,460.865,763.6,399.936,941.96,657.153,530.318,854.47,214.538,730.581,0h-8.866L562.476,466.151Z" transform="translate(54.597)" fill="#231f20"/>
        </g>
      </g>
      <g id="Logo" transform="translate(445.408 10.62)">
        <rect id="Rectangle_2" data-name="Rectangle 2" width="97.695" height="97.705" rx="7" transform="translate(465.295 245.331)" fill="#c01a27"/>
        <path id="Path_50" data-name="Path 50" d="M349.653,253.878l115.126-43.549c12.722-3.943,22.905,3.566,23.257,17.348,0,0-4.421,54.084-4.421,72.119,0,19.726,4.421,78.884,4.421,78.884-.352,13.734-10.1,20.18-22.269,14.893l-116.3-58.656a7.979,7.979,0,0,1-3.965-6.485v-68.5A6.98,6.98,0,0,1,349.653,253.878Z" transform="translate(219.831 0)" fill="#c01a27"/>
        <path id="Path_51" data-name="Path 51" d="M458.9,253.878,343.69,210.328c-12.731-3.943-22.921,3.566-23.283,17.348,0,0,4.424,54.084,4.424,72.119,0,19.726-4.424,78.884-4.424,78.884.362,13.734,10.114,20.18,22.293,14.893l116.377-58.656a7.979,7.979,0,0,0,3.968-6.485v-68.5A6.98,6.98,0,0,0,458.9,253.878Z" transform="translate(0 0)" fill="#c01a27"/>
        <path id="Path_121" data-name="Path 121" d="M29.154-86.219a26.392,26.392,0,0,0-10.961,2.26c-5.311,2.825-7.8,7.232-8.136,11.865-.791,10.848,5.65,15.481,8.927,17.854,2.6,1.695,10.057,5.989,15.594,8.7,5.763,2.938,11.187,5.65,14.464,8.588a25.84,25.84,0,0,1,8.249,13.673,16.35,16.35,0,0,1,.226,4.746,16.148,16.148,0,0,0,.791-4.181,25.192,25.192,0,0,0-2.486-10.848c-2.147-3.955-3.955-5.424-6.893-7.684C46.1-43.5,39.324-46.9,36.386-48.364c-3.277-1.582-15.933-8.362-19.323-11.865A15.064,15.064,0,0,1,13.221-71.19a11.407,11.407,0,0,1,6.554-10.17,22.127,22.127,0,0,1,9.718-2.034,22.616,22.616,0,0,1,12.543,4.181,15.743,15.743,0,0,1,5.537,7.345,32.572,32.572,0,0,1,2.6,11.187h3.39c0-11.413.113-19.323.565-24.295h-3.39a18.242,18.242,0,0,1-.791,4.068c-.339.791-.791,1.243-1.582,1.243-.9,0-1.7-.339-3.5-1.469-1.13-.678-2.6-1.469-3.729-2.034A24.928,24.928,0,0,0,29.154-86.219ZM38.646-.791C44.409-2.034,48.477-4.746,51.3-9.04c5.989-9.379,1.808-19.662-4.52-25.2-2.938-2.6-8.249-5.311-13.786-8.136a147,147,0,0,1-16.724-9.492C12.882-54.353,5.65-59.551,6.554-72.32a17.09,17.09,0,0,1,2.373-7.232,23.059,23.059,0,0,0-2.6,3.051C4.407-73.45,2.6-69.834,2.6-65.427c0,4.181.791,9.605,3.39,13.786a27.607,27.607,0,0,0,7.006,7.91c5.085,4.068,15.82,9.04,25.538,14.69,2.712,1.695,8.927,5.763,8.814,12.769a12.55,12.55,0,0,1-2.6,7.571c-2.26,2.825-7.571,5.424-15.481,5.311a23.233,23.233,0,0,1-17.4-7.458C7.91-15.255,7.345-21.018,6.78-29.154H3.39c0,14.916-.226,23.73-.452,28.137h3.39a16.01,16.01,0,0,1,.9-3.842c.452-.791.9-1.356,1.582-1.356.9,0,.791-.226,3.277,1.243a32.978,32.978,0,0,0,5.424,2.6A30.3,30.3,0,0,0,29.267,0,46.358,46.358,0,0,0,38.646-.791Z" transform="translate(356.592 337.38)" fill="#fbf8ef"/>
        <path id="Path_120" data-name="Path 120" d="M76.275-85.315H69.5L58.082-62.15,43.844-33l.113,29.719h-3.5l-.113-28.7L12.769-85.315H2.6L31.64-28.928v16.272A18.941,18.941,0,0,1,30.849-6.1a4.315,4.315,0,0,1-2.6,2.825,25.152,25.152,0,0,1-6.215.9V0H47.347l.226-33.109L66.9-72.546a35.03,35.03,0,0,1,4.859-7.684,9.963,9.963,0,0,1,4.52-3.051Zm-42.714,0H16.724L41.81-36.725,43.5-40.454,25.99-74.241a9.682,9.682,0,0,1-1.017-4.181c0-3.164,2.712-4.746,8.588-4.746Z" transform="translate(605.592 337.38)" fill="#fbf8ef"/>
      </g>
      <path id="Suit_Yourself_Text" data-name="Suit Yourself Text" d="M-40.37-22.66A22.492,22.492,0,0,1-47.52-5.995,23.682,23.682,0,0,1-64.68.99,23.78,23.78,0,0,1-81.84-5.94a22.438,22.438,0,0,1-7.15-16.72,22.479,22.479,0,0,1,4.345-13.42A24.214,24.214,0,0,1-73.37-44.77l.44.99a22.943,22.943,0,0,0-10.945,8.195A21.33,21.33,0,0,0-88.11-22.66a21.221,21.221,0,0,0,7.1,15.95A23.079,23.079,0,0,0-64.68,0q7.92,0,13.64-6.655A23.731,23.731,0,0,0-45.32-22.66q0-9.13-5.115-15.125A19.436,19.436,0,0,0-63.58-44.66a14.568,14.568,0,0,1-8.91-3.96,10.348,10.348,0,0,1-3.08-8.14,11.538,11.538,0,0,1,3.3-7.7,10.134,10.134,0,0,1,7.59-3.19,10.492,10.492,0,0,1,7.7,3.19,10.492,10.492,0,0,1,3.19,7.7,10.424,10.424,0,0,1-1.32,5.06l-.55-.22a9.661,9.661,0,0,0,1.21-4.73,9.929,9.929,0,0,0-2.97-7.205,9.659,9.659,0,0,0-7.15-3.025,5.79,5.79,0,0,0-4.675,2.42,10.322,10.322,0,0,0-1.925,6.6q0,8.14,8.03,8.91a23.718,23.718,0,0,1,16.28,8.69A26.539,26.539,0,0,1-40.37-22.66ZM7.81-9.68A10.766,10.766,0,0,1,4.565-1.87,10.621,10.621,0,0,1-3.3,1.43a10.676,10.676,0,0,1-7.81-3.3,10.676,10.676,0,0,1-3.3-7.81v-57.2h4.73v57.2A12.056,12.056,0,0,0-7.81-2.75,5.4,5.4,0,0,0-3.3,0,10.293,10.293,0,0,0,3.96-2.75,9.042,9.042,0,0,0,6.93-9.68v-57.2h.88ZM39.16,0H34.43V-66.99h4.73Zm50.6-66H80.19V0H75.46V-66H65.89v-.99H89.76ZM-197.45,19.12l-8.8,43.01V86h-4.73V67.19l-9.79-48.07h4.84l8.8,42.79,8.8-42.79Zm96.03,33a34.618,34.618,0,0,1-9.955,24.805A32.191,32.191,0,0,1-135.52,87.32a34.531,34.531,0,0,1-24.75-9.9,32.1,32.1,0,0,1-10.34-24.09,34.618,34.618,0,0,1,9.955-24.805A32.191,32.191,0,0,1-136.51,18.13a34.531,34.531,0,0,1,24.75,9.9A32.1,32.1,0,0,1-101.42,52.12Zm-4.51,0a33.465,33.465,0,0,0-9.02-23.595q-9.02-9.735-21.45-9.515-12.32.22-20.955,10.285A35.7,35.7,0,0,0-165.99,53.33a32.937,32.937,0,0,0,9.02,23.375q9.02,9.625,21.45,9.625,12.32,0,20.955-10.065A35.847,35.847,0,0,0-105.93,52.12Zm53.02,24.2a10.766,10.766,0,0,1-3.245,7.81,10.621,10.621,0,0,1-7.865,3.3,10.676,10.676,0,0,1-7.81-3.3,10.676,10.676,0,0,1-3.3-7.81V19.12h4.73v57.2a12.056,12.056,0,0,0,1.87,6.93A5.4,5.4,0,0,0-64.02,86a10.293,10.293,0,0,0,7.26-2.75,9.042,9.042,0,0,0,2.97-6.93V19.12h.88ZM41.25,96.78q0,9.68-10.01,9.68-17.16,0-26.29-18.59L-.11,72.91q-4.4-9.9-12.87-9.9h-7.81V86h-4.73V19.01h12.54a27.09,27.09,0,0,1,18.2,6.435Q12.76,31.88,12.76,40.9A20.014,20.014,0,0,1,7.7,53.99,24.086,24.086,0,0,1-6.16,62.46q5.39,2.2,9.68,10.56Q6.27,79.4,9.13,85.78a40.313,40.313,0,0,0,11,14.08q6.05,4.84,12.21,4.84a8.19,8.19,0,0,0,5.28-1.76,7.576,7.576,0,0,0,2.64-6.16,6.169,6.169,0,0,0-2.86-5.225,10.919,10.919,0,0,0-6.49-2.035v-.99a11.788,11.788,0,0,1,7.1,2.365A7.058,7.058,0,0,1,41.25,96.78ZM7.92,40.9A19.84,19.84,0,0,0,1.815,26.27,20.242,20.242,0,0,0-12.98,20.22h-7.81V61.8h7.81a20.149,20.149,0,0,0,14.795-6.1A20.149,20.149,0,0,0,7.92,40.9ZM87.78,63.34A22.492,22.492,0,0,1,80.63,80,23.682,23.682,0,0,1,63.47,86.99a23.78,23.78,0,0,1-17.16-6.93,23.027,23.027,0,0,1-2.805-30.14A24.214,24.214,0,0,1,54.78,41.23l.44.99a22.943,22.943,0,0,0-10.945,8.195,21.631,21.631,0,0,0,2.86,28.875A23.079,23.079,0,0,0,63.47,86q7.92,0,13.64-6.655A23.731,23.731,0,0,0,82.83,63.34q0-9.13-5.115-15.125A19.436,19.436,0,0,0,64.57,41.34a14.568,14.568,0,0,1-8.91-3.96,10.348,10.348,0,0,1-3.08-8.14,11.538,11.538,0,0,1,3.3-7.7,10.134,10.134,0,0,1,7.59-3.19A10.891,10.891,0,0,1,74.36,29.24a10.424,10.424,0,0,1-1.32,5.06l-.55-.22a9.661,9.661,0,0,0,1.21-4.73,9.929,9.929,0,0,0-2.97-7.205,9.659,9.659,0,0,0-7.15-3.025,5.79,5.79,0,0,0-4.675,2.42,10.322,10.322,0,0,0-1.925,6.6q0,8.14,8.03,8.91a23.718,23.718,0,0,1,16.28,8.69A26.539,26.539,0,0,1,87.78,63.34ZM132.44,86H113.52V19.01h16.83V20h-12.1V42h14.19v.99H118.25V85.01h14.19Zm44.33,0H157.85V19.01h4.73v66h14.19Zm44.22-42.9H206.91V86h-4.73V19.12H218.9v.99H206.91v22h14.08Z" transform="translate(960 95)" fill="#231f20"/>
    </g>
    <path id="Path_761" data-name="Path 761" d="M-315.7-75h-6.8L-353.3,0h12l7.4-19.6h29.5L-296.9,0h12Zm-14.7,46.2,11.3-29.6,11.2,29.6Zm98.7-13.3A19.737,19.737,0,0,0-226-56c0-10.4-8.1-19-18.2-19h-29.7V0h29.7c12.3,0,22.3-10.3,22.3-23A23.156,23.156,0,0,0-231.7-42.1Zm-31.1-23.7h18.6c3.9,0,7.1,4.5,7.1,9.8,0,5.2-3,9.7-6.8,10h-18.9Zm18.6,56.6h-18.6V-36.8h19.1c5.9.3,10.7,6.4,10.7,13.8C-233-15.4-238-9.2-244.2-9.2Zm71.4-58.5A25.3,25.3,0,0,1-153.9-59a31.869,31.869,0,0,1,8.1,21.5,32.123,32.123,0,0,1-8.1,21.6,25.3,25.3,0,0,1-18.9,8.7,25.464,25.464,0,0,1-18.9-8.7,32.123,32.123,0,0,1-8.1-21.6A31.869,31.869,0,0,1-191.7-59,25.464,25.464,0,0,1-172.8-67.7Zm0-9.2c-21,0-38.1,17.6-38.1,39.4S-193.8,2-172.8,2s38.1-17.7,38.1-39.5S-151.8-76.9-172.8-76.9ZM-74.6-75v45.6c0,4.5-.8,22.2-18.9,22.2s-19.1-17.7-19.1-22.2V-75h-11.1v45.6c0,12.1,5,31.4,30.2,31.4s30-19.3,30-31.4V-75ZM0-75H-57.5v9.2h23.2V0h11.1V-65.8H0ZM-84.8,25V70.6c0,4.5-.8,22.2-18.9,22.2s-19.1-17.7-19.1-22.2V25h-11.1V70.6c0,12.1,5,31.4,30.2,31.4s30-19.3,30-31.4V25ZM-8.2,73.5c-3.8-10.1-14.5-13.3-24-16.2-8-2.4-13.7-4.7-15.7-10.2a11.174,11.174,0,0,1,.7-8.4c3.4-6.4,12.2-6.4,12.3-6.4A25.464,25.464,0,0,1-16,41a14.622,14.622,0,0,1,1.6,1.9l7.3-7.3A37.369,37.369,0,0,0-34.9,23.1c-1.7,0-16.5.3-22.3,11.3a19.4,19.4,0,0,0-1.2,15.8c3.5,9.8,14.2,13.1,23.5,15.9,8.2,2.5,14,4.8,16.1,10.6a11.462,11.462,0,0,1-.2,7.8c-2.1,5-7.2,8.2-15.9,8.3a25.3,25.3,0,0,1-18.9-8.7,8.961,8.961,0,0,1-1.5-1.9l-7.4,7.4A37.806,37.806,0,0,0-34.9,102c12.6-.1,22.7-5.4,26.3-13.9A20.359,20.359,0,0,0-8.2,73.5Z" transform="translate(632 721)" fill="#faf7ef"/>
    <path id="Path_760" data-name="Path 760" d="M151.56,19.4c-1.52-4.04-5.8-5.32-9.6-6.48-3.2-.96-5.48-1.88-6.28-4.08a4.469,4.469,0,0,1,.28-3.36c1.36-2.56,4.88-2.56,4.92-2.56a10.186,10.186,0,0,1,7.56,3.48,5.849,5.849,0,0,1,.64.76L152,4.24a14.947,14.947,0,0,0-11.12-5c-.68,0-6.6.12-8.92,4.52a7.762,7.762,0,0,0-.48,6.32c1.4,3.92,5.68,5.24,9.4,6.36,3.28,1,5.6,1.92,6.44,4.24a4.585,4.585,0,0,1-.08,3.12c-.84,2-2.88,3.28-6.36,3.32a10.122,10.122,0,0,1-7.56-3.48,3.584,3.584,0,0,1-.6-.76l-2.96,2.96a15.123,15.123,0,0,0,11.12,4.96c5.04-.04,9.08-2.16,10.52-5.56A8.144,8.144,0,0,0,151.56,19.4Zm6.08,2.28c0,6.52,2.6,9.56,8.76,9.08,2.36-.2,4.88-1.68,5.36-3.52V30h4.16V10.24h-4.16V21.68c0,4-1.96,5.76-5.36,5.76s-4.64-1.76-4.64-5.76V10.24h-4.12Zm28.6-11.44h-4.12V30h4.12Zm.2-7.24a2.26,2.26,0,1,0-2.28,2.28A2.245,2.245,0,0,0,186.44,3Zm13.2,24.12c-1.96-.88-2.28-2.08-2.28-5.36V13.6h5.16V10.24h-5.16V0h-4.12V10.24h-2.4V13.6h2.4v8.16c0,3.12,0,4.2,1.2,6.2a6.241,6.241,0,0,0,5.72,2.84,4.408,4.408,0,0,0,2.36-.6V27A3.416,3.416,0,0,1,199.64,27.12ZM240.28,0l-9.2,14L221.92,0h-5.4l12.36,18.08V30h4.44V18.08L245.68,0ZM252.4,12.88c3.4,0,6.16,3.24,6.16,7.28,0,4-2.76,7.28-6.16,7.28s-6.16-3.28-6.16-7.28C246.24,16.12,249,12.88,252.4,12.88Zm0-3.4a10.5,10.5,0,0,0-10.28,10.68,10.286,10.286,0,1,0,20.56,0A10.5,10.5,0,0,0,252.4,9.48Zm15.08,12.2c0,6.52,2.6,9.56,8.76,9.08,2.36-.2,4.88-1.68,5.36-3.52V30h4.16V10.24H281.6V21.68c0,4-1.96,5.76-5.36,5.76s-4.64-1.76-4.64-5.76V10.24h-4.12Zm35.76-11.6a4.679,4.679,0,0,0-2.4-.6c-2.36,0-4.88,1.72-5.36,3.56v-2.8h-4.12V30h4.12V20.52c0-4,2-7.64,5.4-7.64a5.946,5.946,0,0,1,2.36.4Zm16.92,12.64c-1.04-2.8-3.92-3.76-6.48-4.52-1.92-.6-3.72-1.08-4.12-2.2a2.076,2.076,0,0,1,.16-1.64c.68-1.32,3.04-1.36,3.08-1.36a5.533,5.533,0,0,1,4.52,2.08L320,12.4a10.027,10.027,0,0,0-7.2-2.92c-.48,0-4.56.12-6.2,3.2a5.762,5.762,0,0,0-.36,4.52c1.04,2.8,3.88,3.76,6.4,4.52,1.96.56,3.76,1.04,4.24,2.24a2.843,2.843,0,0,1-.04,1.56c-.44,1.04-2.08,1.76-4.04,1.76a5.53,5.53,0,0,1-4.48-2.16l-2.68,2.68a10.242,10.242,0,0,0,7.16,3h.04c3.44,0,6.2-1.52,7.24-3.88A6.171,6.171,0,0,0,320.16,22.72Zm23.76-2.56a10.37,10.37,0,0,0-.16-1.92A10.168,10.168,0,0,0,334,9.48c-5.48,0-9.92,4.8-9.92,10.68A10.468,10.468,0,0,0,334.4,30.8a10.139,10.139,0,0,0,7.52-3.4l-2.84-2.56a5.735,5.735,0,0,1-4.68,2.6c-3,0-5.48-2.52-6.04-5.8h15.56Zm-15.48-1.92c.64-3.08,2.88-5.36,5.56-5.36s4.92,2.28,5.6,5.36Zm24.04-19h-4.16V30h4.16ZM369.76,3V-.2a4.408,4.408,0,0,0-2.36-.6c-2.36,0-4.44.72-5.72,2.84-1.2,1.96-1.2,3.08-1.2,6.2v2h-2.4V13.6h2.4V30h4.12V13.6h5.16V10.24H364.6v-2c0-3.28.32-4.48,2.28-5.36A3.416,3.416,0,0,1,369.76,3Zm20.8,13.84C390.56,5.4,396.72.68,397.68,0l-1.84-3.24c-5.84,4.08-9.68,10.4-9.68,20.08,0,9.72,3.84,16,9.68,20.12l1.84-3.28C396.72,33,390.56,28.32,390.56,16.84Zm30.92,2.56c-1.52-4.04-5.8-5.32-9.6-6.48-3.2-.96-5.48-1.88-6.28-4.08a4.469,4.469,0,0,1,.28-3.36c1.36-2.56,4.88-2.56,4.92-2.56a10.186,10.186,0,0,1,7.56,3.48,5.848,5.848,0,0,1,.64.76l2.92-2.92a14.947,14.947,0,0,0-11.12-5c-.68,0-6.6.12-8.92,4.52a7.761,7.761,0,0,0-.48,6.32c1.4,3.92,5.68,5.24,9.4,6.36,3.28,1,5.6,1.92,6.44,4.24a4.585,4.585,0,0,1-.08,3.12c-.84,2-2.88,3.28-6.36,3.32a10.122,10.122,0,0,1-7.56-3.48,3.585,3.585,0,0,1-.6-.76l-2.96,2.96A15.123,15.123,0,0,0,410.8,30.8c5.04-.04,9.08-2.16,10.52-5.56A8.143,8.143,0,0,0,421.48,19.4ZM448.12,0l-9.2,14L429.76,0h-5.4l12.36,18.08V30h4.44V18.08L453.52,0Zm11.32,16.84c0,11.48-6.16,16.16-7.12,16.84l1.84,3.28c5.84-4.12,9.68-10.4,9.68-20.12,0-9.68-3.84-16-9.68-20.08L452.32,0C453.28.68,459.44,5.4,459.44,16.84Zm27.52-6.6h-4.12V30h4.12Zm.2-7.24a2.26,2.26,0,1,0-2.28,2.28A2.245,2.245,0,0,0,487.16,3Zm19.32,19.72c-1.04-2.8-3.92-3.76-6.48-4.52-1.92-.6-3.72-1.08-4.12-2.2a2.076,2.076,0,0,1,.16-1.64c.68-1.32,3.04-1.36,3.08-1.36a5.533,5.533,0,0,1,4.52,2.08l2.68-2.68a10.027,10.027,0,0,0-7.2-2.92c-.48,0-4.56.12-6.2,3.2a5.762,5.762,0,0,0-.36,4.52c1.04,2.8,3.88,3.76,6.4,4.52,1.96.56,3.76,1.04,4.24,2.24a2.843,2.843,0,0,1-.04,1.56c-.44,1.04-2.08,1.76-4.04,1.76a5.53,5.53,0,0,1-4.48-2.16l-2.68,2.68a10.242,10.242,0,0,0,7.16,3h.04c3.44,0,6.2-1.52,7.24-3.88A6.171,6.171,0,0,0,506.48,22.72ZM532.04,9.44a10.16,10.16,0,0,0-7.56,3.4l2.84,2.56a5.868,5.868,0,0,1,4.72-2.56c3.36,0,3.84,1.72,3.84,2.96v1.72h-5.6c-3.8,0-7.48,2.16-7.48,7.08,0,3.52,2.36,6.16,7.48,6.16a6.424,6.424,0,0,0,5.6-2.52V30H540V15.8C540,12.88,537.72,9.44,532.04,9.44Zm3.84,14.4c0,1.36-1.24,3.56-5.04,3.56-2.12,0-3.92-.8-3.92-2.64a3.684,3.684,0,0,1,3.92-3.88h5.04ZM578.6,19.4c-1.52-4.04-5.8-5.32-9.6-6.48-3.2-.96-5.48-1.88-6.28-4.08A4.469,4.469,0,0,1,563,5.48c1.36-2.56,4.88-2.56,4.92-2.56a10.186,10.186,0,0,1,7.56,3.48,5.851,5.851,0,0,1,.64.76l2.92-2.92a14.947,14.947,0,0,0-11.12-5c-.68,0-6.6.12-8.92,4.52a7.762,7.762,0,0,0-.48,6.32c1.4,3.92,5.68,5.24,9.4,6.36,3.28,1,5.6,1.92,6.44,4.24a4.585,4.585,0,0,1-.08,3.12c-.84,2-2.88,3.28-6.36,3.32a10.122,10.122,0,0,1-7.56-3.48,3.584,3.584,0,0,1-.6-.76l-2.96,2.96a15.123,15.123,0,0,0,11.12,4.96c5.04-.04,9.08-2.16,10.52-5.56A8.144,8.144,0,0,0,578.6,19.4Zm29.48-9.16-4.68,13.8-4.12-12.16-.56-1.64h-2.96l-.52,1.64-4.12,12.16-4.68-13.8h-4.16L589.84,30h2.52l4.88-12.8L602.16,30h2.52l7.52-19.76Zm25.56,9.92a10.37,10.37,0,0,0-.16-1.92,10.168,10.168,0,0,0-9.76-8.76c-5.48,0-9.92,4.8-9.92,10.68A10.468,10.468,0,0,0,624.12,30.8a10.139,10.139,0,0,0,7.52-3.4l-2.84-2.56a5.735,5.735,0,0,1-4.68,2.6c-3,0-5.48-2.52-6.04-5.8h15.56Zm-15.48-1.92c.64-3.08,2.88-5.36,5.56-5.36s4.92,2.28,5.6,5.36Zm18.68,1.92A10.461,10.461,0,0,0,647.12,30.8a8.764,8.764,0,0,0,5.28-1.88V30h4.16V0H652.4V11.4a8.752,8.752,0,0,0-5.28-1.92A10.5,10.5,0,0,0,636.84,20.16Zm4.16,0c0-4.04,2.76-7.28,6.12-7.28a5.978,5.978,0,0,1,5.28,3.52,8.394,8.394,0,0,1,.88,3.76,8.1,8.1,0,0,1-.88,3.72,6.019,6.019,0,0,1-5.28,3.56C643.76,27.44,641,24.16,641,20.16Zm25.88-9.92h-4.12V30h4.12Zm.2-7.24a2.26,2.26,0,1,0-2.28,2.28A2.245,2.245,0,0,0,667.08,3ZM686.4,22.72c-1.04-2.8-3.92-3.76-6.48-4.52-1.92-.6-3.72-1.08-4.12-2.2a2.076,2.076,0,0,1,.16-1.64c.68-1.32,3.04-1.36,3.08-1.36a5.533,5.533,0,0,1,4.52,2.08l2.68-2.68a10.027,10.027,0,0,0-7.2-2.92c-.48,0-4.56.12-6.2,3.2a5.762,5.762,0,0,0-.36,4.52c1.04,2.8,3.88,3.76,6.4,4.52,1.96.56,3.76,1.04,4.24,2.24a2.842,2.842,0,0,1-.04,1.56c-.44,1.04-2.08,1.76-4.04,1.76a5.53,5.53,0,0,1-4.48-2.16l-2.68,2.68a10.242,10.242,0,0,0,7.16,3h.04c3.44,0,6.2-1.52,7.24-3.88A6.17,6.17,0,0,0,686.4,22.72Zm23.8-4.16c0-6.48-2.6-9.56-8.76-9.04-2.36.16-4.88,1.64-5.4,3.48V0h-4.12V30h4.12V18.56c0-4,2-5.76,5.4-5.76s4.64,1.76,4.64,5.76V30h4.12ZM213.96,80V68.56c0-6.48-2.6-9.52-8.76-9.04-3.6.24-5.8,2.76-5.88,4.92-1-3.64-3.6-5.32-8.28-4.92-2.36.16-4.88,1.64-5.4,3.48V60.24h-4.12V80h4.12V68.56c0-4,2-5.76,5.4-5.76s4.6,1.76,4.6,5.76V80h4.16V68.56c0-4,2-5.76,5.4-5.76,3.36,0,4.6,1.76,4.6,5.76V80Zm5.6-8.32c0,6.52,2.6,9.56,8.76,9.08,2.36-.2,4.88-1.68,5.36-3.52V80h4.16V60.24h-4.16V71.68c0,4-1.96,5.76-5.36,5.76s-4.64-1.76-4.64-5.76V60.24h-4.12ZM248,49.24h-4.16V80H248Zm13.6,27.88c-1.96-.88-2.28-2.08-2.28-5.36V63.6h5.16V60.24h-5.16V50H255.2V60.24h-2.4V63.6h2.4v8.16c0,3.12,0,4.2,1.2,6.2a6.241,6.241,0,0,0,5.72,2.84,4.408,4.408,0,0,0,2.36-.6V77A3.416,3.416,0,0,1,261.6,77.12ZM274,60.24h-4.12V80H274Zm.2-7.24a2.26,2.26,0,1,0-2.28,2.28A2.245,2.245,0,0,0,274.2,53Zm24.28,15.6c0-6.48-2.6-9.56-8.76-9.08-2.36.2-4.88,1.68-5.4,3.52v-2.8H280.2V80h4.12V68.6c0-4,2-5.76,5.4-5.76s4.64,1.76,4.64,5.76V80h4.12Zm14.04-9.16a10.16,10.16,0,0,0-7.56,3.4l2.84,2.56a5.868,5.868,0,0,1,4.72-2.56c3.36,0,3.84,1.72,3.84,2.96v1.72h-5.6c-3.8,0-7.48,2.16-7.48,7.08,0,3.52,2.36,6.16,7.48,6.16a6.424,6.424,0,0,0,5.6-2.52V80h4.12V65.8C320.48,62.88,318.2,59.44,312.52,59.44Zm3.84,14.4c0,1.36-1.24,3.56-5.04,3.56-2.12,0-3.92-.8-3.92-2.64a3.684,3.684,0,0,1,3.92-3.88h5.04Zm16.92,3.28c-1.96-.88-2.28-2.08-2.28-5.36V63.6h5.16V60.24H331V50h-4.12V60.24h-2.4V63.6h2.4v8.16c0,3.12,0,4.2,1.2,6.2a6.241,6.241,0,0,0,5.72,2.84,4.408,4.408,0,0,0,2.36-.6V77A3.416,3.416,0,0,1,333.28,77.12Zm12.4-16.88h-4.12V80h4.12Zm.2-7.24a2.26,2.26,0,1,0-2.28,2.28A2.245,2.245,0,0,0,345.88,53Zm15.08,9.88c3.4,0,6.16,3.24,6.16,7.28,0,4-2.76,7.28-6.16,7.28s-6.16-3.28-6.16-7.28C354.8,66.12,357.56,62.88,360.96,62.88Zm0-3.4a10.667,10.667,0,1,0,10.28,10.68A10.5,10.5,0,0,0,360.96,59.48Zm33.36,9.12c0-6.48-2.6-9.56-8.76-9.08-2.36.2-4.88,1.68-5.4,3.52v-2.8h-4.12V80h4.12V68.6c0-4,2-5.76,5.4-5.76s4.64,1.76,4.64,5.76V80h4.12Zm14.04-9.16a10.16,10.16,0,0,0-7.56,3.4l2.84,2.56a5.868,5.868,0,0,1,4.72-2.56c3.36,0,3.84,1.72,3.84,2.96v1.72h-5.6c-3.8,0-7.48,2.16-7.48,7.08,0,3.52,2.36,6.16,7.48,6.16a6.424,6.424,0,0,0,5.6-2.52V80h4.12V65.8C416.32,62.88,414.04,59.44,408.36,59.44Zm3.84,14.4c0,1.36-1.24,3.56-5.04,3.56-2.12,0-3.92-.8-3.92-2.64a3.684,3.684,0,0,1,3.92-3.88h5.04Zm13.88-24.6h-4.16V80h4.16Zm31.8,25.6a5.861,5.861,0,0,1-4.72,2.6c-3.4,0-6.16-3.28-6.16-7.28,0-4.04,2.76-7.28,6.16-7.28a5.926,5.926,0,0,1,4.72,2.56l2.84-2.56a10.16,10.16,0,0,0-7.56-3.4,10.667,10.667,0,0,0,0,21.32,10.16,10.16,0,0,0,7.56-3.4Zm11.4-25.6h-4.16V80h4.16Zm15.48,13.64c3.4,0,6.16,3.24,6.16,7.28,0,4-2.76,7.28-6.16,7.28s-6.16-3.28-6.16-7.28C478.6,66.12,481.36,62.88,484.76,62.88Zm0-3.4a10.667,10.667,0,1,0,10.28,10.68A10.5,10.5,0,0,0,484.76,59.48Zm22.28,17.64c-1.96-.88-2.28-2.08-2.28-5.36V63.6h5.16V60.24h-5.16V50h-4.12V60.24h-2.4V63.6h2.4v8.16c0,3.12,0,4.2,1.2,6.2a6.241,6.241,0,0,0,5.72,2.84,4.408,4.408,0,0,0,2.36-.6V77A3.416,3.416,0,0,1,507.04,77.12Zm26.36-8.56c0-6.48-2.6-9.56-8.76-9.04-2.36.16-4.88,1.64-5.4,3.48V50h-4.12V80h4.12V68.56c0-4,2-5.76,5.4-5.76s4.64,1.76,4.64,5.76V80h4.12Zm9.92-8.32H539.2V80h4.12Zm.2-7.24a2.26,2.26,0,1,0-2.28,2.28A2.245,2.245,0,0,0,543.52,53ZM567.8,68.6c0-6.48-2.6-9.56-8.76-9.08-2.36.2-4.88,1.68-5.4,3.52v-2.8h-4.12V80h4.12V68.6c0-4,2-5.76,5.4-5.76s4.64,1.76,4.64,5.76V80h4.12Zm20.76-8.36v1.12a8.646,8.646,0,0,0-5.28-1.92,10.667,10.667,0,0,0,0,21.32,8.814,8.814,0,0,0,5.28-1.88v1.44c0,4-2.76,7.28-6.16,7.28a5.735,5.735,0,0,1-4.68-2.6l-2.84,2.56a10.139,10.139,0,0,0,7.52,3.4,10.461,10.461,0,0,0,10.28-10.64V60.24ZM583.28,77.4c-3.4,0-6.16-3.28-6.16-7.28,0-4.04,2.76-7.28,6.16-7.28a6.024,6.024,0,0,1,5.28,3.52,8.394,8.394,0,0,1,.88,3.76,8.1,8.1,0,0,1-.88,3.72A6.065,6.065,0,0,1,583.28,77.4Zm30.44-9.44H599.48v3.36h14.24Zm17.88-7.88a4.679,4.679,0,0,0-2.4-.6c-2.36,0-4.88,1.72-5.36,3.56v-2.8h-4.12V80h4.12V70.52c0-4,2-7.64,5.4-7.64a5.946,5.946,0,0,1,2.36.4Zm21.84,10.08a10.37,10.37,0,0,0-.16-1.92,10.168,10.168,0,0,0-9.76-8.76c-5.48,0-9.92,4.8-9.92,10.68A10.468,10.468,0,0,0,643.92,80.8a10.139,10.139,0,0,0,7.52-3.4l-2.84-2.56a5.735,5.735,0,0,1-4.68,2.6c-3,0-5.48-2.52-6.04-5.8h15.56Zm-15.48-1.92c.64-3.08,2.88-5.36,5.56-5.36s4.92,2.28,5.6,5.36Zm27.08,8.88c-1.96-.88-2.28-2.08-2.28-5.36V63.6h5.16V60.24h-5.16V50h-4.12V60.24h-2.4V63.6h2.4v8.16c0,3.12,0,4.2,1.2,6.2a6.241,6.241,0,0,0,5.72,2.84,4.408,4.408,0,0,0,2.36-.6V77A3.416,3.416,0,0,1,665.04,77.12Zm16.12-17.68a10.16,10.16,0,0,0-7.56,3.4l2.84,2.56a5.868,5.868,0,0,1,4.72-2.56c3.36,0,3.84,1.72,3.84,2.96v1.72h-5.6c-3.8,0-7.48,2.16-7.48,7.08,0,3.52,2.36,6.16,7.48,6.16a6.424,6.424,0,0,0,5.6-2.52V80h4.12V65.8C689.12,62.88,686.84,59.44,681.16,59.44ZM685,73.84c0,1.36-1.24,3.56-5.04,3.56-2.12,0-3.92-.8-3.92-2.64a3.684,3.684,0,0,1,3.92-3.88H685Zm14.04-13.6h-4.12V80h4.12Zm.2-7.24a2.26,2.26,0,1,0-2.28,2.28A2.245,2.245,0,0,0,699.24,53Zm10.16-3.76h-4.16V80h4.16ZM53.68,124.84a5.861,5.861,0,0,1-4.72,2.6c-3.4,0-6.16-3.28-6.16-7.28,0-4.04,2.76-7.28,6.16-7.28a5.926,5.926,0,0,1,4.72,2.56l2.84-2.56a10.16,10.16,0,0,0-7.56-3.4,10.667,10.667,0,0,0,0,21.32,10.16,10.16,0,0,0,7.56-3.4ZM70,112.88c3.4,0,6.16,3.24,6.16,7.28,0,4-2.76,7.28-6.16,7.28s-6.16-3.28-6.16-7.28C63.84,116.12,66.6,112.88,70,112.88Zm0-3.4a10.667,10.667,0,1,0,10.28,10.68A10.5,10.5,0,0,0,70,109.48ZM117.52,130V118.56c0-6.48-2.6-9.52-8.76-9.04-3.6.24-5.8,2.76-5.88,4.92-1-3.64-3.6-5.32-8.28-4.92-2.36.16-4.88,1.64-5.4,3.48v-2.76H85.08V130H89.2V118.56c0-4,2-5.76,5.4-5.76s4.6,1.76,4.6,5.76V130h4.16V118.56c0-4,2-5.76,5.4-5.76,3.36,0,4.6,1.76,4.6,5.76V130Zm24.52-9.84a10.529,10.529,0,0,0-10.32-10.68,8.646,8.646,0,0,0-5.28,1.92v-1.16h-4.12V140.2h4.12V128.92a8.814,8.814,0,0,0,5.28,1.88A10.494,10.494,0,0,0,142.04,120.16Zm-4.16,0c0,4-2.76,7.28-6.16,7.28a6.065,6.065,0,0,1-5.28-3.56,8.657,8.657,0,0,1,0-7.44,6,6,0,0,1,5.28-3.56C135.12,112.88,137.88,116.12,137.88,120.16Zm17-10.72a10.16,10.16,0,0,0-7.56,3.4l2.84,2.56a5.868,5.868,0,0,1,4.72-2.56c3.36,0,3.84,1.72,3.84,2.96v1.72h-5.6c-3.8,0-7.48,2.16-7.48,7.08,0,3.52,2.36,6.16,7.48,6.16a6.424,6.424,0,0,0,5.6-2.52V130h4.12V115.8C162.84,112.88,160.56,109.44,154.88,109.44Zm3.84,14.4c0,1.36-1.24,3.56-5.04,3.56-2.12,0-3.92-.8-3.92-2.64a3.684,3.684,0,0,1,3.92-3.88h5.04Zm28-5.24c0-6.48-2.6-9.56-8.76-9.08-2.36.2-4.88,1.68-5.4,3.52v-2.8h-4.12V130h4.12V118.6c0-4,2-5.76,5.4-5.76s4.64,1.76,4.64,5.76V130h4.12Zm22.76-8.36h-4.16l-5.4,12.96-5.44-12.96h-4.16l7.48,17.68c-1.32,3.16-3.24,10-6.32,9.12a4.588,4.588,0,0,1-1.52-.8l-1.24,3.6a13.4,13.4,0,0,0,1.52.72,5.919,5.919,0,0,0,2.2.48c3.72,0,5.92-4.4,8.72-11.04C204.48,122.08,209.48,110.24,209.48,110.24ZM238.88,130h5.32l-9.8-12.08,9.2-7.68h-6.4l-7.96,6.92V100h-4.16v30h4.16v-7.72l2.16-1.84Zm26.8-11.4c0-6.48-2.6-9.56-8.76-9.08-2.36.2-4.88,1.68-5.4,3.52v-2.8H247.4V130h4.12V118.6c0-4,2-5.76,5.4-5.76s4.64,1.76,4.64,5.76V130h4.12Zm15.08-5.72c3.4,0,6.16,3.24,6.16,7.28,0,4-2.76,7.28-6.16,7.28s-6.16-3.28-6.16-7.28C274.6,116.12,277.36,112.88,280.76,112.88Zm0-3.4a10.667,10.667,0,1,0,10.28,10.68A10.5,10.5,0,0,0,280.76,109.48Zm38.48.76-4.68,13.8-4.12-12.16-.56-1.64h-2.96l-.52,1.64-4.12,12.16-4.68-13.8h-4.16L301,130h2.52l4.88-12.8,4.92,12.8h2.52l7.52-19.76Zm25.6,8.36c0-6.48-2.6-9.56-8.76-9.08-2.36.2-4.88,1.68-5.4,3.52v-2.8h-4.12V130h4.12V118.6c0-4,2-5.76,5.4-5.76s4.64,1.76,4.64,5.76V130h4.12ZM373.72,103V99.8a4.408,4.408,0,0,0-2.36-.6c-2.36,0-4.44.72-5.72,2.84-1.2,1.96-1.2,3.08-1.2,6.2v2h-2.4v3.36h2.4V130h4.12V113.6h5.16v-3.36h-5.16v-2c0-3.28.32-4.48,2.28-5.36A3.416,3.416,0,0,1,373.72,103Zm13.08,9.88c3.4,0,6.16,3.24,6.16,7.28,0,4-2.76,7.28-6.16,7.28s-6.16-3.28-6.16-7.28C380.64,116.12,383.4,112.88,386.8,112.88Zm0-3.4a10.667,10.667,0,1,0,10.28,10.68A10.5,10.5,0,0,0,386.8,109.48Zm26.56.6a4.679,4.679,0,0,0-2.4-.6c-2.36,0-4.88,1.72-5.36,3.56v-2.8h-4.12V130h4.12v-9.48c0-4,2-7.64,5.4-7.64a5.946,5.946,0,0,1,2.36.4Zm19.92.16h-4.12V130h4.12Zm.2-7.24a2.26,2.26,0,1,0-2.28,2.28A2.245,2.245,0,0,0,433.48,103Zm13.2,24.12c-1.96-.88-2.28-2.08-2.28-5.36V113.6h5.16v-3.36H444.4V100h-4.12v10.24h-2.4v3.36h2.4v8.16c0,3.12,0,4.2,1.2,6.2a6.241,6.241,0,0,0,5.72,2.84,4.408,4.408,0,0,0,2.36-.6V127A3.416,3.416,0,0,1,446.68,127.12Zm21.4-4.4c-1.04-2.8-3.92-3.76-6.48-4.52-1.92-.6-3.72-1.08-4.12-2.2a2.076,2.076,0,0,1,.16-1.64c.68-1.32,3.04-1.36,3.08-1.36a5.533,5.533,0,0,1,4.52,2.08l2.68-2.68a10.027,10.027,0,0,0-7.2-2.92c-.48,0-4.56.12-6.2,3.2a5.762,5.762,0,0,0-.36,4.52c1.04,2.8,3.88,3.76,6.4,4.52,1.96.56,3.76,1.04,4.24,2.24a2.843,2.843,0,0,1-.04,1.56c-.44,1.04-2.08,1.76-4.04,1.76a5.53,5.53,0,0,1-4.48-2.16l-2.68,2.68a10.242,10.242,0,0,0,7.16,3h.04c3.44,0,6.2-1.52,7.24-3.88A6.171,6.171,0,0,0,468.08,122.72ZM496.48,103V99.8a4.408,4.408,0,0,0-2.36-.6c-2.36,0-4.44.72-5.72,2.84-1.2,1.96-1.2,3.08-1.2,6.2v2h-2.4v3.36h2.4V130h4.12V113.6h5.16v-3.36h-5.16v-2c0-3.28.32-4.48,2.28-5.36A3.416,3.416,0,0,1,496.48,103Zm12.04,6.44a10.16,10.16,0,0,0-7.56,3.4l2.84,2.56a5.868,5.868,0,0,1,4.72-2.56c3.36,0,3.84,1.72,3.84,2.96v1.72h-5.6c-3.8,0-7.48,2.16-7.48,7.08,0,3.52,2.36,6.16,7.48,6.16a6.424,6.424,0,0,0,5.6-2.52V130h4.12V115.8C516.48,112.88,514.2,109.44,508.52,109.44Zm3.84,14.4c0,1.36-1.24,3.56-5.04,3.56-2.12,0-3.92-.8-3.92-2.64a3.684,3.684,0,0,1,3.92-3.88h5.04Zm23.04-1.12c-1.04-2.8-3.92-3.76-6.48-4.52-1.92-.6-3.72-1.08-4.12-2.2a2.076,2.076,0,0,1,.16-1.64c.68-1.32,3.04-1.36,3.08-1.36a5.533,5.533,0,0,1,4.52,2.08l2.68-2.68a10.027,10.027,0,0,0-7.2-2.92c-.48,0-4.56.12-6.2,3.2a5.762,5.762,0,0,0-.36,4.52c1.04,2.8,3.88,3.76,6.4,4.52,1.96.56,3.76,1.04,4.24,2.24a2.842,2.842,0,0,1-.04,1.56c-.44,1.04-2.08,1.76-4.04,1.76a5.53,5.53,0,0,1-4.48-2.16l-2.68,2.68a10.242,10.242,0,0,0,7.16,3h.04c3.44,0,6.2-1.52,7.24-3.88A6.17,6.17,0,0,0,535.4,122.72Zm12.72,4.4c-1.96-.88-2.28-2.08-2.28-5.36V113.6H551v-3.36h-5.16V100h-4.12v10.24h-2.4v3.36h2.4v8.16c0,3.12,0,4.2,1.2,6.2a6.241,6.241,0,0,0,5.72,2.84,4.408,4.408,0,0,0,2.36-.6V127A3.416,3.416,0,0,1,548.12,127.12Zm23.12-9.16H557v3.36h14.24ZM588.52,103V99.8a4.408,4.408,0,0,0-2.36-.6c-2.36,0-4.44.72-5.72,2.84-1.2,1.96-1.2,3.08-1.2,6.2v2h-2.4v3.36h2.4V130h4.12V113.6h5.16v-3.36h-5.16v-2c0-3.28.32-4.48,2.28-5.36A3.416,3.416,0,0,1,588.52,103Zm12.04,6.44a10.16,10.16,0,0,0-7.56,3.4l2.84,2.56a5.868,5.868,0,0,1,4.72-2.56c3.36,0,3.84,1.72,3.84,2.96v1.72h-5.6c-3.8,0-7.48,2.16-7.48,7.08,0,3.52,2.36,6.16,7.48,6.16a6.424,6.424,0,0,0,5.6-2.52V130h4.12V115.8C608.52,112.88,606.24,109.44,600.56,109.44Zm3.84,14.4c0,1.36-1.24,3.56-5.04,3.56-2.12,0-3.92-.8-3.92-2.64a3.684,3.684,0,0,1,3.92-3.88h5.04Zm23.04-1.12c-1.04-2.8-3.92-3.76-6.48-4.52-1.92-.6-3.72-1.08-4.12-2.2a2.076,2.076,0,0,1,.16-1.64c.68-1.32,3.04-1.36,3.08-1.36a5.533,5.533,0,0,1,4.52,2.08l2.68-2.68a10.027,10.027,0,0,0-7.2-2.92c-.48,0-4.56.12-6.2,3.2a5.762,5.762,0,0,0-.36,4.52c1.04,2.8,3.88,3.76,6.4,4.52,1.96.56,3.76,1.04,4.24,2.24a2.842,2.842,0,0,1-.04,1.56c-.44,1.04-2.08,1.76-4.04,1.76a5.53,5.53,0,0,1-4.48-2.16l-2.68,2.68a10.242,10.242,0,0,0,7.16,3h.04c3.44,0,6.2-1.52,7.24-3.88A6.17,6.17,0,0,0,627.44,122.72Zm23.8-4.16c0-6.48-2.6-9.56-8.76-9.04-2.36.16-4.88,1.64-5.4,3.48V100h-4.12v30h4.12V118.56c0-4,2-5.76,5.4-5.76s4.64,1.76,4.64,5.76V130h4.12Zm9.92-8.32h-4.12V130h4.12Zm.2-7.24a2.26,2.26,0,1,0-2.28,2.28A2.245,2.245,0,0,0,661.36,103Zm15.08,9.88c3.4,0,6.16,3.24,6.16,7.28,0,4-2.76,7.28-6.16,7.28s-6.16-3.28-6.16-7.28C670.28,116.12,673.04,112.88,676.44,112.88Zm0-3.4a10.667,10.667,0,1,0,10.28,10.68A10.5,10.5,0,0,0,676.44,109.48Zm33.36,9.12c0-6.48-2.6-9.56-8.76-9.08-2.36.2-4.88,1.68-5.4,3.52v-2.8h-4.12V130h4.12V118.6c0-4,2-5.76,5.4-5.76s4.64,1.76,4.64,5.76V130h4.12ZM45,174.84a5.861,5.861,0,0,1-4.72,2.6c-3.4,0-6.16-3.28-6.16-7.28,0-4.04,2.76-7.28,6.16-7.28A5.926,5.926,0,0,1,45,165.44l2.84-2.56a10.16,10.16,0,0,0-7.56-3.4,10.667,10.667,0,0,0,0,21.32,10.16,10.16,0,0,0,7.56-3.4Zm11.4-25.6H52.24V180H56.4Zm15.48,13.64c3.4,0,6.16,3.24,6.16,7.28,0,4-2.76,7.28-6.16,7.28s-6.16-3.28-6.16-7.28C65.72,166.12,68.48,162.88,71.88,162.88Zm0-3.4a10.667,10.667,0,1,0,10.28,10.68A10.5,10.5,0,0,0,71.88,159.48Zm22.28,17.64c-1.96-.88-2.28-2.08-2.28-5.36V163.6h5.16v-3.36H91.88V150H87.76v10.24h-2.4v3.36h2.4v8.16c0,3.12,0,4.2,1.2,6.2a6.241,6.241,0,0,0,5.72,2.84,4.408,4.408,0,0,0,2.36-.6V177A3.416,3.416,0,0,1,94.16,177.12Zm26.36-8.56c0-6.48-2.6-9.56-8.76-9.04-2.36.16-4.88,1.64-5.4,3.48V150h-4.12v30h4.12V168.56c0-4,2-5.76,5.4-5.76s4.64,1.76,4.64,5.76V180h4.12Zm9.92-8.32h-4.12V180h4.12Zm.2-7.24a2.26,2.26,0,1,0-2.28,2.28A2.245,2.245,0,0,0,130.64,153Zm24.28,15.6c0-6.48-2.6-9.56-8.76-9.08-2.36.2-4.88,1.68-5.4,3.52v-2.8h-4.12V180h4.12V168.6c0-4,2-5.76,5.4-5.76s4.64,1.76,4.64,5.76V180h4.12Zm20.76-8.36v1.12a8.646,8.646,0,0,0-5.28-1.92,10.667,10.667,0,0,0,0,21.32,8.814,8.814,0,0,0,5.28-1.88v1.44c0,4-2.76,7.28-6.16,7.28a5.735,5.735,0,0,1-4.68-2.6L162,187.56a10.139,10.139,0,0,0,7.52,3.4,10.461,10.461,0,0,0,10.28-10.64V160.24ZM170.4,177.4c-3.4,0-6.16-3.28-6.16-7.28,0-4.04,2.76-7.28,6.16-7.28a6.024,6.024,0,0,1,5.28,3.52,8.394,8.394,0,0,1,.88,3.76,8.1,8.1,0,0,1-.88,3.72A6.065,6.065,0,0,1,170.4,177.4ZM208.68,153v-3.2a4.408,4.408,0,0,0-2.36-.6c-2.36,0-4.44.72-5.72,2.84-1.2,1.96-1.2,3.08-1.2,6.2v2H197v3.36h2.4V180h4.12V163.6h5.16v-3.36h-5.16v-2c0-3.28.32-4.48,2.28-5.36A3.416,3.416,0,0,1,208.68,153Zm13.08,9.88c3.4,0,6.16,3.24,6.16,7.28,0,4-2.76,7.28-6.16,7.28s-6.16-3.28-6.16-7.28C215.6,166.12,218.36,162.88,221.76,162.88Zm0-3.4a10.667,10.667,0,1,0,10.28,10.68A10.5,10.5,0,0,0,221.76,159.48Zm26.56.6a4.679,4.679,0,0,0-2.4-.6c-2.36,0-4.88,1.72-5.36,3.56v-2.8h-4.12V180h4.12v-9.48c0-4,2-7.64,5.4-7.64a5.946,5.946,0,0,1,2.36.4ZM296.36,180V168.56c0-6.48-2.6-9.52-8.76-9.04-3.6.24-5.8,2.76-5.88,4.92-1-3.64-3.6-5.32-8.28-4.92-2.36.16-4.88,1.64-5.4,3.48v-2.76h-4.12V180h4.12V168.56c0-4,2-5.76,5.4-5.76s4.6,1.76,4.6,5.76V180h4.16V168.56c0-4,2-5.76,5.4-5.76,3.36,0,4.6,1.76,4.6,5.76V180Zm23.84-9.84a10.37,10.37,0,0,0-.16-1.92,10.168,10.168,0,0,0-9.76-8.76c-5.48,0-9.92,4.8-9.92,10.68a10.468,10.468,0,0,0,10.32,10.64,10.139,10.139,0,0,0,7.52-3.4l-2.84-2.56a5.735,5.735,0,0,1-4.68,2.6c-3,0-5.48-2.52-6.04-5.8H320.2Zm-15.48-1.92c.64-3.08,2.88-5.36,5.56-5.36s4.92,2.28,5.6,5.36Zm38.16.36c0-6.48-2.6-9.56-8.76-9.08-2.36.2-4.88,1.68-5.4,3.52v-2.8H324.6V180h4.12V168.6c0-4,2-5.76,5.4-5.76s4.64,1.76,4.64,5.76V180h4.12Zm10.4,8.88a2.8,2.8,0,0,0-5.6,0,2.83,2.83,0,0,0,1.48,2.52l-1.48,4.56h1.36l3.76-5.44A2.742,2.742,0,0,0,353.28,177.48Zm38.6-17.24-4.68,13.8-4.12-12.16-.56-1.64h-2.96l-.52,1.64-4.12,12.16-4.68-13.8h-4.16L373.64,180h2.52l4.88-12.8,4.92,12.8h2.52L396,160.24Zm16.4,2.64c3.4,0,6.16,3.24,6.16,7.28,0,4-2.76,7.28-6.16,7.28s-6.16-3.28-6.16-7.28C402.12,166.12,404.88,162.88,408.28,162.88Zm0-3.4a10.667,10.667,0,1,0,10.28,10.68A10.5,10.5,0,0,0,408.28,159.48ZM455.8,180V168.56c0-6.48-2.6-9.52-8.76-9.04-3.6.24-5.8,2.76-5.88,4.92-1-3.64-3.6-5.32-8.28-4.92-2.36.16-4.88,1.64-5.4,3.48v-2.76h-4.12V180h4.12V168.56c0-4,2-5.76,5.4-5.76s4.6,1.76,4.6,5.76V180h4.16V168.56c0-4,2-5.76,5.4-5.76,3.36,0,4.6,1.76,4.6,5.76V180Zm23.84-9.84a10.37,10.37,0,0,0-.16-1.92,10.168,10.168,0,0,0-9.76-8.76c-5.48,0-9.92,4.8-9.92,10.68a10.468,10.468,0,0,0,10.32,10.64,10.139,10.139,0,0,0,7.52-3.4l-2.84-2.56a5.735,5.735,0,0,1-4.68,2.6c-3,0-5.48-2.52-6.04-5.8h15.56Zm-15.48-1.92c.64-3.08,2.88-5.36,5.56-5.36s4.92,2.28,5.6,5.36Zm38.16.36c0-6.48-2.6-9.56-8.76-9.08-2.36.2-4.88,1.68-5.4,3.52v-2.8h-4.12V180h4.12V168.6c0-4,2-5.76,5.4-5.76s4.64,1.76,4.64,5.76V180h4.12Zm10.4,8.88a2.8,2.8,0,0,0-5.6,0A2.83,2.83,0,0,0,508.6,180l-1.48,4.56h1.36l3.76-5.44A2.742,2.742,0,0,0,512.72,177.48Zm22.4-.36c-1.96-.88-2.28-2.08-2.28-5.36V163.6H538v-3.36h-5.16V150h-4.12v10.24h-2.4v3.36h2.4v8.16c0,3.12,0,4.2,1.2,6.2a6.241,6.241,0,0,0,5.72,2.84,4.408,4.408,0,0,0,2.36-.6V177A3.416,3.416,0,0,1,535.12,177.12Zm26.32-6.96a10.369,10.369,0,0,0-.16-1.92,10.168,10.168,0,0,0-9.76-8.76c-5.48,0-9.92,4.8-9.92,10.68a10.468,10.468,0,0,0,10.32,10.64,10.139,10.139,0,0,0,7.52-3.4l-2.84-2.56a5.735,5.735,0,0,1-4.68,2.6c-3,0-5.48-2.52-6.04-5.8h15.56Zm-15.48-1.92c.64-3.08,2.88-5.36,5.56-5.36s4.92,2.28,5.6,5.36Zm38.12,1.92a10.369,10.369,0,0,0-.16-1.92,10.168,10.168,0,0,0-9.76-8.76c-5.48,0-9.92,4.8-9.92,10.68a10.468,10.468,0,0,0,10.32,10.64,10.139,10.139,0,0,0,7.52-3.4l-2.84-2.56a5.735,5.735,0,0,1-4.68,2.6c-3,0-5.48-2.52-6.04-5.8h15.56Zm-15.48-1.92c.64-3.08,2.88-5.36,5.56-5.36s4.92,2.28,5.6,5.36Zm38.16.36c0-6.48-2.6-9.56-8.76-9.08-2.36.2-4.88,1.68-5.4,3.52v-2.8h-4.12V180h4.12V168.6c0-4,2-5.76,5.4-5.76s4.64,1.76,4.64,5.76V180h4.12Zm14.04-9.16a10.16,10.16,0,0,0-7.56,3.4l2.84,2.56a5.868,5.868,0,0,1,4.72-2.56c3.36,0,3.84,1.72,3.84,2.96v1.72h-5.6c-3.8,0-7.48,2.16-7.48,7.08,0,3.52,2.36,6.16,7.48,6.16a6.424,6.424,0,0,0,5.6-2.52V180h4.12V165.8C628.76,162.88,626.48,159.44,620.8,159.44Zm3.84,14.4c0,1.36-1.24,3.56-5.04,3.56-2.12,0-3.92-.8-3.92-2.64a3.684,3.684,0,0,1,3.92-3.88h5.04Zm24.48-13.6v1.12a8.646,8.646,0,0,0-5.28-1.92,10.667,10.667,0,0,0,0,21.32,8.814,8.814,0,0,0,5.28-1.88v1.44c0,4-2.76,7.28-6.16,7.28a5.735,5.735,0,0,1-4.68-2.6l-2.84,2.56a10.139,10.139,0,0,0,7.52,3.4,10.461,10.461,0,0,0,10.28-10.64V160.24Zm-5.28,17.16c-3.4,0-6.16-3.28-6.16-7.28,0-4.04,2.76-7.28,6.16-7.28a6.024,6.024,0,0,1,5.28,3.52,8.394,8.394,0,0,1,.88,3.76,8.1,8.1,0,0,1-.88,3.72A6.065,6.065,0,0,1,643.84,177.4Zm33.64-7.24a10.369,10.369,0,0,0-.16-1.92,10.168,10.168,0,0,0-9.76-8.76c-5.48,0-9.92,4.8-9.92,10.68a10.468,10.468,0,0,0,10.32,10.64,10.139,10.139,0,0,0,7.52-3.4l-2.84-2.56a5.735,5.735,0,0,1-4.68,2.6c-3,0-5.48-2.52-6.04-5.8h15.56ZM662,168.24c.64-3.08,2.88-5.36,5.56-5.36s4.92,2.28,5.6,5.36Zm31.36-8.16a4.679,4.679,0,0,0-2.4-.6c-2.36,0-4.88,1.72-5.36,3.56v-2.8h-4.12V180h4.12v-9.48c0-4,2-7.64,5.4-7.64a5.946,5.946,0,0,1,2.36.4Zm16.92,12.64c-1.04-2.8-3.92-3.76-6.48-4.52-1.92-.6-3.72-1.08-4.12-2.2a2.076,2.076,0,0,1,.16-1.64c.68-1.32,3.04-1.36,3.08-1.36a5.533,5.533,0,0,1,4.52,2.08l2.68-2.68a10.027,10.027,0,0,0-7.2-2.92c-.48,0-4.56.12-6.2,3.2a5.762,5.762,0,0,0-.36,4.52c1.04,2.8,3.88,3.76,6.4,4.52,1.96.56,3.76,1.04,4.24,2.24a2.842,2.842,0,0,1-.04,1.56c-.44,1.04-2.08,1.76-4.04,1.76a5.53,5.53,0,0,1-4.48-2.16l-2.68,2.68a10.242,10.242,0,0,0,7.16,3h.04c3.44,0,6.2-1.52,7.24-3.88A6.17,6.17,0,0,0,710.28,172.72Zm-665,36.72a10.16,10.16,0,0,0-7.56,3.4l2.84,2.56a5.868,5.868,0,0,1,4.72-2.56c3.36,0,3.84,1.72,3.84,2.96v1.72h-5.6c-3.8,0-7.48,2.16-7.48,7.08,0,3.52,2.36,6.16,7.48,6.16a6.424,6.424,0,0,0,5.6-2.52V230h4.12V215.8C53.24,212.88,50.96,209.44,45.28,209.44Zm3.84,14.4c0,1.36-1.24,3.56-5.04,3.56-2.12,0-3.92-.8-3.92-2.64a3.684,3.684,0,0,1,3.92-3.88h5.04Zm28-5.24c0-6.48-2.6-9.56-8.76-9.08-2.36.2-4.88,1.68-5.4,3.52v-2.8H58.84V230h4.12V218.6c0-4,2-5.76,5.4-5.76S73,214.6,73,218.6V230h4.12Zm4.8,1.56A10.461,10.461,0,0,0,92.2,230.8a8.764,8.764,0,0,0,5.28-1.88V230h4.16V200H97.48v11.4a8.752,8.752,0,0,0-5.28-1.92A10.5,10.5,0,0,0,81.92,220.16Zm4.16,0c0-4.04,2.76-7.28,6.12-7.28a5.978,5.978,0,0,1,5.28,3.52,8.394,8.394,0,0,1,.88,3.76,8.1,8.1,0,0,1-.88,3.72,6.019,6.019,0,0,1-5.28,3.56C88.84,227.44,86.08,224.16,86.08,220.16Zm46.96,4.68a5.861,5.861,0,0,1-4.72,2.6c-3.4,0-6.16-3.28-6.16-7.28,0-4.04,2.76-7.28,6.16-7.28a5.926,5.926,0,0,1,4.72,2.56l2.84-2.56a10.16,10.16,0,0,0-7.56-3.4,10.667,10.667,0,0,0,0,21.32,10.16,10.16,0,0,0,7.56-3.4Zm25.52-6.28c0-6.48-2.6-9.56-8.76-9.04-2.36.16-4.88,1.64-5.4,3.48V200h-4.12v30h4.12V218.56c0-4,2-5.76,5.4-5.76s4.64,1.76,4.64,5.76V230h4.12Zm9.92-8.32h-4.12V230h4.12Zm.2-7.24a2.26,2.26,0,1,0-2.28,2.28A2.245,2.245,0,0,0,168.68,203Zm10.16-3.76h-4.16V230h4.16Zm5.2,20.92a10.461,10.461,0,0,0,10.28,10.64,8.764,8.764,0,0,0,5.28-1.88V230h4.16V200H199.6v11.4a8.752,8.752,0,0,0-5.28-1.92A10.5,10.5,0,0,0,184.04,220.16Zm4.16,0c0-4.04,2.76-7.28,6.12-7.28a5.978,5.978,0,0,1,5.28,3.52,8.394,8.394,0,0,1,.88,3.76,8.1,8.1,0,0,1-.88,3.72,6.019,6.019,0,0,1-5.28,3.56C190.96,227.44,188.2,224.16,188.2,220.16Zm33.04-10.08a4.679,4.679,0,0,0-2.4-.6c-2.36,0-4.88,1.72-5.36,3.56v-2.8h-4.12V230h4.12v-9.48c0-4,2-7.64,5.4-7.64a5.946,5.946,0,0,1,2.36.4Zm21.84,10.08a10.37,10.37,0,0,0-.16-1.92,10.168,10.168,0,0,0-9.76-8.76c-5.48,0-9.92,4.8-9.92,10.68a10.468,10.468,0,0,0,10.32,10.64,10.139,10.139,0,0,0,7.52-3.4l-2.84-2.56a5.735,5.735,0,0,1-4.68,2.6c-3,0-5.48-2.52-6.04-5.8h15.56Zm-15.48-1.92c.64-3.08,2.88-5.36,5.56-5.36s4.92,2.28,5.6,5.36Zm38.16.36c0-6.48-2.6-9.56-8.76-9.08-2.36.2-4.88,1.68-5.4,3.52v-2.8h-4.12V230h4.12V218.6c0-4,2-5.76,5.4-5.76s4.64,1.76,4.64,5.76V230h4.12ZM277,227.56a2.82,2.82,0,1,0-2.84,2.84A2.784,2.784,0,0,0,277,227.56Zm36.6-8.16c-1.52-4.04-5.8-5.32-9.6-6.48-3.2-.96-5.48-1.88-6.28-4.08a4.469,4.469,0,0,1,.28-3.36c1.36-2.56,4.88-2.56,4.92-2.56a10.186,10.186,0,0,1,7.56,3.48,5.849,5.849,0,0,1,.64.76l2.92-2.92a14.947,14.947,0,0,0-11.12-5c-.68,0-6.6.12-8.92,4.52a7.761,7.761,0,0,0-.48,6.32c1.4,3.92,5.68,5.24,9.4,6.36,3.28,1,5.6,1.92,6.44,4.24a4.585,4.585,0,0,1-.08,3.12c-.84,2-2.88,3.28-6.36,3.32a10.122,10.122,0,0,1-7.56-3.48,3.585,3.585,0,0,1-.6-.76l-2.96,2.96a15.123,15.123,0,0,0,11.12,4.96c5.04-.04,9.08-2.16,10.52-5.56A8.143,8.143,0,0,0,313.6,219.4ZM340.24,200l-9.2,14-9.16-14h-5.4l12.36,18.08V230h4.44V218.08L345.64,200Zm27.04,9.44a10.16,10.16,0,0,0-7.56,3.4l2.84,2.56a5.868,5.868,0,0,1,4.72-2.56c3.36,0,3.84,1.72,3.84,2.96v1.72h-5.6c-3.8,0-7.48,2.16-7.48,7.08,0,3.52,2.36,6.16,7.48,6.16a6.424,6.424,0,0,0,5.6-2.52V230h4.12V215.8C375.24,212.88,372.96,209.44,367.28,209.44Zm3.84,14.4c0,1.36-1.24,3.56-5.04,3.56-2.12,0-3.92-.8-3.92-2.64a3.684,3.684,0,0,1,3.92-3.88h5.04Zm28-5.24c0-6.48-2.6-9.56-8.76-9.08-2.36.2-4.88,1.68-5.4,3.52v-2.8h-4.12V230h4.12V218.6c0-4,2-5.76,5.4-5.76S395,214.6,395,218.6V230h4.12Zm4.8,1.56A10.461,10.461,0,0,0,414.2,230.8a8.764,8.764,0,0,0,5.28-1.88V230h4.16V200h-4.16v11.4a8.752,8.752,0,0,0-5.28-1.92A10.5,10.5,0,0,0,403.92,220.16Zm4.16,0c0-4.04,2.76-7.28,6.12-7.28a5.978,5.978,0,0,1,5.28,3.52,8.394,8.394,0,0,1,.88,3.76,8.1,8.1,0,0,1-.88,3.72,6.019,6.019,0,0,1-5.28,3.56C410.84,227.44,408.08,224.16,408.08,220.16Zm42.64-7.28c3.4,0,6.16,3.24,6.16,7.28,0,4-2.76,7.28-6.16,7.28s-6.16-3.28-6.16-7.28C444.56,216.12,447.32,212.88,450.72,212.88Zm0-3.4A10.667,10.667,0,1,0,461,220.16,10.5,10.5,0,0,0,450.72,209.48Zm15.08,12.2c0,6.52,2.6,9.56,8.76,9.08,2.36-.2,4.88-1.68,5.36-3.52V230h4.16V210.24h-4.16v11.44c0,4-1.96,5.76-5.36,5.76s-4.64-1.76-4.64-5.76V210.24H465.8Zm35.76-11.6a4.679,4.679,0,0,0-2.4-.6c-2.36,0-4.88,1.72-5.36,3.56v-2.8h-4.12V230h4.12v-9.48c0-4,2-7.64,5.4-7.64a5.946,5.946,0,0,1,2.36.4Zm23.64-.64a10.16,10.16,0,0,0-7.56,3.4l2.84,2.56a5.868,5.868,0,0,1,4.72-2.56c3.36,0,3.84,1.72,3.84,2.96v1.72h-5.6c-3.8,0-7.48,2.16-7.48,7.08,0,3.52,2.36,6.16,7.48,6.16a6.424,6.424,0,0,0,5.6-2.52V230h4.12V215.8C533.16,212.88,530.88,209.44,525.2,209.44Zm3.84,14.4c0,1.36-1.24,3.56-5.04,3.56-2.12,0-3.92-.8-3.92-2.64a3.684,3.684,0,0,1,3.92-3.88h5.04Zm23.04-1.12c-1.04-2.8-3.92-3.76-6.48-4.52-1.92-.6-3.72-1.08-4.12-2.2a2.076,2.076,0,0,1,.16-1.64c.68-1.32,3.04-1.36,3.08-1.36a5.533,5.533,0,0,1,4.52,2.08l2.68-2.68a10.027,10.027,0,0,0-7.2-2.92c-.48,0-4.56.12-6.2,3.2a5.762,5.762,0,0,0-.36,4.52c1.04,2.8,3.88,3.76,6.4,4.52,1.96.56,3.76,1.04,4.24,2.24a2.842,2.842,0,0,1-.04,1.56c-.44,1.04-2.08,1.76-4.04,1.76a5.53,5.53,0,0,1-4.48-2.16l-2.68,2.68a10.242,10.242,0,0,0,7.16,3h.04c3.44,0,6.2-1.52,7.24-3.88A6.17,6.17,0,0,0,552.08,222.72Zm18.84,0c-1.04-2.8-3.92-3.76-6.48-4.52-1.92-.6-3.72-1.08-4.12-2.2a2.076,2.076,0,0,1,.16-1.64c.68-1.32,3.04-1.36,3.08-1.36a5.533,5.533,0,0,1,4.52,2.08l2.68-2.68a10.027,10.027,0,0,0-7.2-2.92c-.48,0-4.56.12-6.2,3.2a5.762,5.762,0,0,0-.36,4.52c1.04,2.8,3.88,3.76,6.4,4.52,1.96.56,3.76,1.04,4.24,2.24a2.842,2.842,0,0,1-.04,1.56c-.44,1.04-2.08,1.76-4.04,1.76a5.53,5.53,0,0,1-4.48-2.16l-2.68,2.68a10.242,10.242,0,0,0,7.16,3h.04c3.44,0,6.2-1.52,7.24-3.88A6.17,6.17,0,0,0,570.92,222.72Zm14.6-9.84c3.4,0,6.16,3.24,6.16,7.28,0,4-2.76,7.28-6.16,7.28s-6.16-3.28-6.16-7.28C579.36,216.12,582.12,212.88,585.52,212.88Zm0-3.4a10.667,10.667,0,1,0,10.28,10.68A10.5,10.5,0,0,0,585.52,209.48ZM614,224.84a5.861,5.861,0,0,1-4.72,2.6c-3.4,0-6.16-3.28-6.16-7.28,0-4.04,2.76-7.28,6.16-7.28a5.926,5.926,0,0,1,4.72,2.56l2.84-2.56a10.16,10.16,0,0,0-7.56-3.4,10.667,10.667,0,0,0,0,21.32,10.16,10.16,0,0,0,7.56-3.4Zm11.56-14.6h-4.12V230h4.12Zm.2-7.24a2.26,2.26,0,1,0-2.28,2.28A2.245,2.245,0,0,0,625.76,203Zm14.04,6.44a10.16,10.16,0,0,0-7.56,3.4l2.84,2.56a5.868,5.868,0,0,1,4.72-2.56c3.36,0,3.84,1.72,3.84,2.96v1.72h-5.6c-3.8,0-7.48,2.16-7.48,7.08,0,3.52,2.36,6.16,7.48,6.16a6.424,6.424,0,0,0,5.6-2.52V230h4.12V215.8C647.76,212.88,645.48,209.44,639.8,209.44Zm3.84,14.4c0,1.36-1.24,3.56-5.04,3.56-2.12,0-3.92-.8-3.92-2.64a3.684,3.684,0,0,1,3.92-3.88h5.04Zm16.92,3.28c-1.96-.88-2.28-2.08-2.28-5.36V213.6h5.16v-3.36h-5.16V200h-4.12v10.24h-2.4v3.36h2.4v8.16c0,3.12,0,4.2,1.2,6.2a6.241,6.241,0,0,0,5.72,2.84,4.408,4.408,0,0,0,2.36-.6V227A3.416,3.416,0,0,1,660.56,227.12Zm26.32-6.96a10.369,10.369,0,0,0-.16-1.92,10.168,10.168,0,0,0-9.76-8.76c-5.48,0-9.92,4.8-9.92,10.68a10.468,10.468,0,0,0,10.32,10.64,10.139,10.139,0,0,0,7.52-3.4l-2.84-2.56a5.735,5.735,0,0,1-4.68,2.6c-3,0-5.48-2.52-6.04-5.8h15.56Zm-15.48-1.92c.64-3.08,2.88-5.36,5.56-5.36s4.92,2.28,5.6,5.36Zm18.68,1.92a10.461,10.461,0,0,0,10.28,10.64,8.764,8.764,0,0,0,5.28-1.88V230h4.16V200h-4.16v11.4a8.752,8.752,0,0,0-5.28-1.92A10.5,10.5,0,0,0,690.08,220.16Zm4.16,0c0-4.04,2.76-7.28,6.12-7.28a5.978,5.978,0,0,1,5.28,3.52,8.394,8.394,0,0,1,.88,3.76,8.1,8.1,0,0,1-.88,3.72,6.019,6.019,0,0,1-5.28,3.56C697,227.44,694.24,224.16,694.24,220.16ZM71.88,274.84a5.861,5.861,0,0,1-4.72,2.6c-3.4,0-6.16-3.28-6.16-7.28,0-4.04,2.76-7.28,6.16-7.28a5.926,5.926,0,0,1,4.72,2.56l2.84-2.56a10.16,10.16,0,0,0-7.56-3.4,10.667,10.667,0,0,0,0,21.32,10.16,10.16,0,0,0,7.56-3.4ZM88.2,262.88c3.4,0,6.16,3.24,6.16,7.28,0,4-2.76,7.28-6.16,7.28s-6.16-3.28-6.16-7.28C82.04,266.12,84.8,262.88,88.2,262.88Zm0-3.4a10.667,10.667,0,1,0,10.28,10.68A10.5,10.5,0,0,0,88.2,259.48ZM135.72,280V268.56c0-6.48-2.6-9.52-8.76-9.04-3.6.24-5.8,2.76-5.88,4.92-1-3.64-3.6-5.32-8.28-4.92-2.36.16-4.88,1.64-5.4,3.48v-2.76h-4.12V280h4.12V268.56c0-4,2-5.76,5.4-5.76s4.6,1.76,4.6,5.76V280h4.16V268.56c0-4,2-5.76,5.4-5.76,3.36,0,4.6,1.76,4.6,5.76V280Zm24.52-9.84a10.529,10.529,0,0,0-10.32-10.68,8.646,8.646,0,0,0-5.28,1.92v-1.16h-4.12V290.2h4.12V278.92a8.815,8.815,0,0,0,5.28,1.88A10.494,10.494,0,0,0,160.24,270.16Zm-4.16,0c0,4-2.76,7.28-6.16,7.28a6.065,6.065,0,0,1-5.28-3.56,8.657,8.657,0,0,1,0-7.44,6,6,0,0,1,5.28-3.56C153.32,262.88,156.08,266.12,156.08,270.16Zm17-10.72a10.16,10.16,0,0,0-7.56,3.4l2.84,2.56a5.868,5.868,0,0,1,4.72-2.56c3.36,0,3.84,1.72,3.84,2.96v1.72h-5.6c-3.8,0-7.48,2.16-7.48,7.08,0,3.52,2.36,6.16,7.48,6.16a6.424,6.424,0,0,0,5.6-2.52V280h4.12V265.8C181.04,262.88,178.76,259.44,173.08,259.44Zm3.84,14.4c0,1.36-1.24,3.56-5.04,3.56-2.12,0-3.92-.8-3.92-2.64a3.684,3.684,0,0,1,3.92-3.88h5.04Zm28-5.24c0-6.48-2.6-9.56-8.76-9.08-2.36.2-4.88,1.68-5.4,3.52v-2.8h-4.12V280h4.12V268.6c0-4,2-5.76,5.4-5.76s4.64,1.76,4.64,5.76V280h4.12Zm10.32-8.36h-4.12V280h4.12Zm.2-7.24a2.26,2.26,0,1,0-2.28,2.28A2.245,2.245,0,0,0,215.44,253Zm24.24,17.16a10.37,10.37,0,0,0-.16-1.92,10.168,10.168,0,0,0-9.76-8.76c-5.48,0-9.92,4.8-9.92,10.68a10.468,10.468,0,0,0,10.32,10.64,10.139,10.139,0,0,0,7.52-3.4l-2.84-2.56a5.735,5.735,0,0,1-4.68,2.6c-3,0-5.48-2.52-6.04-5.8h15.56Zm-15.48-1.92c.64-3.08,2.88-5.36,5.56-5.36s4.92,2.28,5.6,5.36Zm33.2,4.48c-1.04-2.8-3.92-3.76-6.48-4.52-1.92-.6-3.72-1.08-4.12-2.2a2.076,2.076,0,0,1,.16-1.64c.68-1.32,3.04-1.36,3.08-1.36a5.533,5.533,0,0,1,4.52,2.08l2.68-2.68a10.027,10.027,0,0,0-7.2-2.92c-.48,0-4.56.12-6.2,3.2a5.762,5.762,0,0,0-.36,4.52c1.04,2.8,3.88,3.76,6.4,4.52,1.96.56,3.76,1.04,4.24,2.24a2.842,2.842,0,0,1-.04,1.56c-.44,1.04-2.08,1.76-4.04,1.76a5.53,5.53,0,0,1-4.48-2.16l-2.68,2.68a10.242,10.242,0,0,0,7.16,3h.04c3.44,0,6.2-1.52,7.24-3.88A6.171,6.171,0,0,0,257.4,272.72Zm26.6-9.84c3.4,0,6.16,3.24,6.16,7.28,0,4-2.76,7.28-6.16,7.28s-6.16-3.28-6.16-7.28C277.84,266.12,280.6,262.88,284,262.88Zm0-3.4a10.667,10.667,0,1,0,10.28,10.68A10.5,10.5,0,0,0,284,259.48Zm34,10.68a10.529,10.529,0,0,0-10.32-10.68,8.646,8.646,0,0,0-5.28,1.92v-1.16h-4.12V290.2h4.12V278.92a8.815,8.815,0,0,0,5.28,1.88A10.494,10.494,0,0,0,318,270.16Zm-4.16,0c0,4-2.76,7.28-6.16,7.28a6.065,6.065,0,0,1-5.28-3.56,8.657,8.657,0,0,1,0-7.44,6,6,0,0,1,5.28-3.56C311.08,262.88,313.84,266.12,313.84,270.16Zm27.2,0a10.37,10.37,0,0,0-.16-1.92,10.168,10.168,0,0,0-9.76-8.76c-5.48,0-9.92,4.8-9.92,10.68a10.468,10.468,0,0,0,10.32,10.64,10.139,10.139,0,0,0,7.52-3.4l-2.84-2.56a5.735,5.735,0,0,1-4.68,2.6c-3,0-5.48-2.52-6.04-5.8h15.56Zm-15.48-1.92c.64-3.08,2.88-5.36,5.56-5.36s4.92,2.28,5.6,5.36Zm31.36-8.16a4.679,4.679,0,0,0-2.4-.6c-2.36,0-4.88,1.72-5.36,3.56v-2.8h-4.12V280h4.12v-9.48c0-4,2-7.64,5.4-7.64a5.946,5.946,0,0,1,2.36.4Zm11.64-.64a10.16,10.16,0,0,0-7.56,3.4l2.84,2.56a5.868,5.868,0,0,1,4.72-2.56c3.36,0,3.84,1.72,3.84,2.96v1.72h-5.6c-3.8,0-7.48,2.16-7.48,7.08,0,3.52,2.36,6.16,7.48,6.16a6.424,6.424,0,0,0,5.6-2.52V280h4.12V265.8C376.52,262.88,374.24,259.44,368.56,259.44Zm3.84,14.4c0,1.36-1.24,3.56-5.04,3.56-2.12,0-3.92-.8-3.92-2.64a3.684,3.684,0,0,1,3.92-3.88h5.04Zm16.92,3.28c-1.96-.88-2.28-2.08-2.28-5.36V263.6h5.16v-3.36h-5.16V250h-4.12v10.24h-2.4v3.36h2.4v8.16c0,3.12,0,4.2,1.2,6.2a6.241,6.241,0,0,0,5.72,2.84,4.408,4.408,0,0,0,2.36-.6V277A3.416,3.416,0,0,1,389.32,277.12Zm26.32-6.96a10.37,10.37,0,0,0-.16-1.92,10.168,10.168,0,0,0-9.76-8.76c-5.48,0-9.92,4.8-9.92,10.68a10.468,10.468,0,0,0,10.32,10.64,10.139,10.139,0,0,0,7.52-3.4l-2.84-2.56a5.735,5.735,0,0,1-4.68,2.6c-3,0-5.48-2.52-6.04-5.8h15.56Zm-15.48-1.92c.64-3.08,2.88-5.36,5.56-5.36s4.92,2.28,5.6,5.36Zm36.2-8h-4.12V280h4.12Zm.2-7.24a2.26,2.26,0,1,0-2.28,2.28A2.245,2.245,0,0,0,436.56,253Zm24.28,15.6c0-6.48-2.6-9.56-8.76-9.08-2.36.2-4.88,1.68-5.4,3.52v-2.8h-4.12V280h4.12V268.6c0-4,2-5.76,5.4-5.76s4.64,1.76,4.64,5.76V280h4.12Zm27.52-9.16a6.056,6.056,0,0,0-1.2.08l5.36-9.52h-4.76l-8.28,14.72a10.677,10.677,0,0,0-1.44,5.4,10.307,10.307,0,1,0,10.32-10.68Zm0,17.2a6.552,6.552,0,1,1,6.16-6.52A6.375,6.375,0,0,1,488.36,276.64Zm31.44-9.56a17.622,17.622,0,0,0,2.24-3.84,12.1,12.1,0,0,0,.84-4.4,9.885,9.885,0,0,0-1.96-6.24,9.628,9.628,0,0,0-6.84-3.4,9.46,9.46,0,0,0-5.72,1.68A10.6,10.6,0,0,0,504,257.4l4.04.88a6.744,6.744,0,0,1,2.64-3.92,5.041,5.041,0,0,1,3.24-1,5.286,5.286,0,0,1,3.72,1.84,5.729,5.729,0,0,1,1.08,3.64,9.744,9.744,0,0,1-2.24,5.76,55.526,55.526,0,0,1-6.2,6.4,54.8,54.8,0,0,1-6.44,5.32V280h18.32v-3.68H510.52c.92-.72,1.76-1.48,2.6-2.28A57.654,57.654,0,0,0,519.8,267.08Zm33.68,7.76a5.861,5.861,0,0,1-4.72,2.6c-3.4,0-6.16-3.28-6.16-7.28,0-4.04,2.76-7.28,6.16-7.28a5.926,5.926,0,0,1,4.72,2.56l2.84-2.56a10.16,10.16,0,0,0-7.56-3.4,10.667,10.667,0,0,0,0,21.32,10.16,10.16,0,0,0,7.56-3.4Zm16.32-11.96c3.4,0,6.16,3.24,6.16,7.28,0,4-2.76,7.28-6.16,7.28s-6.16-3.28-6.16-7.28C563.64,266.12,566.4,262.88,569.8,262.88Zm0-3.4a10.667,10.667,0,1,0,10.28,10.68A10.5,10.5,0,0,0,569.8,259.48Zm15.08,12.2c0,6.52,2.6,9.56,8.76,9.08,2.36-.2,4.88-1.68,5.36-3.52V280h4.16V260.24H599v11.44c0,4-1.96,5.76-5.36,5.76s-4.64-1.76-4.64-5.76V260.24h-4.12Zm42.56-3.08c0-6.48-2.6-9.56-8.76-9.08-2.36.2-4.88,1.68-5.4,3.52v-2.8h-4.12V280h4.12V268.6c0-4,2-5.76,5.4-5.76s4.64,1.76,4.64,5.76V280h4.12Zm13.2,8.52c-1.96-.88-2.28-2.08-2.28-5.36V263.6h5.16v-3.36h-5.16V250h-4.12v10.24h-2.4v3.36h2.4v8.16c0,3.12,0,4.2,1.2,6.2a6.241,6.241,0,0,0,5.72,2.84,4.409,4.409,0,0,0,2.36-.6V277A3.416,3.416,0,0,1,640.64,277.12Zm19.56-17.04a4.68,4.68,0,0,0-2.4-.6c-2.36,0-4.88,1.72-5.36,3.56v-2.8h-4.12V280h4.12v-9.48c0-4,2-7.64,5.4-7.64a5.946,5.946,0,0,1,2.36.4Zm7.92.16H664V280h4.12Zm.2-7.24a2.26,2.26,0,1,0-2.28,2.28A2.245,2.245,0,0,0,668.32,253Zm24.24,17.16a10.37,10.37,0,0,0-.16-1.92,10.168,10.168,0,0,0-9.76-8.76c-5.48,0-9.92,4.8-9.92,10.68a10.468,10.468,0,0,0,10.32,10.64,10.139,10.139,0,0,0,7.52-3.4l-2.84-2.56a5.735,5.735,0,0,1-4.68,2.6c-3,0-5.48-2.52-6.04-5.8h15.56Zm-15.48-1.92c.64-3.08,2.88-5.36,5.56-5.36s4.92,2.28,5.6,5.36Zm33.2,4.48c-1.04-2.8-3.92-3.76-6.48-4.52-1.92-.6-3.72-1.08-4.12-2.2a2.076,2.076,0,0,1,.16-1.64c.68-1.32,3.04-1.36,3.08-1.36a5.533,5.533,0,0,1,4.52,2.08l2.68-2.68a10.027,10.027,0,0,0-7.2-2.92c-.48,0-4.56.12-6.2,3.2a5.762,5.762,0,0,0-.36,4.52c1.04,2.8,3.88,3.76,6.4,4.52,1.96.56,3.76,1.04,4.24,2.24a2.842,2.842,0,0,1-.04,1.56c-.44,1.04-2.08,1.76-4.04,1.76a5.53,5.53,0,0,1-4.48-2.16l-2.68,2.68a10.242,10.242,0,0,0,7.16,3h.04c3.44,0,6.2-1.52,7.24-3.88A6.171,6.171,0,0,0,710.28,272.72ZM40.64,310.24l-4.68,13.8-4.12-12.16-.56-1.64H28.32l-.52,1.64-4.12,12.16L19,310.24H14.84L22.4,330h2.52l4.88-12.8L34.72,330h2.52l7.52-19.76Zm11.64,0H48.16V330h4.12Zm.2-7.24a2.26,2.26,0,1,0-2.28,2.28A2.245,2.245,0,0,0,52.48,303Zm13.2,24.12c-1.96-.88-2.28-2.08-2.28-5.36V313.6h5.16v-3.36H63.4V300H59.28v10.24h-2.4v3.36h2.4v8.16c0,3.12,0,4.2,1.2,6.2a6.241,6.241,0,0,0,5.72,2.84,4.408,4.408,0,0,0,2.36-.6V327A3.416,3.416,0,0,1,65.68,327.12Zm26.36-8.56c0-6.48-2.6-9.56-8.76-9.04-2.36.16-4.88,1.64-5.4,3.48V300H73.76v30h4.12V318.56c0-4,2-5.76,5.4-5.76s4.64,1.76,4.64,5.76V330h4.12Zm26.68-5.68c3.4,0,6.16,3.24,6.16,7.28,0,4-2.76,7.28-6.16,7.28s-6.16-3.28-6.16-7.28C112.56,316.12,115.32,312.88,118.72,312.88Zm0-3.4A10.667,10.667,0,1,0,129,320.16,10.5,10.5,0,0,0,118.72,309.48ZM142.68,330l8.28-19.76h-4.12l-5.44,13.8-5.44-13.8H131.8L140.16,330Zm30.12-9.84a10.37,10.37,0,0,0-.16-1.92,10.168,10.168,0,0,0-9.76-8.76c-5.48,0-9.92,4.8-9.92,10.68a10.468,10.468,0,0,0,10.32,10.64,10.139,10.139,0,0,0,7.52-3.4l-2.84-2.56a5.735,5.735,0,0,1-4.68,2.6c-3,0-5.48-2.52-6.04-5.8H172.8Zm-15.48-1.92c.64-3.08,2.88-5.36,5.56-5.36s4.92,2.28,5.6,5.36Zm31.36-8.16a4.679,4.679,0,0,0-2.4-.6c-2.36,0-4.88,1.72-5.36,3.56v-2.8H176.8V330h4.12v-9.48c0-4,2-7.64,5.4-7.64a5.946,5.946,0,0,1,2.36.4ZM221.56,330V300H216.8l-13.72,18.8v3.24h14.04V330Zm-12.92-11.64,8.48-12.04v12.04Zm22.92,9.12a2.8,2.8,0,0,0-5.6,0,2.83,2.83,0,0,0,1.48,2.52l-1.48,4.56h1.36l3.76-5.44A2.742,2.742,0,0,0,231.56,327.48Zm11.84-17.92a9.876,9.876,0,0,0-4.48.36v-6.24H249.2V300H234.48v14.76h3.96c.16-.08.32-.2.48-.28a5.66,5.66,0,0,1,3.88-.84,6.533,6.533,0,0,1-1.8,12.92,5.883,5.883,0,0,1-4.12-2.6l-3.32,2.48a10.152,10.152,0,0,0,6.84,4.24,10.672,10.672,0,0,0,3-21.12Zm33,.2a10.283,10.283,0,1,0-20.56,0v10.52a10.283,10.283,0,1,0,20.56,0h.04V309.76Zm-4.12,10.36a6.172,6.172,0,1,1-12.32,0v-10.2a6.17,6.17,0,1,1,12.32,0ZM301,309.76a10.283,10.283,0,1,0-20.56,0v10.52a10.283,10.283,0,1,0,20.56,0h.04V309.76Zm-4.12,10.36a6.172,6.172,0,1,1-12.32,0v-10.2a6.17,6.17,0,1,1,12.32,0Zm34.28,2.6c-1.04-2.8-3.92-3.76-6.48-4.52-1.92-.6-3.72-1.08-4.12-2.2a2.076,2.076,0,0,1,.16-1.64c.68-1.32,3.04-1.36,3.08-1.36a5.533,5.533,0,0,1,4.52,2.08L331,312.4a10.027,10.027,0,0,0-7.2-2.92c-.48,0-4.56.12-6.2,3.2a5.762,5.762,0,0,0-.36,4.52c1.04,2.8,3.88,3.76,6.4,4.52,1.96.56,3.76,1.04,4.24,2.24a2.843,2.843,0,0,1-.04,1.56c-.44,1.04-2.08,1.76-4.04,1.76a5.53,5.53,0,0,1-4.48-2.16l-2.68,2.68a10.242,10.242,0,0,0,7.16,3h.04c3.44,0,6.2-1.52,7.24-3.88A6.171,6.171,0,0,0,331.16,322.72Zm12.72,4.4c-1.96-.88-2.28-2.08-2.28-5.36V313.6h5.16v-3.36H341.6V300h-4.12v10.24h-2.4v3.36h2.4v8.16c0,3.12,0,4.2,1.2,6.2a6.241,6.241,0,0,0,5.72,2.84,4.408,4.408,0,0,0,2.36-.6V327A3.416,3.416,0,0,1,343.88,327.12Zm17.16-14.24c3.4,0,6.16,3.24,6.16,7.28,0,4-2.76,7.28-6.16,7.28s-6.16-3.28-6.16-7.28C354.88,316.12,357.64,312.88,361.04,312.88Zm0-3.4a10.667,10.667,0,1,0,10.28,10.68A10.5,10.5,0,0,0,361.04,309.48Zm26.56.6a4.679,4.679,0,0,0-2.4-.6c-2.36,0-4.88,1.72-5.36,3.56v-2.8h-4.12V330h4.12v-9.48c0-4,2-7.64,5.4-7.64a5.946,5.946,0,0,1,2.36.4Zm21.84,10.08a10.37,10.37,0,0,0-.16-1.92,10.168,10.168,0,0,0-9.76-8.76c-5.48,0-9.92,4.8-9.92,10.68a10.468,10.468,0,0,0,10.32,10.64,10.139,10.139,0,0,0,7.52-3.4l-2.84-2.56a5.735,5.735,0,0,1-4.68,2.6c-3,0-5.48-2.52-6.04-5.8h15.56Zm-15.48-1.92c.64-3.08,2.88-5.36,5.56-5.36s4.92,2.28,5.6,5.36Zm33.2,4.48c-1.04-2.8-3.92-3.76-6.48-4.52-1.92-.6-3.72-1.08-4.12-2.2a2.076,2.076,0,0,1,.16-1.64c.68-1.32,3.04-1.36,3.08-1.36a5.533,5.533,0,0,1,4.52,2.08L427,312.4a10.027,10.027,0,0,0-7.2-2.92c-.48,0-4.56.12-6.2,3.2a5.762,5.762,0,0,0-.36,4.52c1.04,2.8,3.88,3.76,6.4,4.52,1.96.56,3.76,1.04,4.24,2.24a2.843,2.843,0,0,1-.04,1.56c-.44,1.04-2.08,1.76-4.04,1.76a5.53,5.53,0,0,1-4.48-2.16l-2.68,2.68a10.242,10.242,0,0,0,7.16,3h.04c3.44,0,6.2-1.52,7.24-3.88A6.171,6.171,0,0,0,427.16,322.72Zm25.56-13.28a10.16,10.16,0,0,0-7.56,3.4L448,315.4a5.868,5.868,0,0,1,4.72-2.56c3.36,0,3.84,1.72,3.84,2.96v1.72h-5.6c-3.8,0-7.48,2.16-7.48,7.08,0,3.52,2.36,6.16,7.48,6.16a6.424,6.424,0,0,0,5.6-2.52V330h4.12V315.8C460.68,312.88,458.4,309.44,452.72,309.44Zm3.84,14.4c0,1.36-1.24,3.56-5.04,3.56-2.12,0-3.92-.8-3.92-2.64a3.684,3.684,0,0,1,3.92-3.88h5.04Zm28-5.24c0-6.48-2.6-9.56-8.76-9.08-2.36.2-4.88,1.68-5.4,3.52v-2.8h-4.12V330h4.12V318.6c0-4,2-5.76,5.4-5.76s4.64,1.76,4.64,5.76V330h4.12Zm4.8,1.56a10.461,10.461,0,0,0,10.28,10.64,8.764,8.764,0,0,0,5.28-1.88V330h4.16V300h-4.16v11.4a8.752,8.752,0,0,0-5.28-1.92A10.5,10.5,0,0,0,489.36,320.16Zm4.16,0c0-4.04,2.76-7.28,6.12-7.28a5.978,5.978,0,0,1,5.28,3.52,8.394,8.394,0,0,1,.88,3.76,8.1,8.1,0,0,1-.88,3.72,6.019,6.019,0,0,1-5.28,3.56C496.28,327.44,493.52,324.16,493.52,320.16Zm41.6-10.72a10.16,10.16,0,0,0-7.56,3.4l2.84,2.56a5.868,5.868,0,0,1,4.72-2.56c3.36,0,3.84,1.72,3.84,2.96v1.72h-5.6c-3.8,0-7.48,2.16-7.48,7.08,0,3.52,2.36,6.16,7.48,6.16a6.424,6.424,0,0,0,5.6-2.52V330h4.12V315.8C543.08,312.88,540.8,309.44,535.12,309.44Zm3.84,14.4c0,1.36-1.24,3.56-5.04,3.56-2.12,0-3.92-.8-3.92-2.64a3.684,3.684,0,0,1,3.92-3.88h5.04ZM562,322.72c-1.04-2.8-3.92-3.76-6.48-4.52-1.92-.6-3.72-1.08-4.12-2.2a2.076,2.076,0,0,1,.16-1.64c.68-1.32,3.04-1.36,3.08-1.36a5.533,5.533,0,0,1,4.52,2.08l2.68-2.68a10.027,10.027,0,0,0-7.2-2.92c-.48,0-4.56.12-6.2,3.2a5.762,5.762,0,0,0-.36,4.52c1.04,2.8,3.88,3.76,6.4,4.52,1.96.56,3.76,1.04,4.24,2.24a2.842,2.842,0,0,1-.04,1.56c-.44,1.04-2.08,1.76-4.04,1.76a5.53,5.53,0,0,1-4.48-2.16l-2.68,2.68a10.242,10.242,0,0,0,7.16,3h.04c3.44,0,6.2-1.52,7.24-3.88A6.171,6.171,0,0,0,562,322.72Zm26.6-9.84c3.4,0,6.16,3.24,6.16,7.28,0,4-2.76,7.28-6.16,7.28s-6.16-3.28-6.16-7.28C582.44,316.12,585.2,312.88,588.6,312.88Zm0-3.4a10.667,10.667,0,1,0,10.28,10.68A10.5,10.5,0,0,0,588.6,309.48ZM614.56,303v-3.2a4.408,4.408,0,0,0-2.36-.6c-2.36,0-4.44.72-5.72,2.84-1.2,1.96-1.2,3.08-1.2,6.2v2h-2.4v3.36h2.4V330h4.12V313.6h5.16v-3.36H609.4v-2c0-3.28.32-4.48,2.28-5.36A3.416,3.416,0,0,1,614.56,303Zm32.36,14.08a17.622,17.622,0,0,0,2.24-3.84,12.1,12.1,0,0,0,.84-4.4,9.886,9.886,0,0,0-1.96-6.24,9.628,9.628,0,0,0-6.84-3.4,9.46,9.46,0,0,0-5.72,1.68,10.6,10.6,0,0,0-4.36,6.52l4.04.88a6.743,6.743,0,0,1,2.64-3.92,5.042,5.042,0,0,1,3.24-1,5.286,5.286,0,0,1,3.72,1.84,5.729,5.729,0,0,1,1.08,3.64,9.745,9.745,0,0,1-2.24,5.76,55.532,55.532,0,0,1-6.2,6.4,54.806,54.806,0,0,1-6.44,5.32V330h18.32v-3.68H637.64c.92-.72,1.76-1.48,2.6-2.28A57.644,57.644,0,0,0,646.92,317.08Zm28.04-7.32a10.283,10.283,0,1,0-20.56,0v10.52a10.283,10.283,0,1,0,20.56,0H675V309.76Zm-4.12,10.36a6.172,6.172,0,1,1-12.32,0v-10.2a6.17,6.17,0,1,1,12.32,0ZM679,300v3.68h4.48V330h4.44V300Zm23.56,9.56a9.876,9.876,0,0,0-4.48.36v-6.24h10.28V300H693.64v14.76h3.96c.16-.08.32-.2.48-.28a5.66,5.66,0,0,1,3.88-.84,6.533,6.533,0,0,1-1.8,12.92,5.883,5.883,0,0,1-4.12-2.6l-3.32,2.48a10.152,10.152,0,0,0,6.84,4.24,10.672,10.672,0,0,0,3-21.12ZM98.24,370.16a10.37,10.37,0,0,0-.16-1.92,10.168,10.168,0,0,0-9.76-8.76c-5.48,0-9.92,4.8-9.92,10.68A10.468,10.468,0,0,0,88.72,380.8a10.139,10.139,0,0,0,7.52-3.4l-2.84-2.56a5.735,5.735,0,0,1-4.68,2.6c-3,0-5.48-2.52-6.04-5.8H98.24Zm-15.48-1.92c.64-3.08,2.88-5.36,5.56-5.36s4.92,2.28,5.6,5.36ZM135.08,380V368.56c0-6.48-2.6-9.52-8.76-9.04-3.6.24-5.8,2.76-5.88,4.92-1-3.64-3.6-5.32-8.28-4.92-2.36.16-4.88,1.64-5.4,3.48v-2.76h-4.12V380h4.12V368.56c0-4,2-5.76,5.4-5.76s4.6,1.76,4.6,5.76V380h4.16V368.56c0-4,2-5.76,5.4-5.76,3.36,0,4.6,1.76,4.6,5.76V380Zm24.52-9.84a10.529,10.529,0,0,0-10.32-10.68A8.646,8.646,0,0,0,144,361.4v-1.16h-4.12V390.2H144V378.92a8.815,8.815,0,0,0,5.28,1.88A10.494,10.494,0,0,0,159.6,370.16Zm-4.16,0c0,4-2.76,7.28-6.16,7.28a6.065,6.065,0,0,1-5.28-3.56,8.657,8.657,0,0,1,0-7.44,6,6,0,0,1,5.28-3.56C152.68,362.88,155.44,366.12,155.44,370.16Zm13.12-20.92H164.4V380h4.16Zm15.48,13.64c3.4,0,6.16,3.24,6.16,7.28,0,4-2.76,7.28-6.16,7.28s-6.16-3.28-6.16-7.28C177.88,366.12,180.64,362.88,184.04,362.88Zm0-3.4a10.667,10.667,0,1,0,10.28,10.68A10.5,10.5,0,0,0,184.04,359.48Zm31.84.76h-4.16l-5.4,12.96-5.44-12.96h-4.16l7.48,17.68c-1.32,3.16-3.24,10-6.32,9.12a4.588,4.588,0,0,1-1.52-.8l-1.24,3.6a13.4,13.4,0,0,0,1.52.72,5.919,5.919,0,0,0,2.2.48c3.72,0,5.92-4.4,8.72-11.04C210.88,372.08,215.88,360.24,215.88,360.24Zm21.84,9.92a10.37,10.37,0,0,0-.16-1.92,10.168,10.168,0,0,0-9.76-8.76c-5.48,0-9.92,4.8-9.92,10.68A10.468,10.468,0,0,0,228.2,380.8a10.139,10.139,0,0,0,7.52-3.4l-2.84-2.56a5.735,5.735,0,0,1-4.68,2.6c-3,0-5.48-2.52-6.04-5.8h15.56Zm-15.48-1.92c.64-3.08,2.88-5.36,5.56-5.36s4.92,2.28,5.6,5.36Zm18.68,1.92A10.461,10.461,0,0,0,251.2,380.8a8.764,8.764,0,0,0,5.28-1.88V380h4.16V350h-4.16v11.4a8.752,8.752,0,0,0-5.28-1.92A10.5,10.5,0,0,0,240.92,370.16Zm4.16,0c0-4.04,2.76-7.28,6.12-7.28a5.978,5.978,0,0,1,5.28,3.52,8.394,8.394,0,0,1,.88,3.76,8.1,8.1,0,0,1-.88,3.72,6.019,6.019,0,0,1-5.28,3.56C247.84,377.44,245.08,374.16,245.08,370.16Zm41.6-10.72a10.16,10.16,0,0,0-7.56,3.4l2.84,2.56a5.868,5.868,0,0,1,4.72-2.56c3.36,0,3.84,1.72,3.84,2.96v1.72h-5.6c-3.8,0-7.48,2.16-7.48,7.08,0,3.52,2.36,6.16,7.48,6.16a6.424,6.424,0,0,0,5.6-2.52V380h4.12V365.8C294.64,362.88,292.36,359.44,286.68,359.44Zm3.84,14.4c0,1.36-1.24,3.56-5.04,3.56-2.12,0-3.92-.8-3.92-2.64a3.684,3.684,0,0,1,3.92-3.88h5.04Zm21.2-13.76a4.679,4.679,0,0,0-2.4-.6c-2.36,0-4.88,1.72-5.36,3.56v-2.8h-4.12V380h4.12v-9.48c0-4,2-7.64,5.4-7.64a5.946,5.946,0,0,1,2.36.4Zm12.68,2.8c3.4,0,6.16,3.24,6.16,7.28,0,4-2.76,7.28-6.16,7.28s-6.16-3.28-6.16-7.28C318.24,366.12,321,362.88,324.4,362.88Zm0-3.4a10.667,10.667,0,1,0,10.28,10.68A10.5,10.5,0,0,0,324.4,359.48Zm15.08,12.2c0,6.52,2.6,9.56,8.76,9.08,2.36-.2,4.88-1.68,5.36-3.52V380h4.16V360.24H353.6v11.44c0,4-1.96,5.76-5.36,5.76s-4.64-1.76-4.64-5.76V360.24h-4.12Zm42.56-3.08c0-6.48-2.6-9.56-8.76-9.08-2.36.2-4.88,1.68-5.4,3.52v-2.8h-4.12V380h4.12V368.6c0-4,2-5.76,5.4-5.76s4.64,1.76,4.64,5.76V380h4.12Zm4.8,1.56a10.461,10.461,0,0,0,10.28,10.64,8.764,8.764,0,0,0,5.28-1.88V380h4.16V350H402.4v11.4a8.752,8.752,0,0,0-5.28-1.92A10.5,10.5,0,0,0,386.84,370.16Zm4.16,0c0-4.04,2.76-7.28,6.12-7.28a5.978,5.978,0,0,1,5.28,3.52,8.394,8.394,0,0,1,.88,3.76,8.1,8.1,0,0,1-.88,3.72,6.019,6.019,0,0,1-5.28,3.56C393.76,377.44,391,374.16,391,370.16ZM423.76,350v3.68h4.48V380h4.44V350Zm25.04,10.2,7.48-10.2H439.76v3.72H449l-7.28,9.92h3.84a.241.241,0,0,0,.16.04,2.007,2.007,0,0,1,.48.08,6.3,6.3,0,0,1,3.28,1.76,6.48,6.48,0,0,1,1.92,4.6,6.556,6.556,0,0,1-6.52,6.52,6.48,6.48,0,0,1-4.6-1.92l-4,1.72A10.673,10.673,0,1,0,448.8,360.2Zm29.04,6.88a17.621,17.621,0,0,0,2.24-3.84,12.1,12.1,0,0,0,.84-4.4,9.885,9.885,0,0,0-1.96-6.24,9.628,9.628,0,0,0-6.84-3.4,9.46,9.46,0,0,0-5.72,1.68,10.6,10.6,0,0,0-4.36,6.52l4.04.88a6.744,6.744,0,0,1,2.64-3.92,5.042,5.042,0,0,1,3.24-1,5.286,5.286,0,0,1,3.72,1.84,5.729,5.729,0,0,1,1.08,3.64,9.744,9.744,0,0,1-2.24,5.76,55.526,55.526,0,0,1-6.2,6.4,54.8,54.8,0,0,1-6.44,5.32V380H480.2v-3.68H468.56c.92-.72,1.76-1.48,2.6-2.28A57.649,57.649,0,0,0,477.84,367.08Zm12.68,10.4a2.8,2.8,0,0,0-5.6,0A2.83,2.83,0,0,0,486.4,380l-1.48,4.56h1.36l3.76-5.44A2.742,2.742,0,0,0,490.52,377.48Zm22.96-17.72a10.283,10.283,0,1,0-20.56,0v10.52a10.283,10.283,0,1,0,20.56,0h.04V359.76Zm-4.12,10.36a6.172,6.172,0,1,1-12.32,0v-10.2a6.17,6.17,0,1,1,12.32,0Zm28.72-10.36a10.283,10.283,0,1,0-20.56,0v10.52a10.283,10.283,0,1,0,20.56,0h.04V359.76Zm-4.12,10.36a6.172,6.172,0,1,1-12.32,0v-10.2a6.17,6.17,0,1,1,12.32,0Zm28.72-10.36a10.283,10.283,0,1,0-20.56,0v10.52a10.283,10.283,0,1,0,20.56,0h.04V359.76Zm-4.12,10.36a6.172,6.172,0,1,1-12.32,0v-10.2a6.17,6.17,0,1,1,12.32,0Zm39.88.04a10.529,10.529,0,0,0-10.32-10.68,8.646,8.646,0,0,0-5.28,1.92v-1.16h-4.12V390.2h4.12V378.92a8.815,8.815,0,0,0,5.28,1.88A10.494,10.494,0,0,0,598.44,370.16Zm-4.16,0c0,4-2.76,7.28-6.16,7.28a6.065,6.065,0,0,1-5.28-3.56,8.657,8.657,0,0,1,0-7.44,6,6,0,0,1,5.28-3.56C591.52,362.88,594.28,366.12,594.28,370.16Zm27.2,0a10.37,10.37,0,0,0-.16-1.92,10.168,10.168,0,0,0-9.76-8.76c-5.48,0-9.92,4.8-9.92,10.68a10.468,10.468,0,0,0,10.32,10.64,10.139,10.139,0,0,0,7.52-3.4l-2.84-2.56a5.735,5.735,0,0,1-4.68,2.6c-3,0-5.48-2.52-6.04-5.8h15.56ZM606,368.24c.64-3.08,2.88-5.36,5.56-5.36s4.92,2.28,5.6,5.36Zm28.96-5.36c3.4,0,6.16,3.24,6.16,7.28,0,4-2.76,7.28-6.16,7.28s-6.16-3.28-6.16-7.28C628.8,366.12,631.56,362.88,634.96,362.88Zm0-3.4a10.667,10.667,0,1,0,10.28,10.68A10.5,10.5,0,0,0,634.96,359.48Zm34,10.68a10.529,10.529,0,0,0-10.32-10.68,8.646,8.646,0,0,0-5.28,1.92v-1.16h-4.12V390.2h4.12V378.92a8.815,8.815,0,0,0,5.28,1.88A10.494,10.494,0,0,0,668.96,370.16Zm-4.16,0c0,4-2.76,7.28-6.16,7.28a6.065,6.065,0,0,1-5.28-3.56,8.657,8.657,0,0,1,0-7.44,6,6,0,0,1,5.28-3.56C662.04,362.88,664.8,366.12,664.8,370.16Zm13.12-20.92h-4.16V380h4.16Zm24.64,20.92a10.37,10.37,0,0,0-.16-1.92,10.168,10.168,0,0,0-9.76-8.76c-5.48,0-9.92,4.8-9.92,10.68a10.468,10.468,0,0,0,10.32,10.64,10.139,10.139,0,0,0,7.52-3.4l-2.84-2.56a5.735,5.735,0,0,1-4.68,2.6c-3,0-5.48-2.52-6.04-5.8h15.56Zm-15.48-1.92c.64-3.08,2.88-5.36,5.56-5.36s4.92,2.28,5.6,5.36Zm25.12,9.32a2.82,2.82,0,1,0-2.84,2.84A2.784,2.784,0,0,0,712.2,377.56Z" transform="translate(1149.5 638.5)" fill="#faf7ef"/>
  </g>
</svg>
