<svg xmlns="http://www.w3.org/2000/svg" width="140.38" height="157.4" viewBox="0 0 140.38 157.4">
  <g id="Add_to_Cart" data-name="Add to Cart" transform="translate(-889.62 -479)">
    <g id="Group_117" data-name="Group 117" transform="translate(39.108 39.108)">
      <g id="Ellipse_7" data-name="Ellipse 7" transform="translate(859.892 439.892)" fill="none" stroke="#231f20" stroke-width="10">
        <circle cx="61" cy="61" r="61" stroke="none"/>
        <circle cx="61" cy="61" r="56" fill="none"/>
      </g>
      <path id="Path_750" data-name="Path 750" d="M-70.159-20.046V-46.069H-96.182v-8.9h26.023V-80.937h8.9v25.972H-35.29v8.9H-61.261v26.023Z" transform="translate(986.605 551.51)" fill="#141c28"/>
    </g>
    <path id="Path_751" data-name="Path 751" d="M-132.86-15h-1.36l-6.16,15h2.4l1.48-3.92h5.9L-129.1,0h2.4Zm-2.94,9.24,2.26-5.92,2.24,5.92Zm23.94-1.74a7.379,7.379,0,0,0-7.2-7.5h-5.84V0h5.84A7.366,7.366,0,0,0-111.86-7.5Zm-7.24,5.66h-3.58V-13.16h3.58a4.691,4.691,0,0,1,3.52,1.64,5.985,5.985,0,0,1,1.5,4.02,6.037,6.037,0,0,1-1.5,4.04A4.67,4.67,0,0,1-119.1-1.84ZM-96.02-7.5a7.379,7.379,0,0,0-7.2-7.5h-5.84V0h5.84A7.366,7.366,0,0,0-96.02-7.5Zm-7.24,5.66h-3.58V-13.16h3.58a4.691,4.691,0,0,1,3.52,1.64,5.985,5.985,0,0,1,1.5,4.02,6.037,6.037,0,0,1-1.5,4.04A4.67,4.67,0,0,1-103.26-1.84ZM-77.32-15h-11.5v1.84h4.64V0h2.22V-13.16h4.64Zm8.22,1.46a5.061,5.061,0,0,1,3.78,1.74A6.374,6.374,0,0,1-63.7-7.5a6.425,6.425,0,0,1-1.62,4.32A5.061,5.061,0,0,1-69.1-1.44a5.093,5.093,0,0,1-3.78-1.74A6.425,6.425,0,0,1-74.5-7.5a6.374,6.374,0,0,1,1.62-4.3A5.093,5.093,0,0,1-69.1-13.54Zm0-1.84A7.754,7.754,0,0,0-76.72-7.5,7.771,7.771,0,0,0-69.1.4a7.771,7.771,0,0,0,7.62-7.9A7.754,7.754,0,0,0-69.1-15.38ZM-41.98-3.54l-.3.36a5.093,5.093,0,0,1-3.78,1.74,5.061,5.061,0,0,1-3.78-1.74A6.425,6.425,0,0,1-51.46-7.5a6.374,6.374,0,0,1,1.62-4.3,5.061,5.061,0,0,1,3.78-1.74,5.093,5.093,0,0,1,3.78,1.74,2.925,2.925,0,0,1,.32.38l1.46-1.46a7.506,7.506,0,0,0-5.56-2.5A7.753,7.753,0,0,0-53.68-7.5,7.758,7.758,0,0,0-46.06.4a7.484,7.484,0,0,0,5.54-2.48ZM-31.78-15h-1.36L-39.3,0h2.4l1.48-3.92h5.9L-28.02,0h2.4Zm-2.94,9.24,2.26-5.92,2.24,5.92ZM-12.7-9.68A5.263,5.263,0,0,0-18-15h-5.82V0h2.22V-4.36h3.5L-15.16,0h2.46l-3.22-4.76A5.249,5.249,0,0,0-12.7-9.68Zm-8.9-3.48h3.58a3.254,3.254,0,0,1,3.1,3.48,3.242,3.242,0,0,1-3.1,3.48H-21.6ZM0-15H-11.5v1.84h4.64V0h2.22V-13.16H0Z" transform="translate(1030 636)" fill="#141c28"/>
  </g>
</svg>
