<svg xmlns="http://www.w3.org/2000/svg" width="249.418" height="121.862" viewBox="0 0 249.418 121.862">
  <g id="Belts" transform="matrix(0.53, 0.848, -0.848, 0.53, 158.351, -84.365)">
    <path id="Path_138" data-name="Path 138" d="M9.322,7.687a4.36,4.36,0,0,0,1.259-3.07A4.118,4.118,0,0,0,6.561.42H0V16.987H6.561a5.008,5.008,0,0,0,4.926-5.081A5.115,5.115,0,0,0,9.322,7.687ZM2.452,2.452H6.561c.861,0,1.568.994,1.568,2.165,0,1.149-.663,2.143-1.5,2.209H2.452Zm4.109,12.5H2.452v-6.1H6.671a2.851,2.851,0,0,1,2.364,3.048A2.807,2.807,0,0,1,6.561,14.954Zm11.133,0V9.41h7V7.356h-7v-4.9h8.571V.42H15.242V16.987H26.684V14.954Zm14.093,0V.42H29.335V16.987h10.8V14.954ZM51.866.42h-12.7V2.452h5.125V16.987h2.452V2.452h5.125ZM65.009,11.133c-.839-2.231-3.2-2.938-5.3-3.578-1.767-.53-3.026-1.038-3.468-2.253a2.468,2.468,0,0,1,.155-1.855,3.271,3.271,0,0,1,2.717-1.414,5.625,5.625,0,0,1,4.175,1.922,3.23,3.23,0,0,1,.353.42l1.613-1.613A8.254,8.254,0,0,0,59.111,0c-.376,0-3.645.066-4.926,2.5a4.286,4.286,0,0,0-.265,3.49c.773,2.165,3.137,2.894,5.191,3.512,1.811.552,3.093,1.06,3.556,2.341a2.532,2.532,0,0,1-.044,1.723c-.464,1.1-1.59,1.811-3.512,1.833a5.589,5.589,0,0,1-4.175-1.922,1.979,1.979,0,0,1-.331-.42L52.97,14.689a8.351,8.351,0,0,0,6.141,2.739c2.783-.022,5.014-1.193,5.809-3.07A4.5,4.5,0,0,0,65.009,11.133Z" transform="matrix(0.537, -0.843, 0.843, 0.537, 33.954, 104.865)" fill="#fbf8ef"/>
    <g id="belt-and-buckle" transform="translate(0 39.675) rotate(-13)">
      <g id="Group_24" data-name="Group 24" transform="translate(0 0)">
        <path id="Path_132" data-name="Path 132" d="M51.376,1.979A6.6,6.6,0,0,0,42.03,1.9L0,43.951,41.207,85.158l42.05-42.03a6.528,6.528,0,0,0-.02-9.288ZM44.989,48.32a5.736,5.736,0,1,1,0-8.112A5.748,5.748,0,0,1,44.989,48.32Zm15.3-15.284a5.736,5.736,0,1,1,0-8.112A5.747,5.747,0,0,1,60.292,33.037Z" transform="translate(91.184 0)" fill="#fbf8ef"/>
        <path id="Path_133" data-name="Path 133" d="M39.629,1.636A5.324,5.324,0,0,0,31.987,1.6l-.078.078-28.9,28.9c-2.449,2.449-4.428,6.78-1.666,14.559C1.949,46.37,2.517,47.9,3.36,49.447A81.118,81.118,0,0,0,17.292,67.434,81.326,81.326,0,0,0,35.3,81.385a27.14,27.14,0,0,0,4.311,2,24.29,24.29,0,0,0,4.252,1.2c5.153.9,8.426-.823,10.209-2.449L83.364,52.993a5.467,5.467,0,0,0-.157-7.76Zm6.035,68.7c-2.822-.921-9.562-4.389-18.125-12.952-8.5-8.5-12.207-15.421-12.991-18.086L35.769,18.076,46.076,28.383,34.4,40.08a7.177,7.177,0,0,0,10.15,10.15L56.226,38.552l10.62,10.62Z" transform="translate(45.246 46.939)" fill="#fbf8ef"/>
        <path id="Path_134" data-name="Path 134" d="M57.07,24.356A88.56,88.56,0,0,1,41.787,4.507,49.226,49.226,0,0,1,39.67,0L1.932,37.739A6.615,6.615,0,0,0,.168,43.891L6.046,69.874a6.61,6.61,0,0,0,5,5l25.982,5.859a6.588,6.588,0,0,0,6.133-1.783L80.681,41.423c-1.293-.588-2.488-1.117-3.762-1.8A87.864,87.864,0,0,1,57.07,24.356Z" transform="translate(0 95.464)" fill="#fbf8ef"/>
      </g>
    </g>
  </g>
</svg>
