<svg xmlns="http://www.w3.org/2000/svg" width="2104.689" height="751.881" viewBox="0 0 2104.689 751.881">
  <g id="Categories" transform="translate(-1815.5 -358.972)">
    <g id="Cupboard" transform="translate(1790 359.509)">
      <g id="Group_99" data-name="Group 99" transform="translate(48.291 0.077)">
        <g id="Group_86" data-name="Group 86">
          <rect id="Rectangle_35" data-name="Rectangle 35" width="1097.89" height="712.612" transform="translate(17.353 38.069)" fill="#c21620"/>
          <path id="Path_538" data-name="Path 538" d="M1616.077,560.408H465.895l15.969-27.981H1601.435Z" transform="translate(-465.895 -532.427)" fill="#c21620" stroke="#120000" stroke-linecap="round" stroke-linejoin="round" stroke-width="1.228"/>
          <g id="Group_37" data-name="Group 37" transform="translate(0.001 9.039)">
            <path id="Path_539" data-name="Path 539" d="M1616.077,555.3c0,10.472-8.936,18.96-19.966,18.96H485.861c-11.023,0-19.966-8.487-19.966-18.96h0c0-10.444,8.944-18.941,19.966-18.941H1596.11c11.03,0,19.966,8.5,19.966,18.941Z" transform="translate(-465.895 -536.362)" fill="#c21620" stroke="#120000" stroke-linecap="round" stroke-linejoin="round" stroke-width="1.228"/>
            <path id="Path_540" data-name="Path 540" d="M526.959,546.03c18.877,1.525,37.98.616,56.744,2.57,9.067.951,18.128,2.442,27.266,2.747,9.894.345,19.53-1.006,29.367-1.812,31.85-2.63,63.766-2.152,95.687-2.756,32.219-.622,64.246-2.83,96.5-2.575,16.655.147,33.347-.524,49.985-.3,14.973.211,29.527,4.245,44.525,4.1,15.712-.156,31.569-2.23,47.237-.914,14.687,1.249,28.369,1.688,43.034.1,13.372-1.479,25.16-2.306,38.4.574,16.138,3.5,30.527,4.683,46.98,1.844,29.453-5.088,59.081-5.281,89.032-5.7,29.458-.4,58.825-.967,88.286-1.734,22.047-.558,44.165-.443,65.946,2.561,11.416-.106,22.7-2.582,34.194-1.525,13.4,1.229,26.847,2.763,40.34,2.669,14.729-.108,29.345-1.741,44.128-1.727,12.65.018,25.32.756,37.97,1.121,14.924.422,30.034.7,44.867-1.344,11.507-1.613,22.869-3.946,34.382-5.529A181.519,181.519,0,0,1,1600,536.739a19.584,19.584,0,0,0-4.015-.377H484.55A20.014,20.014,0,0,0,466.806,546.8a98.255,98.255,0,0,1,15.345-1.911C497.19,543.958,512,544.822,526.959,546.03Z" transform="translate(-464.713 -536.362)" fill="#c21620" opacity="0.4"/>
            <path id="Path_541" data-name="Path 541" d="M1595.02,548.226c-21.064-.912-40.7,3.85-61.435,6.661-19.457,2.591-36.658,1.086-55.839-2.561-19.3-3.7-37.9-2.7-57.421-2.439-17.927.232-35.243-2.1-53.078-3.312-19.206-1.3-38.417-1.525-57.645-1.44-18.163.087-36.466,1.144-54.506-1.422-10.035-1.417-20.668-3.473-30.806-2.033-8.679,1.229-15.756,5.318-23.623,8.609-25.063,10.5-54.511.721-80.922,4.49-30.6,4.351-62.422,5.157-93.331,4.438-32.044-.749-64-3.158-96.07-3.774-32.012-.593-64,1.652-96.036,1.911-64.243.508-128.7-3.838-192.881-1.534-30.392,1.082-60.866,3.147-91.271,1.573-9.74-.51-19.243-1.277-28.941.191-6.984,1.077-14.078,2.612-21.152,2.8-11.088.308-22.314-3.744-33.24-2.747A20,20,0,0,0,484.511,568h1110.4c11.031,0,19.969-8.487,19.969-18.96a2.663,2.663,0,0,0-.061-.452C1608.3,548.764,1601.7,548.525,1595.02,548.226Z" transform="translate(-464.694 -530.1)" fill="#c21620" opacity="0.5"/>
          </g>
          <g id="Group_46" data-name="Group 46" transform="translate(1150.456 60.637)">
            <path id="Path_542" data-name="Path 542" d="M699.461,558.825v651.964H1140.3l24.547-651.964Z" transform="translate(-234.02 -558.825)" fill="#c21620" stroke="#120000" stroke-linecap="round" stroke-linejoin="round" stroke-width="1.228"/>
            <path id="Path_543" data-name="Path 543" stroke="#120000" d="M703.426,563.5v641.215h424.948L1152.066,563.5Z" fill="#c21620" transform="translate(-228.877 -552.756)" stroke-linecap="round" stroke-linejoin="round" stroke-width="1.228" opacity="0.4"/>
            <g id="Group_41" data-name="Group 41" transform="translate(489.459 24.343)">
              <g id="Group_38" data-name="Group 38">
                <path id="Path_544" data-name="Path 544" d="M709.917,569.423l10.287,6.011L1105.6,1161.49l21.923-592.067Z" transform="translate(-709.917 -569.423)" fill="#c21620" stroke="#120000" stroke-linecap="round" stroke-linejoin="round" stroke-width="1.228"/>
                <path id="Path_545" data-name="Path 545" d="M709.917,569.423v596.212h395.56l.119-2.837L720.2,575.447Z" transform="translate(-709.917 -569.423)" fill="#c21620" stroke="#120000" stroke-linecap="round" stroke-linejoin="round" stroke-width="1.228"/>
              </g>
              <g id="Group_39" data-name="Group 39">
                <path id="Path_546" data-name="Path 546" d="M720.2,1159.068l-10.287,6.567h395.56l22.041-596.212-10.262,6.024Z" transform="translate(-709.917 -569.423)" fill="#c21620" stroke="#120000" stroke-linecap="round" stroke-linejoin="round" stroke-width="1.228"/>
              </g>
              <g id="Group_40" data-name="Group 40" transform="translate(10.287 8.802)">
                <path id="Path_547" data-name="Path 547" d="M1111.447,573.255H714.4v577.814h376.08Z" transform="translate(-714.395 -573.255)" fill="#c21620" stroke="#120000" stroke-linecap="round" stroke-linejoin="round" stroke-width="1.228"/>
              </g>
            </g>
            <path id="Path_548" data-name="Path 548" d="M962.272,558.825v651.964H521.425L496.831,558.825Z" transform="translate(-496.831 -558.825)" fill="#c21620" stroke="#120000" stroke-linecap="round" stroke-linejoin="round" stroke-width="1.228"/>
            <path id="Path_549" data-name="Path 549" stroke="#120000" d="M949.725,563.5v641.215h-424.2L501.877,563.5Z" fill="#c21620" transform="translate(-490.287 -552.756)" stroke-linecap="round" stroke-linejoin="round" stroke-width="1.228" opacity="0.4"/>
            <g id="Group_45" data-name="Group 45" transform="translate(23.789 24.343)">
              <g id="Group_42" data-name="Group 42">
                <path id="Path_550" data-name="Path 550" d="M924.823,569.423l-10.312,6.011L529.141,1161.49,507.187,569.423Z" transform="translate(-507.187 -569.423)" fill="#c21620" stroke="#120000" stroke-linecap="round" stroke-linejoin="round" stroke-width="1.228"/>
                <path id="Path_551" data-name="Path 551" d="M912.426,569.423v596.212H516.853l-.108-2.837L902.115,575.447Z" transform="translate(-494.791 -569.423)" fill="#c21620" stroke="#120000" stroke-linecap="round" stroke-linejoin="round" stroke-width="1.228"/>
              </g>
              <g id="Group_43" data-name="Group 43">
                <path id="Path_552" data-name="Path 552" d="M914.511,1159.068l10.312,6.567H529.249L507.187,569.423l10.3,6.024Z" transform="translate(-507.187 -569.423)" fill="#c21620" stroke="#120000" stroke-linecap="round" stroke-linejoin="round" stroke-width="1.228"/>
              </g>
              <g id="Group_44" data-name="Group 44" transform="translate(10.301 8.802)">
                <path id="Path_553" data-name="Path 553" d="M511.672,573.255H908.695v577.814H532.616Z" transform="translate(-511.672 -573.255)" fill="#c21620" stroke="#120000" stroke-linecap="round" stroke-linejoin="round" stroke-width="1.228"/>
              </g>
            </g>
          </g>
          <path id="Path_554" data-name="Path 554" d="M485.645,558.825h16.779l20.507,651.964H485.645Z" transform="translate(-363.884 -498.188)" fill="#c21620"/>
          <path id="Path_555" data-name="Path 555" d="M940.178,558.825l-9.341,642.48h-35.3l26-642.48Z" transform="translate(167.751 -498.188)" fill="#c21620"/>
          <g id="Group_47" data-name="Group 47" transform="translate(0.223 712.758)">
            <path id="Path_556" data-name="Path 556" d="M1615.854,981.393c0,10.467-8.934,18.95-19.963,18.95H485.857c-11.021,0-19.962-8.483-19.962-18.95h0c0-10.461,8.942-18.946,19.962-18.946H1595.892c11.028,0,19.963,8.485,19.963,18.946Z" transform="translate(-465.895 -962.447)" fill="#c21620" stroke="#120000" stroke-linecap="round" stroke-linejoin="round" stroke-width="1.228"/>
            <path id="Path_557" data-name="Path 557" d="M526.947,972.1c18.873,1.534,37.973.634,56.733,2.575,9.065.958,18.124,2.456,27.26,2.747,9.892.322,19.526-.983,29.361-1.808,31.844-2.63,63.754-2.15,95.668-2.747,32.213-.613,64.234-2.857,96.478-2.589,16.652.136,33.341-.519,49.975-.292,14.97.193,29.521,4.245,44.516,4.093,15.709-.159,31.563-2.226,47.227-.9,14.684,1.266,28.364,1.67,43.026.076,13.369-1.44,25.155-2.283,38.389.574,16.135,3.519,30.521,4.683,46.971,1.845,29.447-5.088,59.07-5.281,89.015-5.685,29.452-.4,58.813-.976,88.268-1.743,22.042-.558,44.156-.446,65.933,2.552,11.414-.094,22.693-2.57,34.188-1.516,13.4,1.229,26.842,2.786,40.332,2.688,14.726-.135,29.339-1.764,44.12-1.727,12.648.039,25.315.749,37.963,1.111,14.921.446,30.029.715,44.858-1.341,11.505-1.615,22.865-3.939,34.375-5.513,6.1-.843,12.163-1.436,18.174-1.67a20.954,20.954,0,0,0-4.014-.381H484.546a20.011,20.011,0,0,0-17.74,10.421,97.92,97.92,0,0,1,15.342-1.9C497.184,970.048,511.994,970.872,526.947,972.1Z" transform="translate(-464.713 -962.447)" fill="#c21620" opacity="0.4"/>
            <path id="Path_558" data-name="Path 558" d="M1594.8,974.3c-21.06-.884-40.7,3.841-61.423,6.643-19.453,2.63-36.651,1.1-55.829-2.552-19.3-3.687-37.888-2.687-57.41-2.421-17.923.214-35.236-2.111-53.068-3.321-19.2-1.3-38.41-1.516-57.634-1.44-18.159.1-36.459,1.153-54.5-1.417-10.033-1.422-20.664-3.459-30.8-2.019-8.677,1.211-15.753,5.281-23.618,8.582-25.058,10.52-54.5.733-80.906,4.5-30.6,4.355-62.41,5.161-93.313,4.449-32.038-.767-63.992-3.145-96.051-3.783-32.006-.59-63.989,1.652-96.017,1.9-64.23.537-128.675-3.822-192.843-1.535-30.387,1.093-60.855,3.168-91.254,1.569-9.738-.476-19.239-1.266-28.935.216-6.982,1.054-14.075,2.612-21.148,2.782-11.086.326-22.31-3.742-33.233-2.729a20.006,20.006,0,0,0,17.687,10.35h1110.18c11.029,0,19.965-8.483,19.965-18.95a2.258,2.258,0,0,0-.061-.457C1608.082,974.838,1601.476,974.587,1594.8,974.3Z" transform="translate(-464.694 -956.179)" fill="#c21620" opacity="0.5"/>
          </g>
          <g id="Group_102" data-name="Group 102" transform="translate(121.456 60.637)">
            <path id="Path_542-2" data-name="Path 542" d="M699.461,558.825v651.964H1140.3l24.547-651.964Z" transform="translate(-234.02 -558.825)" fill="#c21620" stroke="#120000" stroke-linecap="round" stroke-linejoin="round" stroke-width="1.228"/>
            <path id="Path_543-2" data-name="Path 543" stroke="#120000" d="M703.426,563.5v641.215h424.948L1152.066,563.5Z" fill="#c21620" transform="translate(-228.877 -552.756)" stroke-linecap="round" stroke-linejoin="round" stroke-width="1.228" opacity="0.4"/>
            <path id="Path_548-2" data-name="Path 548" d="M962.272,558.825v651.964H521.425L496.831,558.825Z" transform="translate(-496.831 -558.825)" fill="#c21620" stroke="#120000" stroke-linecap="round" stroke-linejoin="round" stroke-width="1.228"/>
            <path id="Path_549-2" data-name="Path 549" stroke="#120000" d="M949.725,563.5v641.215h-424.2L501.877,563.5Z" fill="#c21620" transform="translate(-490.287 -552.756)" stroke-linecap="round" stroke-linejoin="round" stroke-width="1.228" opacity="0.4"/>
          </g>
        </g>
        <g id="Group_92" data-name="Group 92" transform="translate(1681.442 313.986)">
          <path id="Path_685" data-name="Path 685" d="M754.712,766.974c5.51-2.476,9.234-7.033,9.234-12.323,0-.521-.142-1.011-.191-1.516.048-.521.191-1.05.191-1.576a13.225,13.225,0,0,0-3.744-8.949c-.361-7.1-6.756-12.787-14.662-12.787s-14.317,5.685-14.671,12.787a13.141,13.141,0,0,0-3.744,8.949,9.942,9.942,0,0,0,.2,1.576,9.057,9.057,0,0,0-.2,1.516c0,5.29,3.723,9.847,9.206,12.323v56.963a5.951,5.951,0,0,0,.345,1.87,46.193,46.193,0,0,0-9.551,16.807,9.785,9.785,0,0,0,.2,1.573,9.272,9.272,0,0,0-.2,1.509c0,7.909,8.237,14.333,18.415,14.333,10.155,0,18.406-6.425,18.406-14.333,0-.508-.142-1-.191-1.509.048-.524.191-1.036.191-1.573a47.03,47.03,0,0,0-9.54-16.807,6.176,6.176,0,0,0,.306-1.87Z" transform="translate(-727.125 -729.602)" fill="#c21620" opacity="0.4"/>
          <g id="Group_91" data-name="Group 91" transform="translate(4.341 0)">
            <g id="Group_87" data-name="Group 87" transform="translate(2.828 89.284)">
              <path id="Path_686" data-name="Path 686" d="M752.74,781.432c0,7.084-5.04,12.833-11.248,12.833s-11.246-5.749-11.246-12.833c0-7.1,5.04-12.836,11.246-12.836S752.74,774.329,752.74,781.432Z" transform="translate(-730.246 -768.596)" fill="#c21620" stroke="#4a2300" stroke-linecap="round" stroke-linejoin="round" stroke-width="1.228"/>
            </g>
            <g id="Group_88" data-name="Group 88" transform="translate(2.828)">
              <path id="Path_687" data-name="Path 687" d="M752.74,742.562c0,7.1-5.04,12.854-11.248,12.854s-11.246-5.752-11.246-12.854c0-7.084,5.04-12.836,11.246-12.836S752.74,735.478,752.74,742.562Z" transform="translate(-730.246 -729.726)" fill="#c21620" stroke="#4a2300" stroke-linecap="round" stroke-linejoin="round" stroke-width="1.228"/>
            </g>
            <path id="Path_688" data-name="Path 688" d="M746.133,806.517a7.089,7.089,0,0,1-7.022,7.151h0a7.072,7.072,0,0,1-7.029-7.151V747.135a7.068,7.068,0,0,1,7.029-7.141h0a7.086,7.086,0,0,1,7.022,7.141Z" transform="translate(-725.037 -716.408)" fill="#c21620" stroke="#4a2300" stroke-linecap="round" stroke-linejoin="round" stroke-width="1.228"/>
            <path id="Path_689" data-name="Path 689" d="M739.111,739.994a7.068,7.068,0,0,0-7.029,7.141v59.382a7.026,7.026,0,1,0,14.051,0V747.135A7.086,7.086,0,0,0,739.111,739.994Zm3.455,59.019c0,2.938-1.56,5.347-3.455,5.347-1.913,0-3.468-2.409-3.468-5.347V754.656c0-2.966,1.555-5.347,3.468-5.347,1.9,0,3.455,2.382,3.455,5.347Z" transform="translate(-725.037 -716.408)" fill="#c21620"/>
            <g id="Group_89" data-name="Group 89" transform="translate(0 93.72)">
              <path id="Path_690" data-name="Path 690" d="M757.149,784.821a14.069,14.069,0,1,1-14.06-14.294A14.184,14.184,0,0,1,757.149,784.821Z" transform="translate(-729.015 -770.527)" fill="#c21620" stroke="#0b0000" stroke-linecap="round" stroke-linejoin="round" stroke-width="1.228"/>
              <path id="Path_691" data-name="Path 691" d="M757.149,785.788a14.071,14.071,0,1,1-14.06-13.72A13.883,13.883,0,0,1,757.149,785.788Z" transform="translate(-729.015 -768.528)" fill="#c21620" stroke="#4a2300" stroke-linecap="round" stroke-linejoin="round" stroke-width="1.228"/>
              <path id="Path_692" data-name="Path 692" d="M743.089,772.068a13.708,13.708,0,1,0,14.06,13.72A13.905,13.905,0,0,0,743.089,772.068ZM741.7,795.4a9.618,9.618,0,1,1,9.865-9.61A9.739,9.739,0,0,1,741.7,795.4Z" transform="translate(-729.015 -768.528)" fill="#c21620"/>
              <path id="Path_693" data-name="Path 693" d="M739.329,778.5a3.708,3.708,0,1,1-3.726-3.774A3.743,3.743,0,0,1,739.329,778.5Z" transform="translate(-725.255 -765.081)" fill="#c21620" opacity="0.5"/>
              <path id="Path_694" data-name="Path 694" d="M733.58,779.033a1.238,1.238,0,1,1-2.476,0,1.239,1.239,0,1,1,2.476,0Z" transform="translate(-726.306 -761.148)" fill="#c21620" opacity="0.5"/>
            </g>
            <path id="Path_695" data-name="Path 695" d="M734.944,795.324a.5.5,0,0,1-.48.5h0a.48.48,0,0,1-.459-.5V745.444a.481.481,0,0,1,.459-.489h0a.5.5,0,0,1,.48.489Z" transform="translate(-722.544 -709.974)" fill="#c21620" opacity="0.5"/>
            <g id="Group_90" data-name="Group 90" transform="translate(0 6.519)">
              <path id="Path_696" data-name="Path 696" d="M757.149,746.858a14.069,14.069,0,1,1-14.06-14.294A14.182,14.182,0,0,1,757.149,746.858Z" transform="translate(-729.015 -732.564)" fill="#c21620" stroke="#0b0000" stroke-linecap="round" stroke-linejoin="round" stroke-width="1.228"/>
              <path id="Path_697" data-name="Path 697" d="M757.149,747.823a14.071,14.071,0,1,1-14.06-13.715A13.91,13.91,0,0,1,757.149,747.823Z" transform="translate(-729.015 -730.563)" fill="#c21620" stroke="#4a2300" stroke-linecap="round" stroke-linejoin="round" stroke-width="1.228"/>
              <path id="Path_698" data-name="Path 698" d="M743.089,734.107a13.722,13.722,0,1,0,14.06,13.715A13.919,13.919,0,0,0,743.089,734.107ZM741.7,757.449a9.63,9.63,0,1,1,9.865-9.627A9.744,9.744,0,0,1,741.7,757.449Z" transform="translate(-729.015 -730.563)" fill="#c21620"/>
              <path id="Path_699" data-name="Path 699" d="M739.329,740.533a3.708,3.708,0,1,1-3.726-3.767A3.738,3.738,0,0,1,739.329,740.533Z" transform="translate(-725.255 -727.114)" fill="#c21620" opacity="0.5"/>
              <path id="Path_700" data-name="Path 700" d="M733.58,741.081a1.239,1.239,0,1,1-1.236-1.286A1.242,1.242,0,0,1,733.58,741.081Z" transform="translate(-726.306 -723.185)" fill="#c21620" opacity="0.5"/>
            </g>
          </g>
        </g>
        <g id="Group_98" data-name="Group 98" transform="translate(1513.099 313.986)">
          <path id="Path_701" data-name="Path 701" d="M681.454,766.974c5.472-2.476,9.209-7.033,9.209-12.323a10.746,10.746,0,0,0-.207-1.516,11.841,11.841,0,0,0,.207-1.576,13.218,13.218,0,0,0-3.737-8.949c-.342-7.1-6.785-12.787-14.685-12.787s-14.294,5.685-14.659,12.787a13.194,13.194,0,0,0-3.744,8.949c0,.526.147,1.055.193,1.576-.046.505-.193.995-.193,1.516,0,5.29,3.735,9.847,9.2,12.323v56.963a5.648,5.648,0,0,0,.349,1.87,46.857,46.857,0,0,0-9.544,16.807c0,.537.147,1.05.193,1.573-.046.512-.193,1-.193,1.509,0,7.909,8.249,14.333,18.4,14.333s18.422-6.425,18.422-14.333a11.079,11.079,0,0,0-.207-1.509,11.621,11.621,0,0,0,.207-1.573,46.972,46.972,0,0,0-9.533-16.807,6.822,6.822,0,0,0,.324-1.87Z" transform="translate(-653.837 -729.602)" fill="#c21620" opacity="0.4"/>
          <g id="Group_97" data-name="Group 97" transform="translate(4.351 0)">
            <g id="Group_93" data-name="Group 93" transform="translate(2.812 89.284)">
              <path id="Path_702" data-name="Path 702" d="M679.447,781.432c0,7.084-5.023,12.833-11.23,12.833-6.222,0-11.262-5.749-11.262-12.833,0-7.1,5.039-12.836,11.262-12.836C674.424,768.6,679.447,774.329,679.447,781.432Z" transform="translate(-656.955 -768.596)" fill="#c21620" stroke="#4a2300" stroke-linecap="round" stroke-linejoin="round" stroke-width="1.228"/>
            </g>
            <g id="Group_94" data-name="Group 94" transform="translate(2.812)">
              <path id="Path_703" data-name="Path 703" d="M679.447,742.562c0,7.1-5.023,12.854-11.23,12.854-6.222,0-11.262-5.752-11.262-12.854,0-7.084,5.039-12.836,11.262-12.836C674.424,729.726,679.447,735.478,679.447,742.562Z" transform="translate(-656.955 -729.726)" fill="#c21620" stroke="#4a2300" stroke-linecap="round" stroke-linejoin="round" stroke-width="1.228"/>
            </g>
            <path id="Path_704" data-name="Path 704" d="M672.858,806.517a7.1,7.1,0,0,1-7.024,7.151h0a7.1,7.1,0,0,1-7.04-7.151V747.135a7.093,7.093,0,0,1,7.04-7.141h0a7.1,7.1,0,0,1,7.024,7.141Z" transform="translate(-651.76 -716.408)" fill="#c21620" stroke="#4a2300" stroke-linecap="round" stroke-linejoin="round" stroke-width="1.228"/>
            <path id="Path_705" data-name="Path 705" d="M665.833,739.994a7.093,7.093,0,0,0-7.04,7.141v59.382a7.033,7.033,0,1,0,14.065,0V747.135A7.1,7.1,0,0,0,665.833,739.994Zm3.45,59.019c0,2.938-1.553,5.347-3.45,5.347-1.922,0-3.466-2.409-3.466-5.347V754.656c0-2.966,1.544-5.347,3.466-5.347,1.9,0,3.45,2.382,3.45,5.347Z" transform="translate(-651.76 -716.408)" fill="#c21620"/>
            <g id="Group_95" data-name="Group 95" transform="translate(0 93.72)">
              <path id="Path_706" data-name="Path 706" d="M683.835,784.821a14.054,14.054,0,1,1-14.03-14.294A14.163,14.163,0,0,1,683.835,784.821Z" transform="translate(-655.731 -770.527)" fill="#c21620" stroke="#0b0000" stroke-linecap="round" stroke-linejoin="round" stroke-width="1.228"/>
              <path id="Path_707" data-name="Path 707" d="M683.835,785.788a14.056,14.056,0,1,1-14.03-13.72A13.861,13.861,0,0,1,683.835,785.788Z" transform="translate(-655.731 -768.528)" fill="#c21620" stroke="#4a2300" stroke-linecap="round" stroke-linejoin="round" stroke-width="1.228"/>
              <path id="Path_708" data-name="Path 708" d="M669.8,772.068a13.708,13.708,0,1,0,14.03,13.72A13.892,13.892,0,0,0,669.8,772.068ZM668.4,795.4a9.619,9.619,0,1,1,9.889-9.61A9.738,9.738,0,0,1,668.4,795.4Z" transform="translate(-655.731 -768.528)" fill="#c21620"/>
              <path id="Path_709" data-name="Path 709" d="M666.043,778.5a3.707,3.707,0,1,1-3.707-3.774A3.726,3.726,0,0,1,666.043,778.5Z" transform="translate(-651.97 -765.081)" fill="#c21620" opacity="0.5"/>
              <path id="Path_710" data-name="Path 710" d="M660.317,779.033a1.274,1.274,0,0,1-1.256,1.268,1.272,1.272,0,0,1,0-2.543A1.278,1.278,0,0,1,660.317,779.033Z" transform="translate(-653.022 -761.148)" fill="#c21620" opacity="0.5"/>
            </g>
            <path id="Path_711" data-name="Path 711" d="M661.667,795.324a.506.506,0,0,1-.48.5h0a.485.485,0,0,1-.471-.5V745.444a.486.486,0,0,1,.471-.489h0a.507.507,0,0,1,.48.489Z" transform="translate(-649.265 -709.974)" fill="#c21620" opacity="0.5"/>
            <g id="Group_96" data-name="Group 96" transform="translate(0 6.519)">
              <path id="Path_712" data-name="Path 712" d="M683.835,746.858a14.054,14.054,0,1,1-14.03-14.294A14.161,14.161,0,0,1,683.835,746.858Z" transform="translate(-655.731 -732.564)" fill="#c21620" stroke="#0b0000" stroke-linecap="round" stroke-linejoin="round" stroke-width="1.228"/>
              <path id="Path_713" data-name="Path 713" d="M683.835,747.823a14.056,14.056,0,1,1-14.03-13.715A13.888,13.888,0,0,1,683.835,747.823Z" transform="translate(-655.731 -730.563)" fill="#c21620" stroke="#4a2300" stroke-linecap="round" stroke-linejoin="round" stroke-width="1.228"/>
              <path id="Path_714" data-name="Path 714" d="M669.8,734.107a13.721,13.721,0,1,0,14.03,13.715A13.906,13.906,0,0,0,669.8,734.107ZM668.4,757.449a9.63,9.63,0,1,1,9.889-9.627A9.743,9.743,0,0,1,668.4,757.449Z" transform="translate(-655.731 -730.563)" fill="#c21620"/>
              <path id="Path_715" data-name="Path 715" d="M666.043,740.533a3.707,3.707,0,1,1-3.707-3.767A3.721,3.721,0,0,1,666.043,740.533Z" transform="translate(-651.97 -727.114)" fill="#c21620" opacity="0.5"/>
              <path id="Path_716" data-name="Path 716" d="M660.317,741.081a1.279,1.279,0,0,1-1.256,1.275,1.281,1.281,0,0,1,0-2.561A1.275,1.275,0,0,1,660.317,741.081Z" transform="translate(-653.022 -723.185)" fill="#c21620" opacity="0.5"/>
            </g>
          </g>
        </g>
      </g>
    </g>
    <g id="Pull_Tab" data-name="Pull Tab" transform="translate(1790 359.509)">
      <rect id="Rectangle_40" data-name="Rectangle 40" width="46" height="108" rx="6" transform="translate(25.5 321.077)" fill="#c51116"/>
      <line id="Line_7" data-name="Line 7" y2="86.214" transform="translate(34 331.97)" fill="none" stroke="#fcf9ef" stroke-linecap="round" stroke-width="3" opacity="0.996"/>
      <line id="Line_8" data-name="Line 8" y2="86.214" transform="translate(46.732 331.97)" fill="none" stroke="#fcf9ef" stroke-linecap="round" stroke-width="3" opacity="0.996"/>
      <line id="Line_9" data-name="Line 9" y2="86.214" transform="translate(59.464 331.97)" fill="none" stroke="#fcf9ef" stroke-linecap="round" stroke-width="3" opacity="0.996"/>
    </g>
    <path id="Categories_Text" data-name="Categories Text" d="M23.023,4.827l-.9,1.082a15.308,15.308,0,0,1-11.361,5.23A15.211,15.211,0,0,1-.6,5.909,19.31,19.31,0,0,1-5.47-7.075,19.157,19.157,0,0,1-.6-20,15.211,15.211,0,0,1,10.76-25.23,15.308,15.308,0,0,1,22.122-20a8.79,8.79,0,0,1,.962,1.142l4.388-4.388A22.562,22.562,0,0,0,10.76-30.76c-12.684,0-22.9,10.64-22.9,23.685,0,13.1,10.219,23.745,22.9,23.745A22.5,22.5,0,0,0,27.412,9.215ZM9.708,30.5H5.621L-12.894,75.581h7.214L-1.232,63.8H16.5L21.01,75.581h7.214ZM.872,58.268,7.664,40.475,14.4,58.268ZM25.248,90.609H-9.318v5.53H4.629v39.555H11.3V96.14H25.248ZM.27,190.277V175.189H19.326V169.6H.27V156.253H23.594v-5.53h-30v45.085H24.737v-5.53Zm11.361,40.4v5.53H23.114a19.136,19.136,0,0,1-4.689,10.159,15.211,15.211,0,0,1-11.361,5.23A15.308,15.308,0,0,1-4.3,246.363a19.259,19.259,0,0,1-4.809-12.985A19.106,19.106,0,0,1-4.3,220.454a15.308,15.308,0,0,1,11.361-5.23,15.211,15.211,0,0,1,11.361,5.23c.361.361.661.781.962,1.142l4.388-4.388a22.366,22.366,0,0,0-16.712-7.514c-12.624,0-22.9,10.64-22.9,23.685,0,13.1,10.279,23.745,22.9,23.745a22.673,22.673,0,0,0,16.231-6.973v5.771h6.673V230.674ZM7.664,275.338a15.211,15.211,0,0,1,11.361,5.23A19.157,19.157,0,0,1,23.9,293.492a19.31,19.31,0,0,1-4.869,12.984,15.211,15.211,0,0,1-11.361,5.23A15.308,15.308,0,0,1-3.7,306.477a19.31,19.31,0,0,1-4.869-12.984A19.157,19.157,0,0,1-3.7,280.568,15.308,15.308,0,0,1,7.664,275.338Zm0-5.53c-12.624,0-22.9,10.58-22.9,23.685s10.279,23.745,22.9,23.745,22.9-10.64,22.9-23.745S20.288,269.808,7.664,269.808Zm17.613,77.246a15.819,15.819,0,0,0-15.93-15.99H-8.145v45.085h6.673v-13.1H9.047l8.837,13.1h7.394L15.6,361.841A15.777,15.777,0,0,0,25.278,347.053Zm-26.751-10.46H9.287c5.11,0,9.318,4.388,9.318,10.46,0,6.132-4.208,10.46-9.318,10.46H-1.473ZM10.7,391.177H4.028v45.085H10.7ZM.27,490.845V475.756H19.326v-5.591H.27V456.821H23.594v-5.53h-30v45.085H24.737v-5.53Zm23.114,49.714c-2.284-6.071-8.716-8-14.427-9.738C4.148,529.378.721,528-.481,524.689a6.717,6.717,0,0,1,.421-5.049c2.044-3.847,7.334-3.847,7.394-3.847a15.308,15.308,0,0,1,11.361,5.23,8.794,8.794,0,0,1,.962,1.142l4.388-4.388a22.464,22.464,0,0,0-16.712-7.514c-1.022,0-9.919.18-13.405,6.793a11.664,11.664,0,0,0-.721,9.5c2.1,5.891,8.536,7.875,14.127,9.558,4.929,1.5,8.416,2.885,9.678,6.372a6.89,6.89,0,0,1-.12,4.689c-1.262,3.006-4.328,4.929-9.558,4.989a15.211,15.211,0,0,1-11.361-5.23,5.388,5.388,0,0,1-.9-1.142l-4.448,4.448a22.727,22.727,0,0,0,16.712,7.454c7.574-.06,13.646-3.246,15.81-8.356A12.238,12.238,0,0,0,23.384,540.559Z" transform="translate(1900.759 471.018)" fill="#fbf8ef"/>
  </g>
</svg>
