<svg xmlns="http://www.w3.org/2000/svg" xmlns:xlink="http://www.w3.org/1999/xlink" width="2104.689" height="751.881" viewBox="0 0 2104.689 751.881">
  <defs>
    <linearGradient id="linear-gradient" x1="0.5" y1="1.442" x2="0.5" y2="0.21" gradientUnits="objectBoundingBox">
      <stop offset="0.337" stop-color="#f1f2f2"/>
      <stop offset="1" stop-color="#d1d3d4"/>
    </linearGradient>
  </defs>
  <g id="Categories" class="click" transform="translate(-1815.5 -358.972)">
    <g id="Cupboard" transform="translate(1790 359.509)">
      <g id="Group_99" data-name="Group 99" transform="translate(48.291 0.077)">
        <g id="Group_86" data-name="Group 86">
          <rect id="Rectangle_35" data-name="Rectangle 35" width="1097.89" height="712.612" transform="translate(17.353 38.069)" fill="#c21620"/>
          <path id="Path_538" data-name="Path 538" d="M1616.077,560.408H465.895l15.969-27.981H1601.435Z" transform="translate(-465.895 -532.427)" fill="#c21620" stroke="#120000" stroke-linecap="round" stroke-linejoin="round" stroke-width="1.228"/>
          <g id="Group_37" data-name="Group 37" transform="translate(0.001 9.039)">
            <path id="Path_539" data-name="Path 539" d="M1616.077,555.3c0,10.472-8.936,18.96-19.966,18.96H485.861c-11.023,0-19.966-8.487-19.966-18.96h0c0-10.444,8.944-18.941,19.966-18.941H1596.11c11.03,0,19.966,8.5,19.966,18.941Z" transform="translate(-465.895 -536.362)" fill="#c21620" stroke="#120000" stroke-linecap="round" stroke-linejoin="round" stroke-width="1.228"/>
            <path id="Path_540" data-name="Path 540" d="M526.959,546.03c18.877,1.525,37.98.616,56.744,2.57,9.067.951,18.128,2.442,27.266,2.747,9.894.345,19.53-1.006,29.367-1.812,31.85-2.63,63.766-2.152,95.687-2.756,32.219-.622,64.246-2.83,96.5-2.575,16.655.147,33.347-.524,49.985-.3,14.973.211,29.527,4.245,44.525,4.1,15.712-.156,31.569-2.23,47.237-.914,14.687,1.249,28.369,1.688,43.034.1,13.372-1.479,25.16-2.306,38.4.574,16.138,3.5,30.527,4.683,46.98,1.844,29.453-5.088,59.081-5.281,89.032-5.7,29.458-.4,58.825-.967,88.286-1.734,22.047-.558,44.165-.443,65.946,2.561,11.416-.106,22.7-2.582,34.194-1.525,13.4,1.229,26.847,2.763,40.34,2.669,14.729-.108,29.345-1.741,44.128-1.727,12.65.018,25.32.756,37.97,1.121,14.924.422,30.034.7,44.867-1.344,11.507-1.613,22.869-3.946,34.382-5.529A181.519,181.519,0,0,1,1600,536.739a19.584,19.584,0,0,0-4.015-.377H484.55A20.014,20.014,0,0,0,466.806,546.8a98.255,98.255,0,0,1,15.345-1.911C497.19,543.958,512,544.822,526.959,546.03Z" transform="translate(-464.713 -536.362)" fill="#c21620" opacity="0.4"/>
            <path id="Path_541" data-name="Path 541" d="M1595.02,548.226c-21.064-.912-40.7,3.85-61.435,6.661-19.457,2.591-36.658,1.086-55.839-2.561-19.3-3.7-37.9-2.7-57.421-2.439-17.927.232-35.243-2.1-53.078-3.312-19.206-1.3-38.417-1.525-57.645-1.44-18.163.087-36.466,1.144-54.506-1.422-10.035-1.417-20.668-3.473-30.806-2.033-8.679,1.229-15.756,5.318-23.623,8.609-25.063,10.5-54.511.721-80.922,4.49-30.6,4.351-62.422,5.157-93.331,4.438-32.044-.749-64-3.158-96.07-3.774-32.012-.593-64,1.652-96.036,1.911-64.243.508-128.7-3.838-192.881-1.534-30.392,1.082-60.866,3.147-91.271,1.573-9.74-.51-19.243-1.277-28.941.191-6.984,1.077-14.078,2.612-21.152,2.8-11.088.308-22.314-3.744-33.24-2.747A20,20,0,0,0,484.511,568h1110.4c11.031,0,19.969-8.487,19.969-18.96a2.663,2.663,0,0,0-.061-.452C1608.3,548.764,1601.7,548.525,1595.02,548.226Z" transform="translate(-464.694 -530.1)" fill="#c21620" opacity="0.5"/>
          </g>
          <g id="Group_46" data-name="Group 46" transform="translate(1150.456 60.637)">
            <path id="Path_542" data-name="Path 542" d="M699.461,558.825v651.964H1140.3l24.547-651.964Z" transform="translate(-234.02 -558.825)" fill="#c21620" stroke="#120000" stroke-linecap="round" stroke-linejoin="round" stroke-width="1.228"/>
            <path id="Path_543" data-name="Path 543" stroke="#120000" d="M703.426,563.5v641.215h424.948L1152.066,563.5Z" fill="#c21620" transform="translate(-228.877 -552.756)" stroke-linecap="round" stroke-linejoin="round" stroke-width="1.228" opacity="0.4"/>
            <g id="Group_41" data-name="Group 41" transform="translate(489.459 24.343)">
              <g id="Group_38" data-name="Group 38">
                <path id="Path_544" data-name="Path 544" d="M709.917,569.423l10.287,6.011L1105.6,1161.49l21.923-592.067Z" transform="translate(-709.917 -569.423)" fill="#c21620" stroke="#120000" stroke-linecap="round" stroke-linejoin="round" stroke-width="1.228"/>
                <path id="Path_545" data-name="Path 545" d="M709.917,569.423v596.212h395.56l.119-2.837L720.2,575.447Z" transform="translate(-709.917 -569.423)" fill="#c21620" stroke="#120000" stroke-linecap="round" stroke-linejoin="round" stroke-width="1.228"/>
              </g>
              <g id="Group_39" data-name="Group 39">
                <path id="Path_546" data-name="Path 546" d="M720.2,1159.068l-10.287,6.567h395.56l22.041-596.212-10.262,6.024Z" transform="translate(-709.917 -569.423)" fill="#c21620" stroke="#120000" stroke-linecap="round" stroke-linejoin="round" stroke-width="1.228"/>
              </g>
              <g id="Group_40" data-name="Group 40" transform="translate(10.287 8.802)">
                <path id="Path_547" data-name="Path 547" d="M1111.447,573.255H714.4v577.814h376.08Z" transform="translate(-714.395 -573.255)" fill="#c21620" stroke="#120000" stroke-linecap="round" stroke-linejoin="round" stroke-width="1.228"/>
              </g>
            </g>
            <path id="Path_548" data-name="Path 548" d="M962.272,558.825v651.964H521.425L496.831,558.825Z" transform="translate(-496.831 -558.825)" fill="#c21620" stroke="#120000" stroke-linecap="round" stroke-linejoin="round" stroke-width="1.228"/>
            <path id="Path_549" data-name="Path 549" stroke="#120000" d="M949.725,563.5v641.215h-424.2L501.877,563.5Z" fill="#c21620" transform="translate(-490.287 -552.756)" stroke-linecap="round" stroke-linejoin="round" stroke-width="1.228" opacity="0.4"/>
            <g id="Group_45" data-name="Group 45" transform="translate(23.789 24.343)">
              <g id="Group_42" data-name="Group 42">
                <path id="Path_550" data-name="Path 550" d="M924.823,569.423l-10.312,6.011L529.141,1161.49,507.187,569.423Z" transform="translate(-507.187 -569.423)" fill="#c21620" stroke="#120000" stroke-linecap="round" stroke-linejoin="round" stroke-width="1.228"/>
                <path id="Path_551" data-name="Path 551" d="M912.426,569.423v596.212H516.853l-.108-2.837L902.115,575.447Z" transform="translate(-494.791 -569.423)" fill="#c21620" stroke="#120000" stroke-linecap="round" stroke-linejoin="round" stroke-width="1.228"/>
              </g>
              <g id="Group_43" data-name="Group 43">
                <path id="Path_552" data-name="Path 552" d="M914.511,1159.068l10.312,6.567H529.249L507.187,569.423l10.3,6.024Z" transform="translate(-507.187 -569.423)" fill="#c21620" stroke="#120000" stroke-linecap="round" stroke-linejoin="round" stroke-width="1.228"/>
              </g>
              <g id="Group_44" data-name="Group 44" transform="translate(10.301 8.802)">
                <path id="Path_553" data-name="Path 553" d="M511.672,573.255H908.695v577.814H532.616Z" transform="translate(-511.672 -573.255)" fill="#c21620" stroke="#120000" stroke-linecap="round" stroke-linejoin="round" stroke-width="1.228"/>
              </g>
            </g>
          </g>
          <path id="Path_554" data-name="Path 554" d="M485.645,558.825h16.779l20.507,651.964H485.645Z" transform="translate(-363.884 -498.188)" fill="#c21620"/>
          <path id="Path_555" data-name="Path 555" d="M940.178,558.825l-9.341,642.48h-35.3l26-642.48Z" transform="translate(167.751 -498.188)" fill="#c21620"/>
          <g id="Group_47" data-name="Group 47" transform="translate(0.223 712.758)">
            <path id="Path_556" data-name="Path 556" d="M1615.854,981.393c0,10.467-8.934,18.95-19.963,18.95H485.857c-11.021,0-19.962-8.483-19.962-18.95h0c0-10.461,8.942-18.946,19.962-18.946H1595.892c11.028,0,19.963,8.485,19.963,18.946Z" transform="translate(-465.895 -962.447)" fill="#c21620" stroke="#120000" stroke-linecap="round" stroke-linejoin="round" stroke-width="1.228"/>
            <path id="Path_557" data-name="Path 557" d="M526.947,972.1c18.873,1.534,37.973.634,56.733,2.575,9.065.958,18.124,2.456,27.26,2.747,9.892.322,19.526-.983,29.361-1.808,31.844-2.63,63.754-2.15,95.668-2.747,32.213-.613,64.234-2.857,96.478-2.589,16.652.136,33.341-.519,49.975-.292,14.97.193,29.521,4.245,44.516,4.093,15.709-.159,31.563-2.226,47.227-.9,14.684,1.266,28.364,1.67,43.026.076,13.369-1.44,25.155-2.283,38.389.574,16.135,3.519,30.521,4.683,46.971,1.845,29.447-5.088,59.07-5.281,89.015-5.685,29.452-.4,58.813-.976,88.268-1.743,22.042-.558,44.156-.446,65.933,2.552,11.414-.094,22.693-2.57,34.188-1.516,13.4,1.229,26.842,2.786,40.332,2.688,14.726-.135,29.339-1.764,44.12-1.727,12.648.039,25.315.749,37.963,1.111,14.921.446,30.029.715,44.858-1.341,11.505-1.615,22.865-3.939,34.375-5.513,6.1-.843,12.163-1.436,18.174-1.67a20.954,20.954,0,0,0-4.014-.381H484.546a20.011,20.011,0,0,0-17.74,10.421,97.92,97.92,0,0,1,15.342-1.9C497.184,970.048,511.994,970.872,526.947,972.1Z" transform="translate(-464.713 -962.447)" fill="#c21620" opacity="0.4"/>
            <path id="Path_558" data-name="Path 558" d="M1594.8,974.3c-21.06-.884-40.7,3.841-61.423,6.643-19.453,2.63-36.651,1.1-55.829-2.552-19.3-3.687-37.888-2.687-57.41-2.421-17.923.214-35.236-2.111-53.068-3.321-19.2-1.3-38.41-1.516-57.634-1.44-18.159.1-36.459,1.153-54.5-1.417-10.033-1.422-20.664-3.459-30.8-2.019-8.677,1.211-15.753,5.281-23.618,8.582-25.058,10.52-54.5.733-80.906,4.5-30.6,4.355-62.41,5.161-93.313,4.449-32.038-.767-63.992-3.145-96.051-3.783-32.006-.59-63.989,1.652-96.017,1.9-64.23.537-128.675-3.822-192.843-1.535-30.387,1.093-60.855,3.168-91.254,1.569-9.738-.476-19.239-1.266-28.935.216-6.982,1.054-14.075,2.612-21.148,2.782-11.086.326-22.31-3.742-33.233-2.729a20.006,20.006,0,0,0,17.687,10.35h1110.18c11.029,0,19.965-8.483,19.965-18.95a2.258,2.258,0,0,0-.061-.457C1608.082,974.838,1601.476,974.587,1594.8,974.3Z" transform="translate(-464.694 -956.179)" fill="#c21620" opacity="0.5"/>
          </g>
          <g id="Group_102" data-name="Group 102" transform="translate(121.456 60.637)">
            <path id="Path_542-2" data-name="Path 542" d="M699.461,558.825v651.964H1140.3l24.547-651.964Z" transform="translate(-234.02 -558.825)" fill="#c21620" stroke="#120000" stroke-linecap="round" stroke-linejoin="round" stroke-width="1.228"/>
            <path id="Path_543-2" data-name="Path 543" stroke="#120000" d="M703.426,563.5v641.215h424.948L1152.066,563.5Z" fill="#c21620" transform="translate(-228.877 -552.756)" stroke-linecap="round" stroke-linejoin="round" stroke-width="1.228" opacity="0.4"/>
            <path id="Path_548-2" data-name="Path 548" d="M962.272,558.825v651.964H521.425L496.831,558.825Z" transform="translate(-496.831 -558.825)" fill="#c21620" stroke="#120000" stroke-linecap="round" stroke-linejoin="round" stroke-width="1.228"/>
            <path id="Path_549-2" data-name="Path 549" stroke="#120000" d="M949.725,563.5v641.215h-424.2L501.877,563.5Z" fill="#c21620" transform="translate(-490.287 -552.756)" stroke-linecap="round" stroke-linejoin="round" stroke-width="1.228" opacity="0.4"/>
          </g>
        </g>
        <g id="Group_92" data-name="Group 92" transform="translate(1681.442 313.986)">
          <path id="Path_685" data-name="Path 685" d="M754.712,766.974c5.51-2.476,9.234-7.033,9.234-12.323,0-.521-.142-1.011-.191-1.516.048-.521.191-1.05.191-1.576a13.225,13.225,0,0,0-3.744-8.949c-.361-7.1-6.756-12.787-14.662-12.787s-14.317,5.685-14.671,12.787a13.141,13.141,0,0,0-3.744,8.949,9.942,9.942,0,0,0,.2,1.576,9.057,9.057,0,0,0-.2,1.516c0,5.29,3.723,9.847,9.206,12.323v56.963a5.951,5.951,0,0,0,.345,1.87,46.193,46.193,0,0,0-9.551,16.807,9.785,9.785,0,0,0,.2,1.573,9.272,9.272,0,0,0-.2,1.509c0,7.909,8.237,14.333,18.415,14.333,10.155,0,18.406-6.425,18.406-14.333,0-.508-.142-1-.191-1.509.048-.524.191-1.036.191-1.573a47.03,47.03,0,0,0-9.54-16.807,6.176,6.176,0,0,0,.306-1.87Z" transform="translate(-727.125 -729.602)" fill="#c21620" opacity="0.4"/>
          <g id="Group_91" data-name="Group 91" transform="translate(4.341 0)">
            <g id="Group_87" data-name="Group 87" transform="translate(2.828 89.284)">
              <path id="Path_686" data-name="Path 686" d="M752.74,781.432c0,7.084-5.04,12.833-11.248,12.833s-11.246-5.749-11.246-12.833c0-7.1,5.04-12.836,11.246-12.836S752.74,774.329,752.74,781.432Z" transform="translate(-730.246 -768.596)" fill="#c21620" stroke="#4a2300" stroke-linecap="round" stroke-linejoin="round" stroke-width="1.228"/>
            </g>
            <g id="Group_88" data-name="Group 88" transform="translate(2.828)">
              <path id="Path_687" data-name="Path 687" d="M752.74,742.562c0,7.1-5.04,12.854-11.248,12.854s-11.246-5.752-11.246-12.854c0-7.084,5.04-12.836,11.246-12.836S752.74,735.478,752.74,742.562Z" transform="translate(-730.246 -729.726)" fill="#c21620" stroke="#4a2300" stroke-linecap="round" stroke-linejoin="round" stroke-width="1.228"/>
            </g>
            <path id="Path_688" data-name="Path 688" d="M746.133,806.517a7.089,7.089,0,0,1-7.022,7.151h0a7.072,7.072,0,0,1-7.029-7.151V747.135a7.068,7.068,0,0,1,7.029-7.141h0a7.086,7.086,0,0,1,7.022,7.141Z" transform="translate(-725.037 -716.408)" fill="#c21620" stroke="#4a2300" stroke-linecap="round" stroke-linejoin="round" stroke-width="1.228"/>
            <path id="Path_689" data-name="Path 689" d="M739.111,739.994a7.068,7.068,0,0,0-7.029,7.141v59.382a7.026,7.026,0,1,0,14.051,0V747.135A7.086,7.086,0,0,0,739.111,739.994Zm3.455,59.019c0,2.938-1.56,5.347-3.455,5.347-1.913,0-3.468-2.409-3.468-5.347V754.656c0-2.966,1.555-5.347,3.468-5.347,1.9,0,3.455,2.382,3.455,5.347Z" transform="translate(-725.037 -716.408)" fill="#c21620"/>
            <g id="Group_89" data-name="Group 89" transform="translate(0 93.72)">
              <path id="Path_690" data-name="Path 690" d="M757.149,784.821a14.069,14.069,0,1,1-14.06-14.294A14.184,14.184,0,0,1,757.149,784.821Z" transform="translate(-729.015 -770.527)" fill="#c21620" stroke="#0b0000" stroke-linecap="round" stroke-linejoin="round" stroke-width="1.228"/>
              <path id="Path_691" data-name="Path 691" d="M757.149,785.788a14.071,14.071,0,1,1-14.06-13.72A13.883,13.883,0,0,1,757.149,785.788Z" transform="translate(-729.015 -768.528)" fill="#c21620" stroke="#4a2300" stroke-linecap="round" stroke-linejoin="round" stroke-width="1.228"/>
              <path id="Path_692" data-name="Path 692" d="M743.089,772.068a13.708,13.708,0,1,0,14.06,13.72A13.905,13.905,0,0,0,743.089,772.068ZM741.7,795.4a9.618,9.618,0,1,1,9.865-9.61A9.739,9.739,0,0,1,741.7,795.4Z" transform="translate(-729.015 -768.528)" fill="#c21620"/>
              <path id="Path_693" data-name="Path 693" d="M739.329,778.5a3.708,3.708,0,1,1-3.726-3.774A3.743,3.743,0,0,1,739.329,778.5Z" transform="translate(-725.255 -765.081)" fill="#c21620" opacity="0.5"/>
              <path id="Path_694" data-name="Path 694" d="M733.58,779.033a1.238,1.238,0,1,1-2.476,0,1.239,1.239,0,1,1,2.476,0Z" transform="translate(-726.306 -761.148)" fill="#c21620" opacity="0.5"/>
            </g>
            <path id="Path_695" data-name="Path 695" d="M734.944,795.324a.5.5,0,0,1-.48.5h0a.48.48,0,0,1-.459-.5V745.444a.481.481,0,0,1,.459-.489h0a.5.5,0,0,1,.48.489Z" transform="translate(-722.544 -709.974)" fill="#c21620" opacity="0.5"/>
            <g id="Group_90" data-name="Group 90" transform="translate(0 6.519)">
              <path id="Path_696" data-name="Path 696" d="M757.149,746.858a14.069,14.069,0,1,1-14.06-14.294A14.182,14.182,0,0,1,757.149,746.858Z" transform="translate(-729.015 -732.564)" fill="#c21620" stroke="#0b0000" stroke-linecap="round" stroke-linejoin="round" stroke-width="1.228"/>
              <path id="Path_697" data-name="Path 697" d="M757.149,747.823a14.071,14.071,0,1,1-14.06-13.715A13.91,13.91,0,0,1,757.149,747.823Z" transform="translate(-729.015 -730.563)" fill="#c21620" stroke="#4a2300" stroke-linecap="round" stroke-linejoin="round" stroke-width="1.228"/>
              <path id="Path_698" data-name="Path 698" d="M743.089,734.107a13.722,13.722,0,1,0,14.06,13.715A13.919,13.919,0,0,0,743.089,734.107ZM741.7,757.449a9.63,9.63,0,1,1,9.865-9.627A9.744,9.744,0,0,1,741.7,757.449Z" transform="translate(-729.015 -730.563)" fill="#c21620"/>
              <path id="Path_699" data-name="Path 699" d="M739.329,740.533a3.708,3.708,0,1,1-3.726-3.767A3.738,3.738,0,0,1,739.329,740.533Z" transform="translate(-725.255 -727.114)" fill="#c21620" opacity="0.5"/>
              <path id="Path_700" data-name="Path 700" d="M733.58,741.081a1.239,1.239,0,1,1-1.236-1.286A1.242,1.242,0,0,1,733.58,741.081Z" transform="translate(-726.306 -723.185)" fill="#c21620" opacity="0.5"/>
            </g>
          </g>
        </g>
        <g id="Group_98" data-name="Group 98" transform="translate(1513.099 313.986)">
          <path id="Path_701" data-name="Path 701" d="M681.454,766.974c5.472-2.476,9.209-7.033,9.209-12.323a10.746,10.746,0,0,0-.207-1.516,11.841,11.841,0,0,0,.207-1.576,13.218,13.218,0,0,0-3.737-8.949c-.342-7.1-6.785-12.787-14.685-12.787s-14.294,5.685-14.659,12.787a13.194,13.194,0,0,0-3.744,8.949c0,.526.147,1.055.193,1.576-.046.505-.193.995-.193,1.516,0,5.29,3.735,9.847,9.2,12.323v56.963a5.648,5.648,0,0,0,.349,1.87,46.857,46.857,0,0,0-9.544,16.807c0,.537.147,1.05.193,1.573-.046.512-.193,1-.193,1.509,0,7.909,8.249,14.333,18.4,14.333s18.422-6.425,18.422-14.333a11.079,11.079,0,0,0-.207-1.509,11.621,11.621,0,0,0,.207-1.573,46.972,46.972,0,0,0-9.533-16.807,6.822,6.822,0,0,0,.324-1.87Z" transform="translate(-653.837 -729.602)" fill="#c21620" opacity="0.4"/>
          <g id="Group_97" data-name="Group 97" transform="translate(4.351 0)">
            <g id="Group_93" data-name="Group 93" transform="translate(2.812 89.284)">
              <path id="Path_702" data-name="Path 702" d="M679.447,781.432c0,7.084-5.023,12.833-11.23,12.833-6.222,0-11.262-5.749-11.262-12.833,0-7.1,5.039-12.836,11.262-12.836C674.424,768.6,679.447,774.329,679.447,781.432Z" transform="translate(-656.955 -768.596)" fill="#c21620" stroke="#4a2300" stroke-linecap="round" stroke-linejoin="round" stroke-width="1.228"/>
            </g>
            <g id="Group_94" data-name="Group 94" transform="translate(2.812)">
              <path id="Path_703" data-name="Path 703" d="M679.447,742.562c0,7.1-5.023,12.854-11.23,12.854-6.222,0-11.262-5.752-11.262-12.854,0-7.084,5.039-12.836,11.262-12.836C674.424,729.726,679.447,735.478,679.447,742.562Z" transform="translate(-656.955 -729.726)" fill="#c21620" stroke="#4a2300" stroke-linecap="round" stroke-linejoin="round" stroke-width="1.228"/>
            </g>
            <path id="Path_704" data-name="Path 704" d="M672.858,806.517a7.1,7.1,0,0,1-7.024,7.151h0a7.1,7.1,0,0,1-7.04-7.151V747.135a7.093,7.093,0,0,1,7.04-7.141h0a7.1,7.1,0,0,1,7.024,7.141Z" transform="translate(-651.76 -716.408)" fill="#c21620" stroke="#4a2300" stroke-linecap="round" stroke-linejoin="round" stroke-width="1.228"/>
            <path id="Path_705" data-name="Path 705" d="M665.833,739.994a7.093,7.093,0,0,0-7.04,7.141v59.382a7.033,7.033,0,1,0,14.065,0V747.135A7.1,7.1,0,0,0,665.833,739.994Zm3.45,59.019c0,2.938-1.553,5.347-3.45,5.347-1.922,0-3.466-2.409-3.466-5.347V754.656c0-2.966,1.544-5.347,3.466-5.347,1.9,0,3.45,2.382,3.45,5.347Z" transform="translate(-651.76 -716.408)" fill="#c21620"/>
            <g id="Group_95" data-name="Group 95" transform="translate(0 93.72)">
              <path id="Path_706" data-name="Path 706" d="M683.835,784.821a14.054,14.054,0,1,1-14.03-14.294A14.163,14.163,0,0,1,683.835,784.821Z" transform="translate(-655.731 -770.527)" fill="#c21620" stroke="#0b0000" stroke-linecap="round" stroke-linejoin="round" stroke-width="1.228"/>
              <path id="Path_707" data-name="Path 707" d="M683.835,785.788a14.056,14.056,0,1,1-14.03-13.72A13.861,13.861,0,0,1,683.835,785.788Z" transform="translate(-655.731 -768.528)" fill="#c21620" stroke="#4a2300" stroke-linecap="round" stroke-linejoin="round" stroke-width="1.228"/>
              <path id="Path_708" data-name="Path 708" d="M669.8,772.068a13.708,13.708,0,1,0,14.03,13.72A13.892,13.892,0,0,0,669.8,772.068ZM668.4,795.4a9.619,9.619,0,1,1,9.889-9.61A9.738,9.738,0,0,1,668.4,795.4Z" transform="translate(-655.731 -768.528)" fill="#c21620"/>
              <path id="Path_709" data-name="Path 709" d="M666.043,778.5a3.707,3.707,0,1,1-3.707-3.774A3.726,3.726,0,0,1,666.043,778.5Z" transform="translate(-651.97 -765.081)" fill="#c21620" opacity="0.5"/>
              <path id="Path_710" data-name="Path 710" d="M660.317,779.033a1.274,1.274,0,0,1-1.256,1.268,1.272,1.272,0,0,1,0-2.543A1.278,1.278,0,0,1,660.317,779.033Z" transform="translate(-653.022 -761.148)" fill="#c21620" opacity="0.5"/>
            </g>
            <path id="Path_711" data-name="Path 711" d="M661.667,795.324a.506.506,0,0,1-.48.5h0a.485.485,0,0,1-.471-.5V745.444a.486.486,0,0,1,.471-.489h0a.507.507,0,0,1,.48.489Z" transform="translate(-649.265 -709.974)" fill="#c21620" opacity="0.5"/>
            <g id="Group_96" data-name="Group 96" transform="translate(0 6.519)">
              <path id="Path_712" data-name="Path 712" d="M683.835,746.858a14.054,14.054,0,1,1-14.03-14.294A14.161,14.161,0,0,1,683.835,746.858Z" transform="translate(-655.731 -732.564)" fill="#c21620" stroke="#0b0000" stroke-linecap="round" stroke-linejoin="round" stroke-width="1.228"/>
              <path id="Path_713" data-name="Path 713" d="M683.835,747.823a14.056,14.056,0,1,1-14.03-13.715A13.888,13.888,0,0,1,683.835,747.823Z" transform="translate(-655.731 -730.563)" fill="#c21620" stroke="#4a2300" stroke-linecap="round" stroke-linejoin="round" stroke-width="1.228"/>
              <path id="Path_714" data-name="Path 714" d="M669.8,734.107a13.721,13.721,0,1,0,14.03,13.715A13.906,13.906,0,0,0,669.8,734.107ZM668.4,757.449a9.63,9.63,0,1,1,9.889-9.627A9.743,9.743,0,0,1,668.4,757.449Z" transform="translate(-655.731 -730.563)" fill="#c21620"/>
              <path id="Path_715" data-name="Path 715" d="M666.043,740.533a3.707,3.707,0,1,1-3.707-3.767A3.721,3.721,0,0,1,666.043,740.533Z" transform="translate(-651.97 -727.114)" fill="#c21620" opacity="0.5"/>
              <path id="Path_716" data-name="Path 716" d="M660.317,741.081a1.279,1.279,0,0,1-1.256,1.275,1.281,1.281,0,0,1,0-2.561A1.275,1.275,0,0,1,660.317,741.081Z" transform="translate(-653.022 -723.185)" fill="#c21620" opacity="0.5"/>
            </g>
          </g>
        </g>
      </g>
    </g>
    <g id="Pull_Tab" data-name="Pull Tab" transform="translate(1790 359.509)">
      <!-- <rect class="pullTabBtn" x="0" y="0" width="10" height="10" onclick="alert('click!')" /> -->
      <rect id="Rectangle_40" data-name="Rectangle 40" width="46" height="108" rx="6" transform="translate(25.5 321.077)" fill="#c51116"/>
      <line id="Line_7" data-name="Line 7" y2="86.214" transform="translate(34 331.97)" fill="none" stroke="#fcf9ef" stroke-linecap="round" stroke-width="3" opacity="0.996"/>
      <line id="Line_8" data-name="Line 8" y2="86.214" transform="translate(46.732 331.97)" fill="none" stroke="#fcf9ef" stroke-linecap="round" stroke-width="3" opacity="0.996"/>
      <line id="Line_9" data-name="Line 9" y2="86.214" transform="translate(59.464 331.97)" fill="none" stroke="#fcf9ef" stroke-linecap="round" stroke-width="3" opacity="0.996"/>
    </g>
    <g id="Options" transform="translate(1896.5 288.586)">
      <g id="Ties" transform="matrix(0.94, 0.342, -0.342, 0.94, 359.891, 132.063)">
        <path id="Path_116" data-name="Path 116" d="M58.05,51.912c5.692-2.2,9.268-7.478,11.91-13.639s3.076-25.514,0-30.357S50.781,0,44,0,21.117,3.076,18.04,7.916s-2.642,24.2,0,30.357,6.214,11.438,11.906,13.639S0,249.465,0,249.465s34.314,48.6,44,48.6,44-48.6,44-48.6S52.361,54.116,58.05,51.912Z" transform="translate(0 32.964) rotate(-22)" fill="#faf7ef"/>
        <path id="Path_137" data-name="Path 137" d="M14.1.466H0V2.723H5.69V18.862H8.413V2.723H14.1Zm4.93,0H16.311v18.4h2.723Zm7.628,16.139V10.449h7.775V8.168H26.661V2.723h9.517V.466H23.939v18.4H36.644V16.605Zm25.8-4.243c-.932-2.477-3.556-3.262-5.887-3.973-1.962-.589-3.36-1.153-3.851-2.5a2.741,2.741,0,0,1,.172-2.06c.834-1.57,2.992-1.57,3.017-1.57A6.246,6.246,0,0,1,50.551,4.39a3.586,3.586,0,0,1,.392.466l1.791-1.79A9.165,9.165,0,0,0,45.915,0c-.417,0-4.047.074-5.47,2.772a4.759,4.759,0,0,0-.294,3.875c.858,2.4,3.483,3.213,5.764,3.9,2.011.613,3.434,1.177,3.949,2.6a2.811,2.811,0,0,1-.049,1.913c-.515,1.226-1.766,2.011-3.9,2.036a6.206,6.206,0,0,1-4.636-2.134,2.2,2.2,0,0,1-.368-.466L39.1,16.311a9.273,9.273,0,0,0,6.819,3.041c3.09-.025,5.568-1.324,6.451-3.409A4.994,4.994,0,0,0,52.464,12.362Z" transform="translate(95.188 271.286) rotate(29)" fill="#fbf8ef"/>
      </g>
      <g id="Watches" transform="matrix(0.899, -0.438, 0.438, 0.899, -25.551, 469.7)">
        <g id="Group_12" data-name="Group 12" transform="matrix(0.891, 0.454, -0.454, 0.891, 167.761, 0)">
          <g id="Group_7" data-name="Group 7" transform="translate(0 134.034)">
            <g id="Group_5" data-name="Group 5" transform="translate(20.855 0.652)">
              <path id="Rectangle_3" data-name="Rectangle 3" d="M.268,0H5.122a.269.269,0,0,1,.269.269V17.4a.268.268,0,0,1-.268.268H.268A.268.268,0,0,1,0,17.4V.268A.268.268,0,0,1,.268,0Z" transform="translate(0 69.968)" fill="#fbf8ef"/>
              <path id="Rectangle_4" data-name="Rectangle 4" d="M.269,0H5.123a.268.268,0,0,1,.268.268V17.4a.268.268,0,0,1-.268.268H.269A.269.269,0,0,1,0,17.4V.269A.269.269,0,0,1,.269,0Z" transform="translate(41.843 69.968)" fill="#fbf8ef"/>
              <path id="Rectangle_5" data-name="Rectangle 5" d="M.269,0H5.122a.269.269,0,0,1,.269.269V17.407a.269.269,0,0,1-.269.269H.268A.268.268,0,0,1,0,17.407V.269A.269.269,0,0,1,.269,0Z" fill="#fbf8ef"/>
              <rect id="Rectangle_6" data-name="Rectangle 6" width="5.391" height="17.675" rx="0.269" transform="translate(41.843)" fill="#fbf8ef"/>
            </g>
            <circle id="Ellipse_1" data-name="Ellipse 1" cx="38.763" cy="38.763" r="38.763" transform="translate(0 12.418) rotate(-9.217)" fill="#fbf8ef"/>
            <path id="Path_57" data-name="Path 57" d="M70.831,35.415A35.415,35.415,0,1,0,35.415,70.831,35.414,35.414,0,0,0,70.831,35.415Z" transform="translate(9.058 9.056)" fill="#050505"/>
            <path id="Path_58" data-name="Path 58" d="M66.073,33.039A33.037,33.037,0,1,0,33.039,66.078,33.036,33.036,0,0,0,66.073,33.039Z" transform="translate(11.434 11.432)" fill="#fbf8ef"/>
            <rect id="Rectangle_7" data-name="Rectangle 7" width="1.556" height="3.458" transform="translate(43.694 13.359)" fill="#050505"/>
            <rect id="Rectangle_8" data-name="Rectangle 8" width="1.556" height="3.457" transform="translate(28.244 17.917) rotate(-29.971)" fill="#050505"/>
            <rect id="Rectangle_9" data-name="Rectangle 9" width="1.555" height="3.458" transform="matrix(0.5, -0.866, 0.866, 0.5, 17.14, 29.589)" fill="#050505"/>
            <rect id="Rectangle_10" data-name="Rectangle 10" width="3.458" height="1.555" transform="translate(13.36 43.694)" fill="#050505"/>
            <rect id="Rectangle_11" data-name="Rectangle 11" width="3.459" height="1.556" transform="matrix(0.866, -0.5, 0.5, 0.866, 17.139, 59.356)" fill="#050505"/>
            <rect id="Rectangle_12" data-name="Rectangle 12" width="3.457" height="1.558" transform="matrix(0.5, -0.866, 0.866, 0.5, 28.242, 71.026)" fill="#050505"/>
            <rect id="Rectangle_13" data-name="Rectangle 13" width="1.556" height="3.461" transform="translate(43.694 72.126)" fill="#050505"/>
            <rect id="Rectangle_14" data-name="Rectangle 14" width="1.557" height="3.457" transform="matrix(0.866, -0.5, 0.5, 0.866, 57.625, 68.812)" fill="#050505"/>
            <path id="Path_59" data-name="Path 59" d="M0,1.346.78,0,3.772,1.729,3,3.078Z" transform="translate(68.034 57.627)" fill="#050505"/>
            <rect id="Rectangle_15" data-name="Rectangle 15" width="3.457" height="1.555" transform="translate(72.128 43.694)" fill="#050505"/>
            <rect id="Rectangle_16" data-name="Rectangle 16" width="3.457" height="1.555" transform="matrix(0.865, -0.501, 0.501, 0.865, 68.035, 29.975)" fill="#050505"/>
            <rect id="Rectangle_17" data-name="Rectangle 17" width="3.456" height="1.556" transform="matrix(0.498, -0.867, 0.867, 0.498, 58.537, 21.918)" fill="#050505"/>
            <g id="Group_6" data-name="Group 6" transform="translate(13.704 13.704)">
              <rect id="Rectangle_18" data-name="Rectangle 18" width="0.541" height="2.768" transform="translate(30.498)" fill="#050505"/>
              <path id="Path_60" data-name="Path 60" d="M.826,2.75.29,2.809,0,.058.536,0Z" transform="translate(27.284 0.141)" fill="#050505"/>
              <path id="Path_61" data-name="Path 61" d="M1.1,2.708l-.529.111L0,.113.529,0Z" transform="translate(24.108 0.616)" fill="#050505"/>
              <path id="Path_62" data-name="Path 62" d="M1.369,2.63.856,2.8,0,.166.513,0Z" transform="translate(21.005 1.425)" fill="#050505"/>
              <rect id="Rectangle_19" data-name="Rectangle 19" width="0.538" height="2.766" transform="translate(18.011 2.77) rotate(-23.896)" fill="#050505"/>
              <path id="Path_63" data-name="Path 63" d="M1.852,2.394l-.468.272L0,.27.468,0Z" transform="translate(15.151 3.989)" fill="#050505"/>
              <path id="Path_64" data-name="Path 64" d="M2.064,2.235l-.44.317L0,.317.441,0Z" transform="translate(12.465 5.721)" fill="#050505"/>
              <rect id="Rectangle_20" data-name="Rectangle 20" width="0.538" height="2.766" transform="matrix(0.743, -0.669, 0.669, 0.743, 9.981, 8.084)" fill="#050505"/>
              <rect id="Rectangle_21" data-name="Rectangle 21" width="0.54" height="2.766" transform="translate(7.723 10.382) rotate(-47.968)" fill="#050505"/>
              <rect id="Rectangle_22" data-name="Rectangle 22" width="0.541" height="2.768" transform="translate(5.717 12.905) rotate(-54.113)" fill="#050505"/>
              <path id="Path_65" data-name="Path 65" d="M2.663,1.384,2.4,1.85,0,.468.269,0Z" transform="translate(3.989 15.151)" fill="#050505"/>
              <path id="Path_66" data-name="Path 66" d="M2.751,1.125l-.222.493L0,.493.222,0Z" transform="translate(2.549 18.008)" fill="#050505"/>
              <path id="Path_67" data-name="Path 67" d="M2.8.853l-.169.513L0,.511.169,0Z" transform="translate(1.422 21.005)" fill="#050505"/>
              <path id="Path_68" data-name="Path 68" d="M2.816.574,2.7,1.1,0,.528.111,0Z" transform="translate(0.619 24.108)" fill="#050505"/>
              <path id="Path_69" data-name="Path 69" d="M2.809.289,2.751.825,0,.536.058,0Z" transform="translate(0.141 27.284)" fill="#050505"/>
              <rect id="Rectangle_23" data-name="Rectangle 23" width="2.768" height="0.537" transform="translate(0 30.499)" fill="#050505"/>
              <path id="Path_70" data-name="Path 70" d="M2.751,0l.055.541L.053.83,0,.292Z" transform="translate(0.143 33.425)" fill="#050505"/>
              <path id="Path_71" data-name="Path 71" d="M2.705,0l.111.531L.111,1.107,0,.576Z" transform="translate(0.619 36.325)" fill="#050505"/>
              <path id="Path_72" data-name="Path 72" d="M2.633,0,2.8.513.164,1.369,0,.856Z" transform="translate(1.424 39.164)" fill="#050505"/>
              <path id="Path_73" data-name="Path 73" d="M2.527,0l.222.493L.216,1.618,0,1.125Z" transform="translate(2.552 41.912)" fill="#050505"/>
              <path id="Path_74" data-name="Path 74" d="M2.4,0l.267.469L.269,1.855,0,1.384Z" transform="translate(3.989 44.534)" fill="#050505"/>
              <rect id="Rectangle_24" data-name="Rectangle 24" width="2.769" height="0.541" transform="translate(5.718 48.636) rotate(-36.048)" fill="#050505"/>
              <rect id="Rectangle_25" data-name="Rectangle 25" width="2.767" height="0.541" transform="translate(7.722 51.155) rotate(-41.995)" fill="#050505"/>
              <path id="Path_75" data-name="Path 75" d="M1.85,0l.4.362L.4,2.418,0,2.056Z" transform="translate(9.981 51.395)" fill="#050505"/>
              <path id="Path_76" data-name="Path 76" d="M1.626,0l.438.32L.441,2.557,0,2.235Z" transform="translate(12.465 53.262)" fill="#050505"/>
              <path id="Path_77" data-name="Path 77" d="M1.384,0,1.85.274.471,2.67,0,2.4Z" transform="translate(15.151 54.881)" fill="#050505"/>
              <path id="Path_78" data-name="Path 78" d="M1.125,0l.491.222L.493,2.748,0,2.525Z" transform="translate(18.01 56.239)" fill="#050505"/>
              <path id="Path_79" data-name="Path 79" d="M.856,0l.511.169L.513,2.8,0,2.63Z" transform="translate(21.005 57.314)" fill="#050505"/>
              <rect id="Rectangle_26" data-name="Rectangle 26" width="2.767" height="0.542" transform="matrix(0.213, -0.977, 0.977, 0.213, 24.1, 60.804)" fill="#050505"/>
              <path id="Path_80" data-name="Path 80" d="M.29,0,.826.058.539,2.809,0,2.748Z" transform="translate(27.284 58.588)" fill="#050505"/>
              <rect id="Rectangle_27" data-name="Rectangle 27" width="2.766" height="0.542" transform="translate(30.485 61.532) rotate(-89.454)" fill="#050505"/>
              <path id="Path_81" data-name="Path 81" d="M0,.056.539,0l.29,2.753-.541.053Z" transform="translate(33.427 58.588)" fill="#050505"/>
              <path id="Path_82" data-name="Path 82" d="M0,.111.526,0l.579,2.708-.531.108Z" transform="translate(36.327 58.102)" fill="#050505"/>
              <path id="Path_83" data-name="Path 83" d="M0,.167.513,0l.856,2.628-.513.166Z" transform="translate(39.163 57.316)" fill="#050505"/>
              <path id="Path_84" data-name="Path 84" d="M0,.216.493,0l1.13,2.527-.5.219Z" transform="translate(41.909 56.239)" fill="#050505"/>
              <path id="Path_85" data-name="Path 85" d="M0,.269.471,0,1.858,2.4l-.473.267Z" transform="translate(44.531 54.883)" fill="#050505"/>
              <rect id="Rectangle_28" data-name="Rectangle 28" width="0.541" height="2.765" transform="translate(47.013 53.576) rotate(-35.727)" fill="#050505"/>
              <path id="Path_86" data-name="Path 86" d="M0,.36.4,0,2.258,2.053l-.408.362Z" transform="translate(49.303 51.397)" fill="#050505"/>
              <path id="Path_87" data-name="Path 87" d="M0,.4.365,0,2.421,1.852l-.365.4Z" transform="translate(51.395 49.303)" fill="#050505"/>
              <path id="Path_88" data-name="Path 88" d="M0,.433.322,0,2.56,1.624l-.32.435Z" transform="translate(53.26 47.01)" fill="#050505"/>
              <path id="Path_89" data-name="Path 89" d="M0,.469.27,0l2.4,1.384-.274.465Z" transform="translate(54.883 44.534)" fill="#050505"/>
              <rect id="Rectangle_29" data-name="Rectangle 29" width="0.541" height="2.766" transform="translate(56.239 42.406) rotate(-66.054)" fill="#050505"/>
              <path id="Path_90" data-name="Path 90" d="M0,.516.169,0,2.8.856l-.169.513Z" transform="translate(57.314 39.164)" fill="#050505"/>
              <rect id="Rectangle_30" data-name="Rectangle 30" width="0.542" height="2.768" transform="translate(58.099 36.853) rotate(-77.943)" fill="#050505"/>
              <path id="Path_91" data-name="Path 91" d="M0,.541.058,0,2.811.289,2.753.828Z" transform="translate(58.585 33.425)" fill="#050505"/>
              <path id="Path_92" data-name="Path 92" d="M0,.544,0,0H2.771l0,.539Z" transform="translate(58.766 30.498)" fill="#050505"/>
              <path id="Path_93" data-name="Path 93" d="M.055.83,0,.289,2.751,0l.055.539Z" transform="translate(58.588 27.282)" fill="#050505"/>
              <path id="Path_94" data-name="Path 94" d="M.111,1.107,0,.576,2.706,0l.111.531Z" transform="translate(58.099 24.106)" fill="#050505"/>
              <path id="Path_95" data-name="Path 95" d="M.166,1.372,0,.856,2.632,0,2.8.516Z" transform="translate(57.314 21.002)" fill="#050505"/>
              <path id="Path_96" data-name="Path 96" d="M.216,1.623,0,1.127,2.527,0l.216.5Z" transform="translate(56.239 18.005)" fill="#050505"/>
              <path id="Path_97" data-name="Path 97" d="M.267,1.852,0,1.384,2.394,0l.272.468Z" transform="translate(54.883 15.151)" fill="#050505"/>
              <path id="Path_98" data-name="Path 98" d="M.314,2.068,0,1.628,2.237,0l.317.44Z" transform="translate(53.262 12.463)" fill="#050505"/>
              <path id="Path_99" data-name="Path 99" d="M.362,2.258,0,1.853,2.056,0l.36.406Z" transform="translate(51.395 9.979)" fill="#050505"/>
              <path id="Path_100" data-name="Path 100" d="M.4,2.421,0,2.059,1.85,0l.4.365Z" transform="translate(49.303 7.722)" fill="#050505"/>
              <path id="Path_101" data-name="Path 101" d="M.441,2.565,0,2.24,1.628,0l.436.322Z" transform="translate(47.005 5.716)" fill="#050505"/>
              <path id="Path_102" data-name="Path 102" d="M.468,2.67,0,2.4,1.382,0,1.85.272Z" transform="translate(44.534 3.987)" fill="#050505"/>
              <path id="Path_103" data-name="Path 103" d="M.493,2.751,0,2.53,1.125,0l.5.224Z" transform="translate(41.909 2.549)" fill="#050505"/>
              <path id="Path_104" data-name="Path 104" d="M.513,2.8,0,2.632.853,0l.516.169Z" transform="translate(39.163 1.422)" fill="#050505"/>
              <path id="Path_105" data-name="Path 105" d="M.526,2.822,0,2.708.572,0,1.1.116Z" transform="translate(36.327 0.616)" fill="#050505"/>
              <path id="Path_106" data-name="Path 106" d="M.539,2.811,0,2.75.287,0,.826.06Z" transform="translate(33.427 0.141)" fill="#050505"/>
            </g>
            <path id="Path_107" data-name="Path 107" d="M0,0H0L1.988,2.622l14.9,10.185,1.178-1.724L3.166.9h0Z" transform="translate(27.637 32.965)" fill="#050505"/>
            <path id="Path_108" data-name="Path 108" d="M3,1.505a1.5,1.5,0,1,0-1.5,1.505A1.5,1.5,0,0,0,3,1.505Z" transform="translate(42.968 42.966)" fill="#050505"/>
            <path id="Path_109" data-name="Path 109" d="M22.437,0V0L20.37.655,0,15.478l.808,1.113L21.179,1.762h0Z" transform="translate(43.407 28.91)" fill="#050505"/>
          </g>
          <rect id="Rectangle_31" data-name="Rectangle 31" width="34.532" height="100.947" transform="translate(27.207 37.423)" fill="#fbf8ef"/>
          <g id="Group_8" data-name="Group 8" transform="translate(20.696)">
            <path id="Path_110" data-name="Path 110" d="M40.765,0H6.793A6.813,6.813,0,0,0,0,6.793V33.756a6.816,6.816,0,0,0,6.793,6.793H40.765a6.818,6.818,0,0,0,6.788-6.793V6.793A6.815,6.815,0,0,0,40.765,0ZM42.7,33.756A1.971,1.971,0,0,1,40.765,35.7H6.793A1.968,1.968,0,0,1,4.85,33.756V6.793A1.968,1.968,0,0,1,6.793,4.85H40.765A1.971,1.971,0,0,1,42.7,6.793Z" fill="#fbf8ef"/>
          </g>
          <path id="Path_111" data-name="Path 111" d="M4.206,5.134C4.206,2.294,3.263,0,2.1,0h0C.943,0,0,2.294,0,5.134V28.586c0,2.835.943,5.134,2.1,5.134h0c1.16,0,2.1-2.3,2.1-5.134Z" transform="translate(42.37 9.298)" fill="#fbf8ef"/>
          <path id="Path_112" data-name="Path 112" d="M34.5,117.189a31.365,31.365,0,0,1-3.706,13.5l-9.834,16.571c-2.036,3.438-5.381,3.438-7.422,0L3.706,130.693A31.365,31.365,0,0,1,0,117.189V.005c15.514.322,21.026-.053,34.5,0Z" transform="translate(27.222 219.683)" fill="#fbf8ef"/>
          <g id="Group_13" data-name="Group 13" transform="translate(42.128 274.068)">
            <path id="Path_113" data-name="Path 113" d="M6.247,3.124A3.124,3.124,0,1,0,3.124,6.252,3.121,3.121,0,0,0,6.247,3.124Z" transform="translate(0 31.24)" fill="#050505"/>
            <path id="Path_114" data-name="Path 114" d="M6.247,3.123A3.124,3.124,0,1,0,3.124,6.242,3.121,3.121,0,0,0,6.247,3.123Z" transform="translate(0 15.623)" fill="#050505"/>
            <path id="Path_115" data-name="Path 115" d="M6.247,3.123A3.124,3.124,0,1,0,3.124,6.247,3.125,3.125,0,0,0,6.247,3.123Z" fill="#050505"/>
          </g>
        </g>
        <path id="Path_136" data-name="Path 136" d="M9.72,23.07,15.45,7.26l5.73,15.81h1.71L30.9.57H27.33L21.96,16.44,16.29.57H14.58L8.91,16.44,3.54.57H0l8.01,22.5ZM39.12.57H37.08l-9.24,22.5h3.6l2.22-5.88h8.85l2.25,5.88h3.6ZM34.71,14.43,38.1,5.55l3.36,8.88ZM63.63.57H46.38V3.33h6.96V23.07h3.33V3.33h6.96Zm17.7,17.19-.45.54a7.464,7.464,0,0,1-11.34,0,9.637,9.637,0,0,1-2.43-6.48,9.561,9.561,0,0,1,2.43-6.45,7.464,7.464,0,0,1,11.34,0,4.387,4.387,0,0,1,.48.57l2.19-2.19A11.26,11.26,0,0,0,75.21,0,11.63,11.63,0,0,0,63.78,11.82,11.637,11.637,0,0,0,75.21,23.67a11.226,11.226,0,0,0,8.31-3.72ZM101.37.57v9.87H90.78V.57H87.45v22.5h3.33V13.2h10.59v9.87h3.33V.57Zm12.06,19.74V12.78h9.51V9.99h-9.51V3.33h11.64V.57H110.1v22.5h15.54V20.31Zm31.56-5.19c-1.14-3.03-4.35-3.99-7.2-4.86-2.4-.72-4.11-1.41-4.71-3.06a3.352,3.352,0,0,1,.21-2.52c1.02-1.92,3.66-1.92,3.69-1.92a7.639,7.639,0,0,1,5.67,2.61,4.386,4.386,0,0,1,.48.57l2.19-2.19A11.211,11.211,0,0,0,136.98,0c-.51,0-4.95.09-6.69,3.39a5.821,5.821,0,0,0-.36,4.74c1.05,2.94,4.26,3.93,7.05,4.77,2.46.75,4.2,1.44,4.83,3.18a3.439,3.439,0,0,1-.06,2.34c-.63,1.5-2.16,2.46-4.77,2.49a7.591,7.591,0,0,1-5.67-2.61,2.688,2.688,0,0,1-.45-.57l-2.22,2.22a11.342,11.342,0,0,0,8.34,3.72c3.78-.03,6.81-1.62,7.89-4.17A6.108,6.108,0,0,0,144.99,15.12Z" transform="matrix(0.446, -0.895, 0.895, 0.446, 0.44, 331.126)" fill="#fbf8ef"/>
      </g>
      <g id="Hats" transform="translate(69.223 143.999)">
        <g id="Group_11" data-name="Group 11" transform="matrix(0.883, -0.469, 0.469, 0.883, 0, 92.793)">
          <path id="Path_53" data-name="Path 53" d="M160.405,68.532S147.993,0,127.631,0c-7.945,0-12.417,10.929-28.8,10.929S77.974,0,70.029,0C49.662,0,37.245,68.532,37.245,68.532S0,75.489,0,96.381s46.683,49.127,98.83,49.127,98.825-28.23,98.825-49.127S160.405,68.532,160.405,68.532Z" fill="#fbf8ef"/>
          <path id="Path_54" data-name="Path 54" d="M130.116,0S98.327,19.205,67.874,19.205,5.628,0,5.628,0L0,23.178S20.856,47.349,67.874,47.349s67.87-24.171,67.87-24.171Z" transform="translate(30.955 68.201)" fill="#c51116"/>
        </g>
        <path id="Path_135" data-name="Path 135" d="M11.73.48V8.8H2.806V.48H0V19.441H2.806V11.124H11.73v8.317h2.806V.48Zm14.587,0H24.6L16.812,19.441h3.034l1.871-4.955h7.458l1.9,4.955H34.1ZM22.6,12.16l2.857-7.483,2.831,7.483ZM46.972.48H32.435V2.806H38.3V19.441h2.806V2.806h5.865ZM62.014,12.741c-.961-2.553-3.666-3.362-6.067-4.1-2.022-.607-3.463-1.188-3.969-2.579a2.825,2.825,0,0,1,.177-2.124c.86-1.618,3.084-1.618,3.11-1.618a6.438,6.438,0,0,1,4.778,2.2,3.7,3.7,0,0,1,.4.48L62.292,3.16A9.447,9.447,0,0,0,55.264,0c-.43,0-4.171.076-5.638,2.857a4.905,4.905,0,0,0-.3,3.994c.885,2.478,3.59,3.312,5.941,4.02,2.073.632,3.539,1.213,4.07,2.68a2.9,2.9,0,0,1-.051,1.972c-.531,1.264-1.82,2.073-4.02,2.1a6.4,6.4,0,0,1-4.778-2.2,2.265,2.265,0,0,1-.379-.48l-1.871,1.871a9.558,9.558,0,0,0,7.028,3.135c3.185-.025,5.739-1.365,6.649-3.514A5.147,5.147,0,0,0,62.014,12.741Z" transform="matrix(0.749, 0.663, -0.663, 0.749, 141.546, 14.595)" fill="#fbf8ef"/>
      </g>
      <g id="Cufflinks" transform="translate(583.63 312.703)">
        <g id="classic-cufflinks" transform="translate(78.671 0) rotate(45)">
          <path id="Path_126" data-name="Path 126" d="M.476,26.362H51.3a.475.475,0,0,0,.476-.476A25.888,25.888,0,0,0,0,25.886.475.475,0,0,0,.476,26.362Zm7.606-9.38A18.341,18.341,0,0,1,25.015,5.76a3.075,3.075,0,0,1,0,6.15,12.2,12.2,0,0,0-11.266,7.465,3.075,3.075,0,0,1-5.666-2.393Z" transform="translate(5.125 27.429)" fill="#fbf8ef"/>
          <path id="Path_127" data-name="Path 127" d="M56.9,0H5.125a5.125,5.125,0,1,0,0,10.251H25.886V26.411H17.979a4.1,4.1,0,1,0,0,8.2h7.908v4.2a5.125,5.125,0,1,0,10.251,0v-4.2h7.91a4.1,4.1,0,1,0,0-8.2h-7.91V10.251H56.9A5.125,5.125,0,1,0,56.9,0Z" transform="translate(0 58.32)" fill="#fbf8ef"/>
          <path id="Path_128" data-name="Path 128" d="M.476,26.362H51.3a.475.475,0,0,0,.476-.476A25.888,25.888,0,0,0,0,25.886.475.475,0,0,0,.476,26.362Zm7.606-9.38A18.341,18.341,0,0,1,25.015,5.76a3.075,3.075,0,1,1,0,6.15,12.2,12.2,0,0,0-11.267,7.465,3.075,3.075,0,0,1-5.666-2.393Z" transform="translate(64.99 0)" fill="#fbf8ef"/>
          <path id="Path_129" data-name="Path 129" d="M56.9,0H5.125a5.125,5.125,0,1,0,0,10.251H25.886V26.411H17.979a4.1,4.1,0,0,0,0,8.2h7.908v4.2a5.125,5.125,0,0,0,10.251,0v-4.2h7.91a4.1,4.1,0,1,0,0-8.2h-7.91V10.251H56.9A5.125,5.125,0,0,0,56.9,0Z" transform="translate(59.865 30.891)" fill="#fbf8ef"/>
        </g>
        <path id="Path_140" data-name="Path 140" d="M12.013,12.157l-.308.37a5.229,5.229,0,0,1-3.881,1.787,5.2,5.2,0,0,1-3.881-1.787A6.6,6.6,0,0,1,2.279,8.091,6.544,6.544,0,0,1,3.943,3.676,5.2,5.2,0,0,1,7.824,1.889a5.229,5.229,0,0,1,3.881,1.787,3,3,0,0,1,.329.39l1.5-1.5A7.707,7.707,0,0,0,7.824,0,7.961,7.961,0,0,0,0,8.091,7.966,7.966,0,0,0,7.824,16.2a7.685,7.685,0,0,0,5.688-2.546ZM26.285.39V9.754c0,.924-.164,4.559-3.881,4.559s-3.922-3.635-3.922-4.559V.39H16.2V9.754c0,2.485,1.027,6.448,6.2,6.448s6.161-3.963,6.161-6.448V.39ZM41.872,2.279V.39H31.645v15.4h2.279V8.974h6.51V7.085h-6.51V2.279Zm13.1,0V.39H44.747v15.4h2.279V8.974h6.51V7.085h-6.51V2.279ZM59.717,13.9V.39H57.438v15.4H67.479V13.9ZM72.428.39H70.149v15.4h2.279Zm17.619,0H87.768V12.65L79.493.39H76.741v15.4h2.3V3.532L87.3,15.792h2.752Zm17.743,0h-3.347L96.229,7.413V.39H93.95v15.4h2.279V10.083l2.238-1.869,6.14,7.578h3.183l-7.578-9.036Zm13.245,9.96c-.78-2.074-2.978-2.731-4.929-3.327-1.643-.493-2.813-.965-3.224-2.095a2.3,2.3,0,0,1,.144-1.725,3.041,3.041,0,0,1,2.526-1.314,5.229,5.229,0,0,1,3.881,1.787,3,3,0,0,1,.329.39l1.5-1.5A7.674,7.674,0,0,0,115.553,0c-.349,0-3.388.062-4.579,2.321a3.985,3.985,0,0,0-.246,3.245c.719,2.012,2.916,2.69,4.826,3.265,1.684.513,2.875.986,3.306,2.177a2.354,2.354,0,0,1-.041,1.6c-.431,1.027-1.479,1.684-3.265,1.7a5.2,5.2,0,0,1-3.881-1.787,1.84,1.84,0,0,1-.308-.39l-1.52,1.52a7.764,7.764,0,0,0,5.709,2.546c2.587-.021,4.662-1.109,5.4-2.854A4.181,4.181,0,0,0,121.036,10.35Z" transform="translate(5.938 92.54) rotate(21.5)" fill="#fbf8ef"/>
      </g>
      <g id="Shoes" transform="translate(831.696 392.257) rotate(41)">
        <path id="Path_139" data-name="Path 139" d="M13.175,12.184c-.919-2.442-3.505-3.215-5.8-3.916-1.934-.58-3.312-1.136-3.8-2.466a2.7,2.7,0,0,1,.169-2.031A3.58,3.58,0,0,1,6.72,2.224a6.156,6.156,0,0,1,4.569,2.1,3.534,3.534,0,0,1,.387.459l1.765-1.765A9.033,9.033,0,0,0,6.72,0C6.309,0,2.732.073,1.33,2.732a4.691,4.691,0,0,0-.29,3.819C1.886,8.92,4.472,9.718,6.72,10.395c1.982.6,3.384,1.16,3.892,2.562a2.771,2.771,0,0,1-.048,1.886c-.508,1.209-1.741,1.982-3.844,2.006a6.117,6.117,0,0,1-4.569-2.1,2.166,2.166,0,0,1-.363-.459L0,16.075a9.139,9.139,0,0,0,6.72,3c3.046-.024,5.487-1.305,6.358-3.36A4.922,4.922,0,0,0,13.175,12.184ZM28.066.459V8.412H19.532V.459H16.849V18.59h2.683V10.636h8.533V18.59h2.683V.459ZM42.86,2.224a6.117,6.117,0,0,1,4.569,2.1,7.7,7.7,0,0,1,1.958,5.2,7.765,7.765,0,0,1-1.958,5.222,6.014,6.014,0,0,1-9.138,0,7.765,7.765,0,0,1-1.958-5.222,7.7,7.7,0,0,1,1.958-5.2A6.156,6.156,0,0,1,42.86,2.224ZM42.86,0a9.372,9.372,0,0,0-9.21,9.524,9.216,9.216,0,1,0,18.42,0A9.372,9.372,0,0,0,42.86,0ZM57.9,16.366V10.3h7.663V8.05H57.9V2.683h9.379V.459H55.213V18.59H67.735V16.366Zm25.431-4.182c-.919-2.442-3.505-3.215-5.8-3.916-1.934-.58-3.312-1.136-3.8-2.466A2.7,2.7,0,0,1,73.9,3.771a3.58,3.58,0,0,1,2.973-1.547,6.156,6.156,0,0,1,4.569,2.1,3.535,3.535,0,0,1,.387.459l1.765-1.765A9.033,9.033,0,0,0,76.872,0c-.411,0-3.989.073-5.391,2.732a4.691,4.691,0,0,0-.29,3.819c.846,2.369,3.433,3.167,5.681,3.844,1.982.6,3.384,1.16,3.892,2.562a2.771,2.771,0,0,1-.048,1.886c-.508,1.209-1.741,1.982-3.844,2.006a6.117,6.117,0,0,1-4.569-2.1,2.166,2.166,0,0,1-.363-.459l-1.789,1.789a9.139,9.139,0,0,0,6.72,3c3.046-.024,5.487-1.305,6.358-3.36A4.921,4.921,0,0,0,83.327,12.184Z" transform="translate(106.97 176.64) rotate(-40.5)" fill="#fbf8ef"/>
        <g id="icon-2" transform="translate(0 78.099) rotate(-39)">
          <path id="Path_130" data-name="Path 130" d="M47.313,74.687c-.4,1.965-1.745,3.8-4.213,3.207-8.881-2.1-22.8-2.73-31.04-.734-3.029.734-4.443-.587-5.58-4.208-2.835-9-7.309-19.843-6.345-33.739C2.287,8.084,15.14-.535,24.823.025S59.39,15.975,47.313,74.687ZM7.48,93.262a79.843,79.843,0,0,0-2.709,14.2C3.157,122.013,6.285,132.11,20.5,134.153c11.989,1.729,19.686-7.283,21.289-21.834.969-8.792,1.053-14.4,1.053-14.4Z" transform="translate(73.549 0)" fill="#fbf8ef"/>
          <path id="Path_131" data-name="Path 131" d="M25.728.025c9.683-.555,22.536,8.059,24.69,39.188.964,13.9-3.511,24.747-6.345,33.739-1.142,3.615-2.552,4.936-5.58,4.208-8.242-2-22.159-1.373-31.04.734-2.468.587-3.809-1.242-4.213-3.207C-8.839,15.975,16.05.586,25.728.025ZM7.708,97.914s.089,5.612,1.053,14.4c1.609,14.551,9.3,23.563,21.289,21.834,14.21-2.044,17.338-12.135,15.725-26.691a79.841,79.841,0,0,0-2.709-14.2Z" transform="translate(0 0)" fill="#fbf8ef"/>
        </g>
      </g>
      <g id="Pocket_Squares" data-name="Pocket Squares" transform="translate(-160.678 -195.561)">
        <path id="Path_724" data-name="Path 724" d="M-5668.933,306.308l7.406.852.686.08.878.1,7.069.812.318.038,7.088.816,3.045.35,3.068.354,1.222.14,6.507.748,1.97.228,4.067.468,6.036.694,1.23.142,2.535.292,2.027.234,8.517.98.486.056,5.833.672,1.712.2.1.012,7.892.908h.009l.429.05,3.544.408,1.708.2,1.835.212,1.17.134,6.03.694,1.949.226,7.109.818,2.471.284,1.94.224,1.023.118,4.308.5-5.791-38.867-57.785,18.424-14.488-17.073-42.455,23.648,3.252.374Z" transform="translate(6442.68 539.817)" fill="#fcf9ef"/>
        <path id="Path_725" data-name="Path 725" d="M3.7-.407,204.885,21.611l-9.828,84.2L-5.759,82.5Z" transform="translate(727.068 840.83)" fill="#9b0a07"/>
        <path id="Path_726" data-name="Path 726" d="M26.685,8.483A7.792,7.792,0,0,0,19.094.546H10.7V22.113h3.221V16.419h5.176A7.792,7.792,0,0,0,26.685,8.483Zm-7.649,5.291H13.918V3.192h5.118c2.473,0,4.457,2.387,4.457,5.291S21.509,13.774,19.036,13.774ZM40.229,2.645a7.276,7.276,0,0,1,5.435,2.5,9.164,9.164,0,0,1,2.329,6.182,9.237,9.237,0,0,1-2.329,6.211,7.154,7.154,0,0,1-10.87,0,9.237,9.237,0,0,1-2.329-6.211,9.164,9.164,0,0,1,2.329-6.182A7.322,7.322,0,0,1,40.229,2.645Zm0-2.645A11.148,11.148,0,0,0,29.273,11.33,11.173,11.173,0,0,0,40.229,22.688,11.173,11.173,0,0,0,51.185,11.33,11.148,11.148,0,0,0,40.229,0ZM70.594,17.023l-.431.518a7.154,7.154,0,0,1-10.87,0,9.237,9.237,0,0,1-2.329-6.211,9.164,9.164,0,0,1,2.329-6.182,7.154,7.154,0,0,1,10.87,0,4.2,4.2,0,0,1,.46.546l2.1-2.1A10.793,10.793,0,0,0,64.728,0,11.148,11.148,0,0,0,53.773,11.33,11.155,11.155,0,0,0,64.728,22.688a10.761,10.761,0,0,0,7.965-3.566ZM96.7.546H92.017l-11.5,9.834V.546H77.323V22.113h3.192V14.119L83.649,11.5l8.6,10.611H96.7L86.094,9.461Zm7.218,18.921V12.25h9.115V9.576h-9.115V3.192h11.157V.546H100.73V22.113h14.9V19.467ZM133.6.546H117.063V3.192h6.671V22.113h3.192V3.192H133.6ZM15.672,43.248c-1.093-2.9-4.17-3.824-6.9-4.658-2.3-.69-3.939-1.352-4.515-2.933a3.213,3.213,0,0,1,.2-2.415c.978-1.84,3.508-1.84,3.537-1.84a7.322,7.322,0,0,1,5.435,2.5,4.2,4.2,0,0,1,.46.546l2.1-2.1a10.745,10.745,0,0,0-7.994-3.594c-.489,0-4.745.086-6.412,3.249a5.58,5.58,0,0,0-.345,4.543c1.006,2.818,4.083,3.767,6.758,4.572,2.358.719,4.026,1.38,4.63,3.048a3.3,3.3,0,0,1-.058,2.243c-.6,1.438-2.07,2.358-4.572,2.387a7.276,7.276,0,0,1-5.435-2.5,2.577,2.577,0,0,1-.431-.546L0,47.878a10.871,10.871,0,0,0,7.994,3.566c3.623-.029,6.527-1.553,7.563-4A5.854,5.854,0,0,0,15.672,43.248Zm26.34,7.419-2.991-3.192a11.6,11.6,0,0,0,2.645-7.39,11.148,11.148,0,0,0-10.956-11.33,11.129,11.129,0,0,0-10.956,11.33A11.155,11.155,0,0,0,30.711,51.443a10.544,10.544,0,0,0,6.384-2.157l2.962,3.192ZM30.711,48.8a7.336,7.336,0,0,1-5.464-2.5,9.5,9.5,0,0,1,0-12.394,7.185,7.185,0,0,1,10.9,0,9.139,9.139,0,0,1,2.3,6.182,9.4,9.4,0,0,1-1.5,5.176L33.874,41.9l-1.955,1.812,3.249,3.508A7.269,7.269,0,0,1,30.711,48.8ZM59.869,29.3V42.414c0,1.294-.23,6.384-5.435,6.384s-5.492-5.09-5.492-6.384V29.3H45.75V42.414c0,3.479,1.438,9.029,8.684,9.029s8.627-5.55,8.627-9.029V29.3Zm15.729,0H73.643L64.786,50.868h3.451l2.128-5.636h8.483L81,50.868h3.451ZM71.371,42.587l3.249-8.512,3.221,8.512Zm31.66-5.636A7.567,7.567,0,0,0,95.41,29.3H87.043V50.868h3.192V44.6h5.032l4.227,6.269h3.537L98.4,44.024A7.547,7.547,0,0,0,103.031,36.951Zm-12.8-5h5.147c2.444,0,4.457,2.1,4.457,5,0,2.933-2.013,5-4.457,5H90.234Zm20.3,16.276V41.005h9.115V38.331h-9.115V31.947h11.157V29.3H107.344V50.868h14.9V48.223Zm30.251-4.975c-1.093-2.9-4.17-3.824-6.9-4.658-2.3-.69-3.939-1.352-4.515-2.933a3.213,3.213,0,0,1,.2-2.415c.978-1.84,3.508-1.84,3.537-1.84a7.322,7.322,0,0,1,5.435,2.5,4.2,4.2,0,0,1,.46.546l2.1-2.1a10.745,10.745,0,0,0-7.994-3.594c-.489,0-4.745.086-6.412,3.249a5.58,5.58,0,0,0-.345,4.543c1.006,2.818,4.083,3.767,6.757,4.572,2.358.719,4.026,1.38,4.63,3.048a3.3,3.3,0,0,1-.058,2.243c-.6,1.438-2.07,2.358-4.572,2.387a7.276,7.276,0,0,1-5.435-2.5,2.577,2.577,0,0,1-.431-.546l-2.128,2.128a10.871,10.871,0,0,0,7.994,3.566c3.623-.029,6.527-1.553,7.563-4A5.854,5.854,0,0,0,140.786,43.248Z" transform="matrix(0.995, 0.105, -0.105, 0.995, 757.284, 859.283)" fill="#fcf9ef"/>
      </g>
      <g id="Belts" transform="matrix(0.53, 0.848, -0.848, 0.53, 844.987, 73.697)">
        <path id="Path_138" data-name="Path 138" d="M9.322,7.687a4.36,4.36,0,0,0,1.259-3.07A4.118,4.118,0,0,0,6.561.42H0V16.987H6.561a5.008,5.008,0,0,0,4.926-5.081A5.115,5.115,0,0,0,9.322,7.687ZM2.452,2.452H6.561c.861,0,1.568.994,1.568,2.165,0,1.149-.663,2.143-1.5,2.209H2.452Zm4.109,12.5H2.452v-6.1H6.671a2.851,2.851,0,0,1,2.364,3.048A2.807,2.807,0,0,1,6.561,14.954Zm11.133,0V9.41h7V7.356h-7v-4.9h8.571V.42H15.242V16.987H26.684V14.954Zm14.093,0V.42H29.335V16.987h10.8V14.954ZM51.866.42h-12.7V2.452h5.125V16.987h2.452V2.452h5.125ZM65.009,11.133c-.839-2.231-3.2-2.938-5.3-3.578-1.767-.53-3.026-1.038-3.468-2.253a2.468,2.468,0,0,1,.155-1.855,3.271,3.271,0,0,1,2.717-1.414,5.625,5.625,0,0,1,4.175,1.922,3.23,3.23,0,0,1,.353.42l1.613-1.613A8.254,8.254,0,0,0,59.111,0c-.376,0-3.645.066-4.926,2.5a4.286,4.286,0,0,0-.265,3.49c.773,2.165,3.137,2.894,5.191,3.512,1.811.552,3.093,1.06,3.556,2.341a2.532,2.532,0,0,1-.044,1.723c-.464,1.1-1.59,1.811-3.512,1.833a5.589,5.589,0,0,1-4.175-1.922,1.979,1.979,0,0,1-.331-.42L52.97,14.689a8.351,8.351,0,0,0,6.141,2.739c2.783-.022,5.014-1.193,5.809-3.07A4.5,4.5,0,0,0,65.009,11.133Z" transform="matrix(0.537, -0.843, 0.843, 0.537, 33.954, 104.865)" fill="#fbf8ef"/>
        <g id="belt-and-buckle" transform="translate(0 39.675) rotate(-13)">
          <g id="Group_24" data-name="Group 24" transform="translate(0 0)">
            <path id="Path_132" data-name="Path 132" d="M51.376,1.979A6.6,6.6,0,0,0,42.03,1.9L0,43.951,41.207,85.158l42.05-42.03a6.528,6.528,0,0,0-.02-9.288ZM44.989,48.32a5.736,5.736,0,1,1,0-8.112A5.748,5.748,0,0,1,44.989,48.32Zm15.3-15.284a5.736,5.736,0,1,1,0-8.112A5.747,5.747,0,0,1,60.292,33.037Z" transform="translate(91.184 0)" fill="#fbf8ef"/>
            <path id="Path_133" data-name="Path 133" d="M39.629,1.636A5.324,5.324,0,0,0,31.987,1.6l-.078.078-28.9,28.9c-2.449,2.449-4.428,6.78-1.666,14.559C1.949,46.37,2.517,47.9,3.36,49.447A81.118,81.118,0,0,0,17.292,67.434,81.326,81.326,0,0,0,35.3,81.385a27.14,27.14,0,0,0,4.311,2,24.29,24.29,0,0,0,4.252,1.2c5.153.9,8.426-.823,10.209-2.449L83.364,52.993a5.467,5.467,0,0,0-.157-7.76Zm6.035,68.7c-2.822-.921-9.562-4.389-18.125-12.952-8.5-8.5-12.207-15.421-12.991-18.086L35.769,18.076,46.076,28.383,34.4,40.08a7.177,7.177,0,0,0,10.15,10.15L56.226,38.552l10.62,10.62Z" transform="translate(45.246 46.939)" fill="#fbf8ef"/>
            <path id="Path_134" data-name="Path 134" d="M57.07,24.356A88.56,88.56,0,0,1,41.787,4.507,49.226,49.226,0,0,1,39.67,0L1.932,37.739A6.615,6.615,0,0,0,.168,43.891L6.046,69.874a6.61,6.61,0,0,0,5,5l25.982,5.859a6.588,6.588,0,0,0,6.133-1.783L80.681,41.423c-1.293-.588-2.488-1.117-3.762-1.8A87.864,87.864,0,0,1,57.07,24.356Z" transform="translate(0 95.464)" fill="#fbf8ef"/>
          </g>
        </g>
      </g>
      <g id="Suits" transform="translate(-122 -202)">
        <g id="Group_110" data-name="Group 110" transform="translate(306.44 287.844)">
          <g id="Group_104" data-name="Group 104" transform="translate(121.038 441.051)">
            <path id="Path_727" data-name="Path 727" d="M153.209,469.033l69.434,173.648,69.434-173.648Z" transform="translate(-153.209 -456.571)" fill="#fcf9ef"/>
            <g id="Group_103" data-name="Group 103" transform="translate(0)">
              <path id="Path_728" data-name="Path 728" d="M279.015,449.377l-54.258,24.26L170.5,449.377,157.02,460.86,185.3,510.041c22.093-13.779,34.513-26.521,39.455-32.183,4.942,5.663,17.363,18.4,39.455,32.183l29.979-51.91Z" transform="translate(-155.323 -445.669)" fill="#fbf8ef"/>
              <path id="Path_729" data-name="Path 729" d="M303.423,466.445s12.21,16.694,41.992,35.27l29.979-48.2-15.176-12.462Z" transform="translate(-236.526 -441.051)" fill="#fbf8ef"/>
              <path id="Path_730" data-name="Path 730" d="M225.18,466.445s-12.21,16.694-41.992,35.27l-29.978-48.2,15.176-12.462Z" transform="translate(-153.209 -441.051)" fill="#fbf8ef"/>
              <path id="Path_731" data-name="Path 731" d="M187.286,441.051H295.8l-54.258,24.26Z" transform="translate(-172.11 -441.051)" fill="#fbf8ef"/>
              <path id="Path_732" data-name="Path 732" d="M379.731,451.3c2.043-1.056,4.241-2.143,6.527-1.889,3.2.355,5.48,3.161,7.4,5.746-14.262,3.687-29.471,7.374-43.733,11.06C359.542,461.248,370.11,456.276,379.731,451.3Z" transform="translate(-262.316 -445.669)" fill="#fbf8ef"/>
              <path id="Path_733" data-name="Path 733" d="M185.475,451.3c-2.043-1.056-4.241-2.143-6.527-1.889-3.2.355-5.48,3.161-7.4,5.746,14.262,3.687,29.471,7.374,43.733,11.06C205.664,461.248,195.1,456.276,185.475,451.3Z" transform="translate(-163.383 -445.669)" fill="#fbf8ef"/>
            </g>
            <path id="Path_734" data-name="Path 734" d="M310.879,586.972a3.109,3.109,0,1,1-3.109-3.109A3.109,3.109,0,0,1,310.879,586.972Z" transform="translate(-237.212 -520.262)" fill="url(#linear-gradient)"/>
            <path id="Path_735" data-name="Path 735" d="M310.879,650.741a3.109,3.109,0,1,1-3.109-3.109A3.109,3.109,0,0,1,310.879,650.741Z" transform="translate(-237.212 -555.632)" fill="url(#linear-gradient)"/>
            <circle id="Ellipse_6" data-name="Ellipse 6" cx="3.109" cy="3.109" r="3.109" transform="translate(67.449 120.4)" fill="url(#linear-gradient)"/>
          </g>
          <g id="Group_108" data-name="Group 108" transform="translate(157.461 455.796)">
            <g id="Group_105" data-name="Group 105" transform="translate(35.906)">
              <path id="Path_736" data-name="Path 736" d="M339.438,501.113a13.815,13.815,0,0,1-5.281-1.488l-15.9-7.3c-.279-.755-.513-1.589-.739-2.4-.1-.366-.2-.731-.311-1.091-.053-.176-.106-.35-.161-.522-.088-.278-.165-.51-.24-.718a66.26,66.26,0,0,1,19.185-11.218,14.861,14.861,0,0,1,5.242-1.218h.14a5.615,5.615,0,0,1,4.592,2.192c1.182,1.766.865,4.177.44,6.495l-2.109,11.48a13.944,13.944,0,0,1-.882,3.2,4.511,4.511,0,0,1-1.267,1.714,4.166,4.166,0,0,1-2.7.87Z" transform="translate(-316.276 -474.716)" fill="#670707"/>
              <path id="Path_737" data-name="Path 737" d="M317.867,509.846l16.072,7.375c2.709,1.243,6.118,2.42,8.449.562a4.962,4.962,0,0,0,1.394-1.877,65.947,65.947,0,0,0-27.039-9.75C317.109,507.4,317.424,508.7,317.867,509.846Z" transform="translate(-316.242 -491.907)" fill="#670707"/>
              <path id="Path_738" data-name="Path 738" d="M346,500.494a78.492,78.492,0,0,0-10.3-1.37,47.313,47.313,0,0,0-19.312,2.558c.054.17.107.342.159.515a65.946,65.946,0,0,1,27.039,9.75,14.255,14.255,0,0,0,.915-3.3Z" transform="translate(-316.045 -487.948)" fill="#670707"/>
              <path id="Path_739" data-name="Path 739" d="M335.273,485.337a78.481,78.481,0,0,1,10.3,1.37l.612-3.332c.423-2.3.8-4.877-.507-6.823a6.045,6.045,0,0,0-4.955-2.39,15.18,15.18,0,0,0-5.547,1.246,67.062,67.062,0,0,0-19.554,11.5c.123.32.234.653.341.991A47.314,47.314,0,0,1,335.273,485.337Z" transform="translate(-315.62 -474.161)" fill="#670707"/>
            </g>
            <g id="Group_106" data-name="Group 106">
              <path id="Path_740" data-name="Path 740" d="M243.349,501.113a13.816,13.816,0,0,0,5.281-1.488l15.9-7.3c.279-.755.513-1.589.739-2.4.1-.366.2-.731.311-1.091.053-.176.106-.35.161-.522.088-.278.165-.51.24-.718A66.26,66.26,0,0,0,246.8,476.379a14.863,14.863,0,0,0-5.242-1.218h-.14a5.615,5.615,0,0,0-4.592,2.192c-1.182,1.766-.865,4.177-.44,6.495l2.109,11.48a13.941,13.941,0,0,0,.882,3.2,4.511,4.511,0,0,0,1.267,1.714,4.166,4.166,0,0,0,2.7.87Z" transform="translate(-235.554 -474.716)" fill="#670707"/>
              <path id="Path_741" data-name="Path 741" d="M268.587,509.846l-16.072,7.375c-2.709,1.243-6.118,2.42-8.449.562a4.963,4.963,0,0,1-1.394-1.877,65.945,65.945,0,0,1,27.039-9.75C269.344,507.4,269.029,508.7,268.587,509.846Z" transform="translate(-239.253 -491.907)" fill="#670707"/>
              <path id="Path_742" data-name="Path 742" d="M237.256,500.494a78.492,78.492,0,0,1,10.3-1.37,47.313,47.313,0,0,1,19.312,2.558c-.054.17-.107.342-.159.515a65.944,65.944,0,0,0-27.039,9.75,14.232,14.232,0,0,1-.915-3.3Z" transform="translate(-236.249 -487.948)" fill="#670707"/>
              <path id="Path_743" data-name="Path 743" d="M246.3,485.337a78.481,78.481,0,0,0-10.3,1.37l-.612-3.332c-.423-2.3-.8-4.877.507-6.823a6.045,6.045,0,0,1,4.955-2.39,15.182,15.182,0,0,1,5.547,1.246,67.061,67.061,0,0,1,19.554,11.5c-.123.32-.234.653-.341.991A47.314,47.314,0,0,0,246.3,485.337Z" transform="translate(-234.996 -474.161)" fill="#670707"/>
            </g>
            <g id="Group_107" data-name="Group 107" transform="translate(24.901 6.872)">
              <path id="Path_744" data-name="Path 744" d="M304.923,491.157a8.948,8.948,0,0,0-12.669,12.094A51.128,51.128,0,0,1,304.923,491.157Z" transform="translate(-290.909 -489.591)" fill="#670707"/>
              <path id="Path_745" data-name="Path 745" d="M306.6,493.107A51.128,51.128,0,0,0,293.928,505.2,8.952,8.952,0,1,0,306.6,493.107Z" transform="translate(-292.583 -491.541)" fill="#670707"/>
            </g>
          </g>
          <g id="Group_109" data-name="Group 109" transform="translate(95.207 453.513)">
            <path id="Path_746" data-name="Path 746" d="M121.038,469.033l69.434,173.648L95.207,509.261Z" transform="translate(-95.207 -469.033)" fill="#66090c"/>
            <path id="Path_747" data-name="Path 747" d="M378.553,469.033,309.119,642.681l95.265-133.42Z" transform="translate(-213.854 -469.033)" fill="#66090c"/>
            <path id="Path_748" data-name="Path 748" d="M117.685,590.844v119.4H202.94Z" transform="translate(-107.675 -536.596)" fill="#990e12"/>
            <path id="Path_749" data-name="Path 749" d="M394.374,590.844v119.4H309.119Z" transform="translate(-213.854 -536.596)" fill="#990e12"/>
          </g>
        </g>
        <text id="Suits-2" data-name="Suits" transform="translate(497 946)" fill="#fcf9ef" font-size="33" font-family="PierSans-Regular, Pier Sans"><tspan x="-49.038" y="0">SUITS</tspan></text>
      </g>
    </g>
    <path id="Categories_Text" data-name="Categories Text" d="M23.023,4.827l-.9,1.082a15.308,15.308,0,0,1-11.361,5.23A15.211,15.211,0,0,1-.6,5.909,19.31,19.31,0,0,1-5.47-7.075,19.157,19.157,0,0,1-.6-20,15.211,15.211,0,0,1,10.76-25.23,15.308,15.308,0,0,1,22.122-20a8.79,8.79,0,0,1,.962,1.142l4.388-4.388A22.562,22.562,0,0,0,10.76-30.76c-12.684,0-22.9,10.64-22.9,23.685,0,13.1,10.219,23.745,22.9,23.745A22.5,22.5,0,0,0,27.412,9.215ZM9.708,30.5H5.621L-12.894,75.581h7.214L-1.232,63.8H16.5L21.01,75.581h7.214ZM.872,58.268,7.664,40.475,14.4,58.268ZM25.248,90.609H-9.318v5.53H4.629v39.555H11.3V96.14H25.248ZM.27,190.277V175.189H19.326V169.6H.27V156.253H23.594v-5.53h-30v45.085H24.737v-5.53Zm11.361,40.4v5.53H23.114a19.136,19.136,0,0,1-4.689,10.159,15.211,15.211,0,0,1-11.361,5.23A15.308,15.308,0,0,1-4.3,246.363a19.259,19.259,0,0,1-4.809-12.985A19.106,19.106,0,0,1-4.3,220.454a15.308,15.308,0,0,1,11.361-5.23,15.211,15.211,0,0,1,11.361,5.23c.361.361.661.781.962,1.142l4.388-4.388a22.366,22.366,0,0,0-16.712-7.514c-12.624,0-22.9,10.64-22.9,23.685,0,13.1,10.279,23.745,22.9,23.745a22.673,22.673,0,0,0,16.231-6.973v5.771h6.673V230.674ZM7.664,275.338a15.211,15.211,0,0,1,11.361,5.23A19.157,19.157,0,0,1,23.9,293.492a19.31,19.31,0,0,1-4.869,12.984,15.211,15.211,0,0,1-11.361,5.23A15.308,15.308,0,0,1-3.7,306.477a19.31,19.31,0,0,1-4.869-12.984A19.157,19.157,0,0,1-3.7,280.568,15.308,15.308,0,0,1,7.664,275.338Zm0-5.53c-12.624,0-22.9,10.58-22.9,23.685s10.279,23.745,22.9,23.745,22.9-10.64,22.9-23.745S20.288,269.808,7.664,269.808Zm17.613,77.246a15.819,15.819,0,0,0-15.93-15.99H-8.145v45.085h6.673v-13.1H9.047l8.837,13.1h7.394L15.6,361.841A15.777,15.777,0,0,0,25.278,347.053Zm-26.751-10.46H9.287c5.11,0,9.318,4.388,9.318,10.46,0,6.132-4.208,10.46-9.318,10.46H-1.473ZM10.7,391.177H4.028v45.085H10.7ZM.27,490.845V475.756H19.326v-5.591H.27V456.821H23.594v-5.53h-30v45.085H24.737v-5.53Zm23.114,49.714c-2.284-6.071-8.716-8-14.427-9.738C4.148,529.378.721,528-.481,524.689a6.717,6.717,0,0,1,.421-5.049c2.044-3.847,7.334-3.847,7.394-3.847a15.308,15.308,0,0,1,11.361,5.23,8.794,8.794,0,0,1,.962,1.142l4.388-4.388a22.464,22.464,0,0,0-16.712-7.514c-1.022,0-9.919.18-13.405,6.793a11.664,11.664,0,0,0-.721,9.5c2.1,5.891,8.536,7.875,14.127,9.558,4.929,1.5,8.416,2.885,9.678,6.372a6.89,6.89,0,0,1-.12,4.689c-1.262,3.006-4.328,4.929-9.558,4.989a15.211,15.211,0,0,1-11.361-5.23,5.388,5.388,0,0,1-.9-1.142l-4.448,4.448a22.727,22.727,0,0,0,16.712,7.454c7.574-.06,13.646-3.246,15.81-8.356A12.238,12.238,0,0,0,23.384,540.559Z" transform="translate(1900.759 471.018)" fill="#fbf8ef"/>
  </g>
</svg>
