<svg xmlns="http://www.w3.org/2000/svg" width="161.237" height="129.043" viewBox="0 0 161.237 129.043">
  <g id="Cufflinks" transform="translate(0 -23.019)">
    <g id="classic-cufflinks" transform="translate(78.671 0) rotate(45)">
      <path id="Path_126" data-name="Path 126" d="M.476,26.362H51.3a.475.475,0,0,0,.476-.476A25.888,25.888,0,0,0,0,25.886.475.475,0,0,0,.476,26.362Zm7.606-9.38A18.341,18.341,0,0,1,25.015,5.76a3.075,3.075,0,0,1,0,6.15,12.2,12.2,0,0,0-11.266,7.465,3.075,3.075,0,0,1-5.666-2.393Z" transform="translate(5.125 27.429)" fill="#fbf8ef"/>
      <path id="Path_127" data-name="Path 127" d="M56.9,0H5.125a5.125,5.125,0,1,0,0,10.251H25.886V26.411H17.979a4.1,4.1,0,1,0,0,8.2h7.908v4.2a5.125,5.125,0,1,0,10.251,0v-4.2h7.91a4.1,4.1,0,1,0,0-8.2h-7.91V10.251H56.9A5.125,5.125,0,1,0,56.9,0Z" transform="translate(0 58.32)" fill="#fbf8ef"/>
      <path id="Path_128" data-name="Path 128" d="M.476,26.362H51.3a.475.475,0,0,0,.476-.476A25.888,25.888,0,0,0,0,25.886.475.475,0,0,0,.476,26.362Zm7.606-9.38A18.341,18.341,0,0,1,25.015,5.76a3.075,3.075,0,1,1,0,6.15,12.2,12.2,0,0,0-11.267,7.465,3.075,3.075,0,0,1-5.666-2.393Z" transform="translate(64.99 0)" fill="#fbf8ef"/>
      <path id="Path_129" data-name="Path 129" d="M56.9,0H5.125a5.125,5.125,0,1,0,0,10.251H25.886V26.411H17.979a4.1,4.1,0,0,0,0,8.2h7.908v4.2a5.125,5.125,0,0,0,10.251,0v-4.2h7.91a4.1,4.1,0,1,0,0-8.2h-7.91V10.251H56.9A5.125,5.125,0,0,0,56.9,0Z" transform="translate(59.865 30.891)" fill="#fbf8ef"/>
    </g>
    <path id="Path_140" data-name="Path 140" d="M12.013,12.157l-.308.37a5.229,5.229,0,0,1-3.881,1.787,5.2,5.2,0,0,1-3.881-1.787A6.6,6.6,0,0,1,2.279,8.091,6.544,6.544,0,0,1,3.943,3.676,5.2,5.2,0,0,1,7.824,1.889a5.229,5.229,0,0,1,3.881,1.787,3,3,0,0,1,.329.39l1.5-1.5A7.707,7.707,0,0,0,7.824,0,7.961,7.961,0,0,0,0,8.091,7.966,7.966,0,0,0,7.824,16.2a7.685,7.685,0,0,0,5.688-2.546ZM26.285.39V9.754c0,.924-.164,4.559-3.881,4.559s-3.922-3.635-3.922-4.559V.39H16.2V9.754c0,2.485,1.027,6.448,6.2,6.448s6.161-3.963,6.161-6.448V.39ZM41.872,2.279V.39H31.645v15.4h2.279V8.974h6.51V7.085h-6.51V2.279Zm13.1,0V.39H44.747v15.4h2.279V8.974h6.51V7.085h-6.51V2.279ZM59.717,13.9V.39H57.438v15.4H67.479V13.9ZM72.428.39H70.149v15.4h2.279Zm17.619,0H87.768V12.65L79.493.39H76.741v15.4h2.3V3.532L87.3,15.792h2.752Zm17.743,0h-3.347L96.229,7.413V.39H93.95v15.4h2.279V10.083l2.238-1.869,6.14,7.578h3.183l-7.578-9.036Zm13.245,9.96c-.78-2.074-2.978-2.731-4.929-3.327-1.643-.493-2.813-.965-3.224-2.095a2.3,2.3,0,0,1,.144-1.725,3.041,3.041,0,0,1,2.526-1.314,5.229,5.229,0,0,1,3.881,1.787,3,3,0,0,1,.329.39l1.5-1.5A7.674,7.674,0,0,0,115.553,0c-.349,0-3.388.062-4.579,2.321a3.985,3.985,0,0,0-.246,3.245c.719,2.012,2.916,2.69,4.826,3.265,1.684.513,2.875.986,3.306,2.177a2.354,2.354,0,0,1-.041,1.6c-.431,1.027-1.479,1.684-3.265,1.7a5.2,5.2,0,0,1-3.881-1.787,1.84,1.84,0,0,1-.308-.39l-1.52,1.52a7.764,7.764,0,0,0,5.709,2.546c2.587-.021,4.662-1.109,5.4-2.854A4.181,4.181,0,0,0,121.036,10.35Z" transform="translate(5.938 92.54) rotate(21.5)" fill="#fbf8ef"/>
  </g>
</svg>
