<svg xmlns="http://www.w3.org/2000/svg" width="242.831" height="221.269" viewBox="0 0 242.831 221.269">
  <g id="Hats" transform="translate(0 0)">
    <g id="Group_11" data-name="Group 11" transform="matrix(0.883, -0.469, 0.469, 0.883, 0, 92.793)">
      <path id="Path_53" data-name="Path 53" d="M160.405,68.532S147.993,0,127.631,0c-7.945,0-12.417,10.929-28.8,10.929S77.974,0,70.029,0C49.662,0,37.245,68.532,37.245,68.532S0,75.489,0,96.381s46.683,49.127,98.83,49.127,98.825-28.23,98.825-49.127S160.405,68.532,160.405,68.532Z" fill="#fbf8ef"/>
      <path id="Path_54" data-name="Path 54" d="M130.116,0S98.327,19.205,67.874,19.205,5.628,0,5.628,0L0,23.178S20.856,47.349,67.874,47.349s67.87-24.171,67.87-24.171Z" transform="translate(30.955 68.201)" fill="#c51116"/>
    </g>
    <path id="Path_135" data-name="Path 135" d="M11.73.48V8.8H2.806V.48H0V19.441H2.806V11.124H11.73v8.317h2.806V.48Zm14.587,0H24.6L16.812,19.441h3.034l1.871-4.955h7.458l1.9,4.955H34.1ZM22.6,12.16l2.857-7.483,2.831,7.483ZM46.972.48H32.435V2.806H38.3V19.441h2.806V2.806h5.865ZM62.014,12.741c-.961-2.553-3.666-3.362-6.067-4.1-2.022-.607-3.463-1.188-3.969-2.579a2.825,2.825,0,0,1,.177-2.124c.86-1.618,3.084-1.618,3.11-1.618a6.438,6.438,0,0,1,4.778,2.2,3.7,3.7,0,0,1,.4.48L62.292,3.16A9.447,9.447,0,0,0,55.264,0c-.43,0-4.171.076-5.638,2.857a4.905,4.905,0,0,0-.3,3.994c.885,2.478,3.59,3.312,5.941,4.02,2.073.632,3.539,1.213,4.07,2.68a2.9,2.9,0,0,1-.051,1.972c-.531,1.264-1.82,2.073-4.02,2.1a6.4,6.4,0,0,1-4.778-2.2,2.265,2.265,0,0,1-.379-.48l-1.871,1.871a9.558,9.558,0,0,0,7.028,3.135c3.185-.025,5.739-1.365,6.649-3.514A5.147,5.147,0,0,0,62.014,12.741Z" transform="matrix(0.749, 0.663, -0.663, 0.749, 141.546, 14.595)" fill="#fbf8ef"/>
  </g>
</svg>
