<svg xmlns="http://www.w3.org/2000/svg" width="1920" height="947.179" viewBox="0 0 1920 947.179">
  <g id="HomeArt" transform="translate(0 -132.821)">
    <g id="Tuxedo" transform="translate(-1593.499 -276.96)">
      <rect id="Rectangle_1" data-name="Rectangle 1" width="1920" height="942" transform="translate(1593.499 414.96)" fill="#050505"/>
      <g id="Group_2" data-name="Group 2" transform="translate(2098.505 415)">
        <path id="Path_3" data-name="Path 3" d="M359.436,538.729,417.5,708.695,359.436,537.954Z" transform="translate(37.035 233.266)"/>
        <path id="Path_9" data-name="Path 9" d="M432.033,751.011v-.871L337.1,470.981,176.946,0h-1.462L334.722,466.151Z" transform="translate(-42.729)"/>
        <path id="Path_11" data-name="Path 11" d="M460.865,532.072,399.936,711.245l60.929-178.359Z" transform="translate(54.597 230.715)"/>
        <path id="Path_13" data-name="Path 13" d="M447.437,741.708v.908l94.442-276.465L701.118,0h-1.463L539.5,470.981Z" transform="translate(75.193)"/>
        <path id="Path_26" data-name="Path 26" d="M459.536,102.137h.013v-1.546h0Z" transform="translate(80.44 43.618)" fill="#fff"/>
        <path id="Path_28" data-name="Path 28" d="M406.423,99.448a31.817,31.817,0,0,1,4.137,1.758A27.5,27.5,0,0,1,421.8,112.787c-.089-5.894-.81-11.625-3.874-16.368-1.766-2.731-8.111-6.03-13.344-6.03a5.965,5.965,0,0,0-4.024,1.211c-1.379,1.319-2.084,2.5-1.932,3.249C399,96.655,403.648,98.4,406.423,99.448Z" transform="translate(54.022 39.195)" fill="#fff"/>
        <path id="Path_29" data-name="Path 29" d="M478.426,153.451c-3.375-2.5-6.718-5.092-10.007-7.816-6.136-5.1-11.521-9.934-16.464-14.786-2.948-2.9-5.436-4.031-8.886-4.031h-.279c-7.4.122-15.215.181-23.887.181-9.628,0-19.1-.073-26.274-.139h-.175a10.944,10.944,0,0,0-8.364,3.488,267.54,267.54,0,0,1-24.655,21.265V716.23L417.5,886.97,478.426,707.8ZM417.5,714.463a23.731,23.731,0,1,1,23.729-23.731A23.731,23.731,0,0,1,417.5,714.463Zm0-153.309a23.73,23.73,0,1,1,23.729-23.731A23.729,23.729,0,0,1,417.5,561.154Zm0-153.308a23.731,23.731,0,1,1,23.729-23.731A23.73,23.73,0,0,1,417.5,407.846Z" transform="translate(37.035 54.99)" fill="#f9f6ef"/>
        <path id="Path_30" data-name="Path 30" d="M450.153,828.526c-12.706-533.089,119.076-512.894,91.59,0L656.979,474.257,817.135,0H176.5L336.66,474.257Z" transform="translate(-42.287 -5.219)" fill="#f9f6ef"/>
        <path id="Path_31" data-name="Path 31" d="M324.841,137.616c5.524-1.447,10.784-2.877,15.841-4.493C335.273,134.3,329.714,135.524,324.841,137.616Z" transform="translate(22.034 57.724)" fill="#fff"/>
        <path id="Path_32" data-name="Path 32" d="M361.6,144.113q-3.561,2.7-7.168,5.226V688.521l7.168,20.984V144.113Z" transform="translate(34.867 62.49)" fill="#d1d3d4"/>
        <path id="Path_33" data-name="Path 33" d="M442.436,699.741v.814L449.6,679.57V150.513q-3.615-2.473-7.168-5.118Z" transform="translate(73.025 63.046)" fill="#d1d3d4"/>
        <path id="Path_35" data-name="Path 35" d="M459.545,100.594v0Z" transform="translate(80.444 43.617)" fill="#be1e2d"/>
        <path id="Path_45" data-name="Path 45" d="M407.113,289.739a23.731,23.731,0,1,0,23.729,23.731A23.73,23.73,0,0,0,407.113,289.739Z" transform="translate(47.419 125.636)"/>
        <path id="Path_46" data-name="Path 46" d="M407.113,396.678a23.73,23.73,0,1,0,23.729,23.729A23.729,23.729,0,0,0,407.113,396.678Z" transform="translate(47.419 172.006)"/>
        <path id="Path_47" data-name="Path 47" d="M407.113,503.616a23.731,23.731,0,1,0,23.729,23.731A23.73,23.73,0,0,0,407.113,503.616Z" transform="translate(47.419 218.376)"/>
        <path id="Path_48" data-name="Path 48" d="M280.2,530.318,537.416,941.96,479.355,771.995l-7.168-20.983-97.311-284.86L215.638,0H206.77L82.883,214.538Z" transform="translate(-82.883)" fill="#231f20"/>
        <path id="Path_49" data-name="Path 49" d="M468.033,742.617,460.865,763.6,399.936,941.96,657.153,530.318,854.47,214.538,730.581,0h-8.866L562.476,466.151Z" transform="translate(54.597)" fill="#231f20"/>
      </g>
    </g>
    <g id="Logo" transform="translate(445.408 10.62)">
      <rect id="Rectangle_2" data-name="Rectangle 2" width="97.695" height="97.705" rx="7" transform="translate(465.295 245.331)" fill="#c01a27"/>
      <path id="Path_50" data-name="Path 50" d="M349.653,253.878l115.126-43.549c12.722-3.943,22.905,3.566,23.257,17.348,0,0-4.421,54.084-4.421,72.119,0,19.726,4.421,78.884,4.421,78.884-.352,13.734-10.1,20.18-22.269,14.893l-116.3-58.656a7.979,7.979,0,0,1-3.965-6.485v-68.5A6.98,6.98,0,0,1,349.653,253.878Z" transform="translate(219.831 0)" fill="#c01a27"/>
      <path id="Path_51" data-name="Path 51" d="M458.9,253.878,343.69,210.328c-12.731-3.943-22.921,3.566-23.283,17.348,0,0,4.424,54.084,4.424,72.119,0,19.726-4.424,78.884-4.424,78.884.362,13.734,10.114,20.18,22.293,14.893l116.377-58.656a7.979,7.979,0,0,0,3.968-6.485v-68.5A6.98,6.98,0,0,0,458.9,253.878Z" transform="translate(0 0)" fill="#c01a27"/>
      <path id="Path_121" data-name="Path 121" d="M29.154-86.219a26.392,26.392,0,0,0-10.961,2.26c-5.311,2.825-7.8,7.232-8.136,11.865-.791,10.848,5.65,15.481,8.927,17.854,2.6,1.695,10.057,5.989,15.594,8.7,5.763,2.938,11.187,5.65,14.464,8.588a25.84,25.84,0,0,1,8.249,13.673,16.35,16.35,0,0,1,.226,4.746,16.148,16.148,0,0,0,.791-4.181,25.192,25.192,0,0,0-2.486-10.848c-2.147-3.955-3.955-5.424-6.893-7.684C46.1-43.5,39.324-46.9,36.386-48.364c-3.277-1.582-15.933-8.362-19.323-11.865A15.064,15.064,0,0,1,13.221-71.19a11.407,11.407,0,0,1,6.554-10.17,22.127,22.127,0,0,1,9.718-2.034,22.616,22.616,0,0,1,12.543,4.181,15.743,15.743,0,0,1,5.537,7.345,32.572,32.572,0,0,1,2.6,11.187h3.39c0-11.413.113-19.323.565-24.295h-3.39a18.242,18.242,0,0,1-.791,4.068c-.339.791-.791,1.243-1.582,1.243-.9,0-1.7-.339-3.5-1.469-1.13-.678-2.6-1.469-3.729-2.034A24.928,24.928,0,0,0,29.154-86.219ZM38.646-.791C44.409-2.034,48.477-4.746,51.3-9.04c5.989-9.379,1.808-19.662-4.52-25.2-2.938-2.6-8.249-5.311-13.786-8.136a147,147,0,0,1-16.724-9.492C12.882-54.353,5.65-59.551,6.554-72.32a17.09,17.09,0,0,1,2.373-7.232,23.059,23.059,0,0,0-2.6,3.051C4.407-73.45,2.6-69.834,2.6-65.427c0,4.181.791,9.605,3.39,13.786a27.607,27.607,0,0,0,7.006,7.91c5.085,4.068,15.82,9.04,25.538,14.69,2.712,1.695,8.927,5.763,8.814,12.769a12.55,12.55,0,0,1-2.6,7.571c-2.26,2.825-7.571,5.424-15.481,5.311a23.233,23.233,0,0,1-17.4-7.458C7.91-15.255,7.345-21.018,6.78-29.154H3.39c0,14.916-.226,23.73-.452,28.137h3.39a16.01,16.01,0,0,1,.9-3.842c.452-.791.9-1.356,1.582-1.356.9,0,.791-.226,3.277,1.243a32.978,32.978,0,0,0,5.424,2.6A30.3,30.3,0,0,0,29.267,0,46.358,46.358,0,0,0,38.646-.791Z" transform="translate(356.592 337.38)" fill="#fbf8ef"/>
      <path id="Path_120" data-name="Path 120" d="M76.275-85.315H69.5L58.082-62.15,43.844-33l.113,29.719h-3.5l-.113-28.7L12.769-85.315H2.6L31.64-28.928v16.272A18.941,18.941,0,0,1,30.849-6.1a4.315,4.315,0,0,1-2.6,2.825,25.152,25.152,0,0,1-6.215.9V0H47.347l.226-33.109L66.9-72.546a35.03,35.03,0,0,1,4.859-7.684,9.963,9.963,0,0,1,4.52-3.051Zm-42.714,0H16.724L41.81-36.725,43.5-40.454,25.99-74.241a9.682,9.682,0,0,1-1.017-4.181c0-3.164,2.712-4.746,8.588-4.746Z" transform="translate(605.592 337.38)" fill="#fbf8ef"/>
    </g>
  </g>
</svg>
