<svg xmlns="http://www.w3.org/2000/svg" width="387.461" height="186.131" viewBox="0 0 387.461 186.131">
  <g id="Logo" transform="translate(-320.407 -209.282)">
    <rect id="Rectangle_2" data-name="Rectangle 2" width="97.695" height="97.705" rx="7" transform="translate(465.295 245.331)" fill="#c01a27"/>
    <path id="Path_50" data-name="Path 50" d="M349.653,253.878l115.126-43.549c12.722-3.943,22.905,3.566,23.257,17.348,0,0-4.421,54.084-4.421,72.119,0,19.726,4.421,78.884,4.421,78.884-.352,13.734-10.1,20.18-22.269,14.893l-116.3-58.656a7.979,7.979,0,0,1-3.965-6.485v-68.5A6.98,6.98,0,0,1,349.653,253.878Z" transform="translate(219.831 0)" fill="#c01a27"/>
    <path id="Path_51" data-name="Path 51" d="M458.9,253.878,343.69,210.328c-12.731-3.943-22.921,3.566-23.283,17.348,0,0,4.424,54.084,4.424,72.119,0,19.726-4.424,78.884-4.424,78.884.362,13.734,10.114,20.18,22.293,14.893l116.377-58.656a7.979,7.979,0,0,0,3.968-6.485v-68.5A6.98,6.98,0,0,0,458.9,253.878Z" transform="translate(0 0)" fill="#c01a27"/>
    <path id="Path_121" data-name="Path 121" d="M29.154-86.219a26.392,26.392,0,0,0-10.961,2.26c-5.311,2.825-7.8,7.232-8.136,11.865-.791,10.848,5.65,15.481,8.927,17.854,2.6,1.695,10.057,5.989,15.594,8.7,5.763,2.938,11.187,5.65,14.464,8.588a25.84,25.84,0,0,1,8.249,13.673,16.35,16.35,0,0,1,.226,4.746,16.148,16.148,0,0,0,.791-4.181,25.192,25.192,0,0,0-2.486-10.848c-2.147-3.955-3.955-5.424-6.893-7.684C46.1-43.5,39.324-46.9,36.386-48.364c-3.277-1.582-15.933-8.362-19.323-11.865A15.064,15.064,0,0,1,13.221-71.19a11.407,11.407,0,0,1,6.554-10.17,22.127,22.127,0,0,1,9.718-2.034,22.616,22.616,0,0,1,12.543,4.181,15.743,15.743,0,0,1,5.537,7.345,32.572,32.572,0,0,1,2.6,11.187h3.39c0-11.413.113-19.323.565-24.295h-3.39a18.242,18.242,0,0,1-.791,4.068c-.339.791-.791,1.243-1.582,1.243-.9,0-1.7-.339-3.5-1.469-1.13-.678-2.6-1.469-3.729-2.034A24.928,24.928,0,0,0,29.154-86.219ZM38.646-.791C44.409-2.034,48.477-4.746,51.3-9.04c5.989-9.379,1.808-19.662-4.52-25.2-2.938-2.6-8.249-5.311-13.786-8.136a147,147,0,0,1-16.724-9.492C12.882-54.353,5.65-59.551,6.554-72.32a17.09,17.09,0,0,1,2.373-7.232,23.059,23.059,0,0,0-2.6,3.051C4.407-73.45,2.6-69.834,2.6-65.427c0,4.181.791,9.605,3.39,13.786a27.607,27.607,0,0,0,7.006,7.91c5.085,4.068,15.82,9.04,25.538,14.69,2.712,1.695,8.927,5.763,8.814,12.769a12.55,12.55,0,0,1-2.6,7.571c-2.26,2.825-7.571,5.424-15.481,5.311a23.233,23.233,0,0,1-17.4-7.458C7.91-15.255,7.345-21.018,6.78-29.154H3.39c0,14.916-.226,23.73-.452,28.137h3.39a16.01,16.01,0,0,1,.9-3.842c.452-.791.9-1.356,1.582-1.356.9,0,.791-.226,3.277,1.243a32.978,32.978,0,0,0,5.424,2.6A30.3,30.3,0,0,0,29.267,0,46.358,46.358,0,0,0,38.646-.791Z" transform="translate(356.592 337.38)" fill="#fbf8ef"/>
    <path id="Path_120" data-name="Path 120" d="M76.275-85.315H69.5L58.082-62.15,43.844-33l.113,29.719h-3.5l-.113-28.7L12.769-85.315H2.6L31.64-28.928v16.272A18.941,18.941,0,0,1,30.849-6.1a4.315,4.315,0,0,1-2.6,2.825,25.152,25.152,0,0,1-6.215.9V0H47.347l.226-33.109L66.9-72.546a35.03,35.03,0,0,1,4.859-7.684,9.963,9.963,0,0,1,4.52-3.051Zm-42.714,0H16.724L41.81-36.725,43.5-40.454,25.99-74.241a9.682,9.682,0,0,1-1.017-4.181c0-3.164,2.712-4.746,8.588-4.746Z" transform="translate(605.592 337.38)" fill="#fbf8ef"/>
  </g>
</svg>
