<svg xmlns="http://www.w3.org/2000/svg" width="210.645" height="126.355" viewBox="0 0 210.645 126.355">
  <g id="Pocket_Squares" data-name="Pocket Squares" transform="translate(-721.308 -820.286)">
    <path id="Path_724" data-name="Path 724" d="M-5668.933,306.308l7.406.852.686.08.878.1,7.069.812.318.038,7.088.816,3.045.35,3.068.354,1.222.14,6.507.748,1.97.228,4.067.468,6.036.694,1.23.142,2.535.292,2.027.234,8.517.98.486.056,5.833.672,1.712.2.1.012,7.892.908h.009l.429.05,3.544.408,1.708.2,1.835.212,1.17.134,6.03.694,1.949.226,7.109.818,2.471.284,1.94.224,1.023.118,4.308.5-5.791-38.867-57.785,18.424-14.488-17.073-42.455,23.648,3.252.374Z" transform="translate(6442.68 539.817)" fill="#fcf9ef"/>
    <path id="Path_725" data-name="Path 725" d="M3.7-.407,204.885,21.611l-9.828,84.2L-5.759,82.5Z" transform="translate(727.068 840.83)" fill="#9b0a07"/>
    <path id="Path_726" data-name="Path 726" d="M26.685,8.483A7.792,7.792,0,0,0,19.094.546H10.7V22.113h3.221V16.419h5.176A7.792,7.792,0,0,0,26.685,8.483Zm-7.649,5.291H13.918V3.192h5.118c2.473,0,4.457,2.387,4.457,5.291S21.509,13.774,19.036,13.774ZM40.229,2.645a7.276,7.276,0,0,1,5.435,2.5,9.164,9.164,0,0,1,2.329,6.182,9.237,9.237,0,0,1-2.329,6.211,7.154,7.154,0,0,1-10.87,0,9.237,9.237,0,0,1-2.329-6.211,9.164,9.164,0,0,1,2.329-6.182A7.322,7.322,0,0,1,40.229,2.645Zm0-2.645A11.148,11.148,0,0,0,29.273,11.33,11.173,11.173,0,0,0,40.229,22.688,11.173,11.173,0,0,0,51.185,11.33,11.148,11.148,0,0,0,40.229,0ZM70.594,17.023l-.431.518a7.154,7.154,0,0,1-10.87,0,9.237,9.237,0,0,1-2.329-6.211,9.164,9.164,0,0,1,2.329-6.182,7.154,7.154,0,0,1,10.87,0,4.2,4.2,0,0,1,.46.546l2.1-2.1A10.793,10.793,0,0,0,64.728,0,11.148,11.148,0,0,0,53.773,11.33,11.155,11.155,0,0,0,64.728,22.688a10.761,10.761,0,0,0,7.965-3.566ZM96.7.546H92.017l-11.5,9.834V.546H77.323V22.113h3.192V14.119L83.649,11.5l8.6,10.611H96.7L86.094,9.461Zm7.218,18.921V12.25h9.115V9.576h-9.115V3.192h11.157V.546H100.73V22.113h14.9V19.467ZM133.6.546H117.063V3.192h6.671V22.113h3.192V3.192H133.6ZM15.672,43.248c-1.093-2.9-4.17-3.824-6.9-4.658-2.3-.69-3.939-1.352-4.515-2.933a3.213,3.213,0,0,1,.2-2.415c.978-1.84,3.508-1.84,3.537-1.84a7.322,7.322,0,0,1,5.435,2.5,4.2,4.2,0,0,1,.46.546l2.1-2.1a10.745,10.745,0,0,0-7.994-3.594c-.489,0-4.745.086-6.412,3.249a5.58,5.58,0,0,0-.345,4.543c1.006,2.818,4.083,3.767,6.758,4.572,2.358.719,4.026,1.38,4.63,3.048a3.3,3.3,0,0,1-.058,2.243c-.6,1.438-2.07,2.358-4.572,2.387a7.276,7.276,0,0,1-5.435-2.5,2.577,2.577,0,0,1-.431-.546L0,47.878a10.871,10.871,0,0,0,7.994,3.566c3.623-.029,6.527-1.553,7.563-4A5.854,5.854,0,0,0,15.672,43.248Zm26.34,7.419-2.991-3.192a11.6,11.6,0,0,0,2.645-7.39,11.148,11.148,0,0,0-10.956-11.33,11.129,11.129,0,0,0-10.956,11.33A11.155,11.155,0,0,0,30.711,51.443a10.544,10.544,0,0,0,6.384-2.157l2.962,3.192ZM30.711,48.8a7.336,7.336,0,0,1-5.464-2.5,9.5,9.5,0,0,1,0-12.394,7.185,7.185,0,0,1,10.9,0,9.139,9.139,0,0,1,2.3,6.182,9.4,9.4,0,0,1-1.5,5.176L33.874,41.9l-1.955,1.812,3.249,3.508A7.269,7.269,0,0,1,30.711,48.8ZM59.869,29.3V42.414c0,1.294-.23,6.384-5.435,6.384s-5.492-5.09-5.492-6.384V29.3H45.75V42.414c0,3.479,1.438,9.029,8.684,9.029s8.627-5.55,8.627-9.029V29.3Zm15.729,0H73.643L64.786,50.868h3.451l2.128-5.636h8.483L81,50.868h3.451ZM71.371,42.587l3.249-8.512,3.221,8.512Zm31.66-5.636A7.567,7.567,0,0,0,95.41,29.3H87.043V50.868h3.192V44.6h5.032l4.227,6.269h3.537L98.4,44.024A7.547,7.547,0,0,0,103.031,36.951Zm-12.8-5h5.147c2.444,0,4.457,2.1,4.457,5,0,2.933-2.013,5-4.457,5H90.234Zm20.3,16.276V41.005h9.115V38.331h-9.115V31.947h11.157V29.3H107.344V50.868h14.9V48.223Zm30.251-4.975c-1.093-2.9-4.17-3.824-6.9-4.658-2.3-.69-3.939-1.352-4.515-2.933a3.213,3.213,0,0,1,.2-2.415c.978-1.84,3.508-1.84,3.537-1.84a7.322,7.322,0,0,1,5.435,2.5,4.2,4.2,0,0,1,.46.546l2.1-2.1a10.745,10.745,0,0,0-7.994-3.594c-.489,0-4.745.086-6.412,3.249a5.58,5.58,0,0,0-.345,4.543c1.006,2.818,4.083,3.767,6.757,4.572,2.358.719,4.026,1.38,4.63,3.048a3.3,3.3,0,0,1-.058,2.243c-.6,1.438-2.07,2.358-4.572,2.387a7.276,7.276,0,0,1-5.435-2.5,2.577,2.577,0,0,1-.431-.546l-2.128,2.128a10.871,10.871,0,0,0,7.994,3.566c3.623-.029,6.527-1.553,7.563-4A5.854,5.854,0,0,0,140.786,43.248Z" transform="matrix(0.995, 0.105, -0.105, 0.995, 757.284, 859.283)" fill="#fcf9ef"/>
  </g>
</svg>
