<svg xmlns="http://www.w3.org/2000/svg" width="128.714" height="164.35" viewBox="0 0 128.714 164.35">
  <g id="Shoes" transform="translate(55.927 -58.943) rotate(41)">
    <path id="Path_139" data-name="Path 139" d="M13.175,12.184c-.919-2.442-3.505-3.215-5.8-3.916-1.934-.58-3.312-1.136-3.8-2.466a2.7,2.7,0,0,1,.169-2.031A3.58,3.58,0,0,1,6.72,2.224a6.156,6.156,0,0,1,4.569,2.1,3.534,3.534,0,0,1,.387.459l1.765-1.765A9.033,9.033,0,0,0,6.72,0C6.309,0,2.732.073,1.33,2.732a4.691,4.691,0,0,0-.29,3.819C1.886,8.92,4.472,9.718,6.72,10.395c1.982.6,3.384,1.16,3.892,2.562a2.771,2.771,0,0,1-.048,1.886c-.508,1.209-1.741,1.982-3.844,2.006a6.117,6.117,0,0,1-4.569-2.1,2.166,2.166,0,0,1-.363-.459L0,16.075a9.139,9.139,0,0,0,6.72,3c3.046-.024,5.487-1.305,6.358-3.36A4.922,4.922,0,0,0,13.175,12.184ZM28.066.459V8.412H19.532V.459H16.849V18.59h2.683V10.636h8.533V18.59h2.683V.459ZM42.86,2.224a6.117,6.117,0,0,1,4.569,2.1,7.7,7.7,0,0,1,1.958,5.2,7.765,7.765,0,0,1-1.958,5.222,6.014,6.014,0,0,1-9.138,0,7.765,7.765,0,0,1-1.958-5.222,7.7,7.7,0,0,1,1.958-5.2A6.156,6.156,0,0,1,42.86,2.224ZM42.86,0a9.372,9.372,0,0,0-9.21,9.524,9.216,9.216,0,1,0,18.42,0A9.372,9.372,0,0,0,42.86,0ZM57.9,16.366V10.3h7.663V8.05H57.9V2.683h9.379V.459H55.213V18.59H67.735V16.366Zm25.431-4.182c-.919-2.442-3.505-3.215-5.8-3.916-1.934-.58-3.312-1.136-3.8-2.466A2.7,2.7,0,0,1,73.9,3.771a3.58,3.58,0,0,1,2.973-1.547,6.156,6.156,0,0,1,4.569,2.1,3.535,3.535,0,0,1,.387.459l1.765-1.765A9.033,9.033,0,0,0,76.872,0c-.411,0-3.989.073-5.391,2.732a4.691,4.691,0,0,0-.29,3.819c.846,2.369,3.433,3.167,5.681,3.844,1.982.6,3.384,1.16,3.892,2.562a2.771,2.771,0,0,1-.048,1.886c-.508,1.209-1.741,1.982-3.844,2.006a6.117,6.117,0,0,1-4.569-2.1,2.166,2.166,0,0,1-.363-.459l-1.789,1.789a9.139,9.139,0,0,0,6.72,3c3.046-.024,5.487-1.305,6.358-3.36A4.921,4.921,0,0,0,83.327,12.184Z" transform="translate(106.97 176.64) rotate(-40.5)" fill="#fbf8ef"/>
    <g id="icon-2" transform="translate(0 78.099) rotate(-39)">
      <path id="Path_130" data-name="Path 130" d="M47.313,74.687c-.4,1.965-1.745,3.8-4.213,3.207-8.881-2.1-22.8-2.73-31.04-.734-3.029.734-4.443-.587-5.58-4.208-2.835-9-7.309-19.843-6.345-33.739C2.287,8.084,15.14-.535,24.823.025S59.39,15.975,47.313,74.687ZM7.48,93.262a79.843,79.843,0,0,0-2.709,14.2C3.157,122.013,6.285,132.11,20.5,134.153c11.989,1.729,19.686-7.283,21.289-21.834.969-8.792,1.053-14.4,1.053-14.4Z" transform="translate(73.549 0)" fill="#fbf8ef"/>
      <path id="Path_131" data-name="Path 131" d="M25.728.025c9.683-.555,22.536,8.059,24.69,39.188.964,13.9-3.511,24.747-6.345,33.739-1.142,3.615-2.552,4.936-5.58,4.208-8.242-2-22.159-1.373-31.04.734-2.468.587-3.809-1.242-4.213-3.207C-8.839,15.975,16.05.586,25.728.025ZM7.708,97.914s.089,5.612,1.053,14.4c1.609,14.551,9.3,23.563,21.289,21.834,14.21-2.044,17.338-12.135,15.725-26.691a79.841,79.841,0,0,0-2.709-14.2Z" transform="translate(0 0)" fill="#fbf8ef"/>
    </g>
  </g>
</svg>
