<svg xmlns="http://www.w3.org/2000/svg" xmlns:xlink="http://www.w3.org/1999/xlink" width="190.53" height="225.105" viewBox="0 0 190.53 225.105">
  <defs>
    <linearGradient id="linear-gradient" x1="0.5" y1="1.442" x2="0.5" y2="0.21" gradientUnits="objectBoundingBox">
      <stop offset="0.337" stop-color="#f1f2f2"/>
      <stop offset="1" stop-color="#d1d3d4"/>
    </linearGradient>
  </defs>
  <g id="Suits" transform="translate(-401.647 -728.895)">
    <g id="Group_110" data-name="Group 110" transform="translate(306.44 287.844)">
      <g id="Group_104" data-name="Group 104" transform="translate(121.038 441.051)">
        <path id="Path_727" data-name="Path 727" d="M153.209,469.033l69.434,173.648,69.434-173.648Z" transform="translate(-153.209 -456.571)" fill="#fcf9ef"/>
        <g id="Group_103" data-name="Group 103" transform="translate(0)">
          <path id="Path_728" data-name="Path 728" d="M279.015,449.377l-54.258,24.26L170.5,449.377,157.02,460.86,185.3,510.041c22.093-13.779,34.513-26.521,39.455-32.183,4.942,5.663,17.363,18.4,39.455,32.183l29.979-51.91Z" transform="translate(-155.323 -445.669)" fill="#fbf8ef"/>
          <path id="Path_729" data-name="Path 729" d="M303.423,466.445s12.21,16.694,41.992,35.27l29.979-48.2-15.176-12.462Z" transform="translate(-236.526 -441.051)" fill="#fbf8ef"/>
          <path id="Path_730" data-name="Path 730" d="M225.18,466.445s-12.21,16.694-41.992,35.27l-29.978-48.2,15.176-12.462Z" transform="translate(-153.209 -441.051)" fill="#fbf8ef"/>
          <path id="Path_731" data-name="Path 731" d="M187.286,441.051H295.8l-54.258,24.26Z" transform="translate(-172.11 -441.051)" fill="#fbf8ef"/>
          <path id="Path_732" data-name="Path 732" d="M379.731,451.3c2.043-1.056,4.241-2.143,6.527-1.889,3.2.355,5.48,3.161,7.4,5.746-14.262,3.687-29.471,7.374-43.733,11.06C359.542,461.248,370.11,456.276,379.731,451.3Z" transform="translate(-262.316 -445.669)" fill="#fbf8ef"/>
          <path id="Path_733" data-name="Path 733" d="M185.475,451.3c-2.043-1.056-4.241-2.143-6.527-1.889-3.2.355-5.48,3.161-7.4,5.746,14.262,3.687,29.471,7.374,43.733,11.06C205.664,461.248,195.1,456.276,185.475,451.3Z" transform="translate(-163.383 -445.669)" fill="#fbf8ef"/>
        </g>
        <path id="Path_734" data-name="Path 734" d="M310.879,586.972a3.109,3.109,0,1,1-3.109-3.109A3.109,3.109,0,0,1,310.879,586.972Z" transform="translate(-237.212 -520.262)" fill="url(#linear-gradient)"/>
        <path id="Path_735" data-name="Path 735" d="M310.879,650.741a3.109,3.109,0,1,1-3.109-3.109A3.109,3.109,0,0,1,310.879,650.741Z" transform="translate(-237.212 -555.632)" fill="url(#linear-gradient)"/>
        <circle id="Ellipse_6" data-name="Ellipse 6" cx="3.109" cy="3.109" r="3.109" transform="translate(67.449 120.4)" fill="url(#linear-gradient)"/>
      </g>
      <g id="Group_108" data-name="Group 108" transform="translate(157.461 455.796)">
        <g id="Group_105" data-name="Group 105" transform="translate(35.906)">
          <path id="Path_736" data-name="Path 736" d="M339.438,501.113a13.815,13.815,0,0,1-5.281-1.488l-15.9-7.3c-.279-.755-.513-1.589-.739-2.4-.1-.366-.2-.731-.311-1.091-.053-.176-.106-.35-.161-.522-.088-.278-.165-.51-.24-.718a66.26,66.26,0,0,1,19.185-11.218,14.861,14.861,0,0,1,5.242-1.218h.14a5.615,5.615,0,0,1,4.592,2.192c1.182,1.766.865,4.177.44,6.495l-2.109,11.48a13.944,13.944,0,0,1-.882,3.2,4.511,4.511,0,0,1-1.267,1.714,4.166,4.166,0,0,1-2.7.87Z" transform="translate(-316.276 -474.716)" fill="#670707"/>
          <path id="Path_737" data-name="Path 737" d="M317.867,509.846l16.072,7.375c2.709,1.243,6.118,2.42,8.449.562a4.962,4.962,0,0,0,1.394-1.877,65.947,65.947,0,0,0-27.039-9.75C317.109,507.4,317.424,508.7,317.867,509.846Z" transform="translate(-316.242 -491.907)" fill="#670707"/>
          <path id="Path_738" data-name="Path 738" d="M346,500.494a78.492,78.492,0,0,0-10.3-1.37,47.313,47.313,0,0,0-19.312,2.558c.054.17.107.342.159.515a65.946,65.946,0,0,1,27.039,9.75,14.255,14.255,0,0,0,.915-3.3Z" transform="translate(-316.045 -487.948)" fill="#670707"/>
          <path id="Path_739" data-name="Path 739" d="M335.273,485.337a78.481,78.481,0,0,1,10.3,1.37l.612-3.332c.423-2.3.8-4.877-.507-6.823a6.045,6.045,0,0,0-4.955-2.39,15.18,15.18,0,0,0-5.547,1.246,67.062,67.062,0,0,0-19.554,11.5c.123.32.234.653.341.991A47.314,47.314,0,0,1,335.273,485.337Z" transform="translate(-315.62 -474.161)" fill="#670707"/>
        </g>
        <g id="Group_106" data-name="Group 106">
          <path id="Path_740" data-name="Path 740" d="M243.349,501.113a13.816,13.816,0,0,0,5.281-1.488l15.9-7.3c.279-.755.513-1.589.739-2.4.1-.366.2-.731.311-1.091.053-.176.106-.35.161-.522.088-.278.165-.51.24-.718A66.26,66.26,0,0,0,246.8,476.379a14.863,14.863,0,0,0-5.242-1.218h-.14a5.615,5.615,0,0,0-4.592,2.192c-1.182,1.766-.865,4.177-.44,6.495l2.109,11.48a13.941,13.941,0,0,0,.882,3.2,4.511,4.511,0,0,0,1.267,1.714,4.166,4.166,0,0,0,2.7.87Z" transform="translate(-235.554 -474.716)" fill="#670707"/>
          <path id="Path_741" data-name="Path 741" d="M268.587,509.846l-16.072,7.375c-2.709,1.243-6.118,2.42-8.449.562a4.963,4.963,0,0,1-1.394-1.877,65.945,65.945,0,0,1,27.039-9.75C269.344,507.4,269.029,508.7,268.587,509.846Z" transform="translate(-239.253 -491.907)" fill="#670707"/>
          <path id="Path_742" data-name="Path 742" d="M237.256,500.494a78.492,78.492,0,0,1,10.3-1.37,47.313,47.313,0,0,1,19.312,2.558c-.054.17-.107.342-.159.515a65.944,65.944,0,0,0-27.039,9.75,14.232,14.232,0,0,1-.915-3.3Z" transform="translate(-236.249 -487.948)" fill="#670707"/>
          <path id="Path_743" data-name="Path 743" d="M246.3,485.337a78.481,78.481,0,0,0-10.3,1.37l-.612-3.332c-.423-2.3-.8-4.877.507-6.823a6.045,6.045,0,0,1,4.955-2.39,15.182,15.182,0,0,1,5.547,1.246,67.061,67.061,0,0,1,19.554,11.5c-.123.32-.234.653-.341.991A47.314,47.314,0,0,0,246.3,485.337Z" transform="translate(-234.996 -474.161)" fill="#670707"/>
        </g>
        <g id="Group_107" data-name="Group 107" transform="translate(24.901 6.872)">
          <path id="Path_744" data-name="Path 744" d="M304.923,491.157a8.948,8.948,0,0,0-12.669,12.094A51.128,51.128,0,0,1,304.923,491.157Z" transform="translate(-290.909 -489.591)" fill="#670707"/>
          <path id="Path_745" data-name="Path 745" d="M306.6,493.107A51.128,51.128,0,0,0,293.928,505.2,8.952,8.952,0,1,0,306.6,493.107Z" transform="translate(-292.583 -491.541)" fill="#670707"/>
        </g>
      </g>
      <g id="Group_109" data-name="Group 109" transform="translate(95.207 453.513)">
        <path id="Path_746" data-name="Path 746" d="M121.038,469.033l69.434,173.648L95.207,509.261Z" transform="translate(-95.207 -469.033)" fill="#66090c"/>
        <path id="Path_747" data-name="Path 747" d="M378.553,469.033,309.119,642.681l95.265-133.42Z" transform="translate(-213.854 -469.033)" fill="#66090c"/>
        <path id="Path_748" data-name="Path 748" d="M117.685,590.844v119.4H202.94Z" transform="translate(-107.675 -536.596)" fill="#990e12"/>
        <path id="Path_749" data-name="Path 749" d="M394.374,590.844v119.4H309.119Z" transform="translate(-213.854 -536.596)" fill="#990e12"/>
      </g>
    </g>
    <text id="Suits-2" data-name="Suits" transform="translate(497 946)" fill="#fcf9ef" font-size="33" font-family="PierSans-Regular, Pier Sans"><tspan x="-49.038" y="0">SUITS</tspan></text>
  </g>
</svg>
