<svg xmlns="http://www.w3.org/2000/svg" width="105.013" height="312.084" viewBox="0 0 105.013 312.084">
  <g id="Ties" transform="matrix(0.94, 0.342, -0.342, 0.94, 17.943, -27.905)">
    <path id="Path_116" data-name="Path 116" d="M58.05,51.912c5.692-2.2,9.268-7.478,11.91-13.639s3.076-25.514,0-30.357S50.781,0,44,0,21.117,3.076,18.04,7.916s-2.642,24.2,0,30.357,6.214,11.438,11.906,13.639S0,249.465,0,249.465s34.314,48.6,44,48.6,44-48.6,44-48.6S52.361,54.116,58.05,51.912Z" transform="translate(0 32.964) rotate(-22)" fill="#faf7ef"/>
    <path id="Path_137" data-name="Path 137" d="M14.1.466H0V2.723H5.69V18.862H8.413V2.723H14.1Zm4.93,0H16.311v18.4h2.723Zm7.628,16.139V10.449h7.775V8.168H26.661V2.723h9.517V.466H23.939v18.4H36.644V16.605Zm25.8-4.243c-.932-2.477-3.556-3.262-5.887-3.973-1.962-.589-3.36-1.153-3.851-2.5a2.741,2.741,0,0,1,.172-2.06c.834-1.57,2.992-1.57,3.017-1.57A6.246,6.246,0,0,1,50.551,4.39a3.586,3.586,0,0,1,.392.466l1.791-1.79A9.165,9.165,0,0,0,45.915,0c-.417,0-4.047.074-5.47,2.772a4.759,4.759,0,0,0-.294,3.875c.858,2.4,3.483,3.213,5.764,3.9,2.011.613,3.434,1.177,3.949,2.6a2.811,2.811,0,0,1-.049,1.913c-.515,1.226-1.766,2.011-3.9,2.036a6.206,6.206,0,0,1-4.636-2.134,2.2,2.2,0,0,1-.368-.466L39.1,16.311a9.273,9.273,0,0,0,6.819,3.041c3.09-.025,5.568-1.324,6.451-3.409A4.994,4.994,0,0,0,52.464,12.362Z" transform="translate(95.188 271.286) rotate(29)" fill="#fbf8ef"/>
  </g>
</svg>
