<svg xmlns="http://www.w3.org/2000/svg" width="219.473" height="188.136" viewBox="0 0 219.473 188.136">
  <g id="Title_Logo" data-name="Title Logo" transform="translate(-850.374 -24.624)">
    <g id="Logo" transform="translate(863.581 120.287)">
      <rect id="Rectangle_2" data-name="Rectangle 2" width="48.536" height="48.541" rx="7" transform="translate(71.983 17.91)" fill="#c01a27"/>
      <path id="Path_50" data-name="Path 50" d="M347.567,231.438l57.2-21.636c6.321-1.959,11.38,1.772,11.555,8.619,0,0-2.2,26.87-2.2,35.83,0,9.8,2.2,39.191,2.2,39.191-.175,6.823-5.017,10.026-11.063,7.4L347.477,271.7a3.964,3.964,0,0,1-1.97-3.222V234.443A3.468,3.468,0,0,1,347.567,231.438Z" transform="translate(-223.822 -209.282)" fill="#c01a27"/>
      <path id="Path_51" data-name="Path 51" d="M389.211,231.438,331.974,209.8c-6.325-1.959-11.388,1.772-11.567,8.619,0,0,2.2,26.87,2.2,35.83,0,9.8-2.2,39.191-2.2,39.191.18,6.823,5.025,10.026,11.076,7.4L389.3,271.7a3.964,3.964,0,0,0,1.971-3.222V234.443A3.468,3.468,0,0,0,389.211,231.438Z" transform="translate(-320.407 -209.282)" fill="#c01a27"/>
      <path id="Path_121" data-name="Path 121" d="M15.792-86.219A13.112,13.112,0,0,0,10.346-85.1,7.14,7.14,0,0,0,6.3-79.2c-.393,5.389,2.807,7.691,4.435,8.87,1.291.842,5,2.975,7.747,4.323,2.863,1.46,5.558,2.807,7.186,4.267a12.838,12.838,0,0,1,4.1,6.793,8.123,8.123,0,0,1,.112,2.358,8.023,8.023,0,0,0,.393-2.077,12.516,12.516,0,0,0-1.235-5.389,10.388,10.388,0,0,0-3.425-3.818,46.377,46.377,0,0,0-6.232-3.537c-1.628-.786-7.916-4.154-9.6-5.895a7.484,7.484,0,0,1-1.909-5.446A5.667,5.667,0,0,1,11.132-83.8a10.993,10.993,0,0,1,4.828-1.011,11.236,11.236,0,0,1,6.232,2.077,7.821,7.821,0,0,1,2.751,3.649,16.182,16.182,0,0,1,1.291,5.558h1.684c0-5.67.056-9.6.281-12.07H26.515a9.063,9.063,0,0,1-.393,2.021c-.168.393-.393.618-.786.618a3.306,3.306,0,0,1-1.74-.73c-.561-.337-1.291-.73-1.853-1.011A12.385,12.385,0,0,0,15.792-86.219Zm4.716,42.442a9.459,9.459,0,0,0,6.288-4.1c2.975-4.66.9-9.768-2.246-12.519A37.326,37.326,0,0,0,17.7-64.437a73.031,73.031,0,0,1-8.309-4.716A10.483,10.483,0,0,1,4.564-79.314a8.49,8.49,0,0,1,1.179-3.593,11.456,11.456,0,0,0-1.291,1.516,10.227,10.227,0,0,0-1.853,5.5A13.446,13.446,0,0,0,4.283-69.04a13.716,13.716,0,0,0,3.481,3.93c2.526,2.021,7.86,4.491,12.688,7.3,1.347.842,4.435,2.863,4.379,6.344a6.235,6.235,0,0,1-1.291,3.761c-1.123,1.4-3.761,2.695-7.691,2.639A11.543,11.543,0,0,1,7.2-48.774c-1.965-2.189-2.246-5.053-2.526-9.095H2.992c0,7.41-.112,11.789-.225,13.979H4.452A7.954,7.954,0,0,1,4.9-45.8c.225-.393.449-.674.786-.674.449,0,.393-.112,1.628.618a16.384,16.384,0,0,0,2.695,1.291,15.056,15.056,0,0,0,5.839,1.179A23.031,23.031,0,0,0,20.508-43.777Z" transform="translate(16.67 107.025)" fill="#fbf8ef"/>
      <path id="Path_120" data-name="Path 120" d="M39.2-85.315H35.834l-5.67,11.509L23.09-59.322l.056,14.765h-1.74l-.056-14.26-13.7-26.5H2.6L17.027-57.3v8.084a9.41,9.41,0,0,1-.393,3.256,2.144,2.144,0,0,1-1.291,1.4,12.5,12.5,0,0,1-3.088.449v1.179H24.83l.112-16.449,9.6-19.593a17.4,17.4,0,0,1,2.414-3.818A4.95,4.95,0,0,1,39.2-84.3Zm-21.221,0H9.617L22.08-61.175l.842-1.853-8.7-16.786a4.81,4.81,0,0,1-.505-2.077c0-1.572,1.347-2.358,4.267-2.358Z" transform="translate(140.377 106.57)" fill="#fbf8ef"/>
    </g>
    <path id="Path_723" data-name="Path 723" d="M-131.145-45.3a11.175,11.175,0,0,1-3.552,8.279,11.766,11.766,0,0,1-8.525,3.47,11.814,11.814,0,0,1-8.525-3.443A11.148,11.148,0,0,1-155.3-45.3a11.168,11.168,0,0,1,2.159-6.667,12.03,12.03,0,0,1,5.6-4.317l.219.492a11.4,11.4,0,0,0-5.438,4.071,10.6,10.6,0,0,0-2.1,6.421,10.543,10.543,0,0,0,3.525,7.924,11.466,11.466,0,0,0,8.115,3.334,8.662,8.662,0,0,0,6.777-3.306A11.79,11.79,0,0,0-133.6-45.3a11.171,11.171,0,0,0-2.541-7.514,9.656,9.656,0,0,0-6.531-3.416A7.237,7.237,0,0,1-147.1-58.2a5.141,5.141,0,0,1-1.53-4.044,5.732,5.732,0,0,1,1.639-3.825,5.035,5.035,0,0,1,3.771-1.585,5.213,5.213,0,0,1,3.825,1.585,5.213,5.213,0,0,1,1.585,3.825,5.179,5.179,0,0,1-.656,2.514l-.273-.109a4.8,4.8,0,0,0,.6-2.35,4.933,4.933,0,0,0-1.476-3.58,4.8,4.8,0,0,0-3.552-1.5,2.877,2.877,0,0,0-2.323,1.2,5.128,5.128,0,0,0-.956,3.279q0,4.044,3.989,4.427a11.783,11.783,0,0,1,8.088,4.317A13.185,13.185,0,0,1-131.145-45.3Zm23.937,6.449a5.348,5.348,0,0,1-1.612,3.88,5.277,5.277,0,0,1-3.907,1.639,5.3,5.3,0,0,1-3.88-1.639,5.3,5.3,0,0,1-1.639-3.88V-67.267h2.35V-38.85a5.99,5.99,0,0,0,.929,3.443,2.68,2.68,0,0,0,2.241,1.366,5.113,5.113,0,0,0,3.607-1.366,4.492,4.492,0,0,0,1.476-3.443V-67.267h.437Zm15.575,4.809h-2.35V-67.322h2.35Zm25.139-32.79h-4.755v32.79H-73.6V-66.83h-4.755v-.492h11.859Zm-142.69,42.289-4.372,21.368V8.686h-2.35V-.659l-4.864-23.882h2.4l4.372,21.259,4.372-21.259Zm47.709,16.395a17.2,17.2,0,0,1-4.946,12.323,15.993,15.993,0,0,1-12,5.164,17.156,17.156,0,0,1-12.3-4.918A15.946,15.946,0,0,1-195.85-7.545,17.2,17.2,0,0,1-190.9-19.869a15.993,15.993,0,0,1,12-5.164,17.156,17.156,0,0,1,12.3,4.918A15.946,15.946,0,0,1-161.475-8.146Zm-2.241,0A16.626,16.626,0,0,0-168.2-19.869,13.7,13.7,0,0,0-178.854-24.6a13.582,13.582,0,0,0-10.411,5.11,17.734,17.734,0,0,0-4.29,11.941,16.364,16.364,0,0,0,4.481,11.613A14.119,14.119,0,0,0-178.417,8.85a13.24,13.24,0,0,0,10.411-5A17.809,17.809,0,0,0-163.716-8.146Zm26.341,12.023a5.348,5.348,0,0,1-1.612,3.88A5.277,5.277,0,0,1-142.894,9.4a5.3,5.3,0,0,1-3.88-1.639,5.3,5.3,0,0,1-1.639-3.88V-24.541h2.35V3.876a5.99,5.99,0,0,0,.929,3.443,2.68,2.68,0,0,0,2.241,1.366,5.113,5.113,0,0,0,3.607-1.366,4.492,4.492,0,0,0,1.476-3.443V-24.541h.437Zm46.78,10.165q0,4.809-4.973,4.809-8.525,0-13.061-9.236l-2.514-7.432q-2.186-4.918-6.394-4.918h-3.88V8.686h-2.35V-24.6h6.23a13.459,13.459,0,0,1,9.045,3.2,9.773,9.773,0,0,1,3.743,7.678,9.943,9.943,0,0,1-2.514,6.5,11.966,11.966,0,0,1-6.886,4.208q2.678,1.093,4.809,5.246,1.366,3.17,2.787,6.339a20.028,20.028,0,0,0,5.465,7,9.685,9.685,0,0,0,6.066,2.4A4.069,4.069,0,0,0-92.4,17.1a3.764,3.764,0,0,0,1.312-3.06,3.065,3.065,0,0,0-1.421-2.6,5.425,5.425,0,0,0-3.224-1.011V9.943a5.857,5.857,0,0,1,3.525,1.175A3.506,3.506,0,0,1-90.595,14.041Zm-16.559-27.762a9.857,9.857,0,0,0-3.033-7.268,10.056,10.056,0,0,0-7.35-3.006h-3.88V-3.337h3.88a10.01,10.01,0,0,0,7.35-3.033A10.01,10.01,0,0,0-107.153-13.721ZM-67.478-2.572A11.175,11.175,0,0,1-71.03,5.707a11.766,11.766,0,0,1-8.525,3.47,11.814,11.814,0,0,1-8.525-3.443,11.148,11.148,0,0,1-3.552-8.307,11.168,11.168,0,0,1,2.159-6.667,12.03,12.03,0,0,1,5.6-4.317l.219.492a11.4,11.4,0,0,0-5.438,4.071,10.6,10.6,0,0,0-2.1,6.421,10.543,10.543,0,0,0,3.525,7.924,11.466,11.466,0,0,0,8.115,3.334,8.662,8.662,0,0,0,6.777-3.306,11.79,11.79,0,0,0,2.842-7.952,11.171,11.171,0,0,0-2.541-7.514A9.656,9.656,0,0,0-79.009-13.5a7.237,7.237,0,0,1-4.427-1.967,5.141,5.141,0,0,1-1.53-4.044,5.732,5.732,0,0,1,1.639-3.825,5.035,5.035,0,0,1,3.771-1.585,5.213,5.213,0,0,1,3.825,1.585,5.213,5.213,0,0,1,1.585,3.825A5.179,5.179,0,0,1-74.8-17l-.273-.109a4.8,4.8,0,0,0,.6-2.35,4.933,4.933,0,0,0-1.476-3.58,4.8,4.8,0,0,0-3.552-1.5,2.876,2.876,0,0,0-2.323,1.2,5.128,5.128,0,0,0-.956,3.279q0,4.044,3.989,4.427A11.783,11.783,0,0,1-70.7-11.316,13.185,13.185,0,0,1-67.478-2.572ZM-45.29,8.686h-9.4V-24.6h8.361v.492H-52.34v10.93h7.05v.492h-7.05V8.194h7.05Zm22.024,0h-9.4V-24.6h2.35V8.194h7.05ZM-1.3-12.628h-7V8.686h-2.35V-24.541h8.307v.492H-8.292v10.93h7Z" transform="translate(1071.144 92.274)" fill="#231f20"/>
  </g>
</svg>
